<?xml version="1.0" encoding="UTF-8"?>
<!DOCTYPE svg PUBLIC "-//W3C//DTD SVG 1.1//EN" "http://www.w3.org/Graphics/SVG/1.1/DTD/svg11.dtd">
<!-- Creator: CorelDRAW 2026 -->
<svg xmlns="http://www.w3.org/2000/svg" xml:space="preserve" width="1080px" height="1080px" version="1.1" style="shape-rendering:geometricPrecision; text-rendering:geometricPrecision; image-rendering:optimizeQuality; fill-rule:evenodd; clip-rule:evenodd"
viewBox="0 0 1080 1080"
 xmlns:xlink="http://www.w3.org/1999/xlink"
 xmlns:xodm="http://www.corel.com/coreldraw/odm/2003">
 <defs>
  <style type="text/css">
   <![CDATA[
    .fil0 {fill:white;fill-rule:nonzero}
   ]]>
  </style>
 </defs>
 <g id="Camada_x0020_1">
  <metadata id="CorelCorpID_0Corel-Layer"/>
  <path class="fil0" d="M120.16 631.74c-2.87,0 -5.23,-1.49 -7.07,-4.44 -1.57,-2.55 -3.01,-6.8 -4.28,-12.73l-2.84 -13.68c-2.17,-8.45 -5.61,-27.14 -10.32,-56.07l-15.9 47.89 -4.71 15.09c-1.9,5.98 -3.9,10.88 -5.96,14.7 -2.22,3.98 -5.23,5.99 -8.99,5.99 -3.12,0 -5.58,-1.68 -7.4,-5.04 -1.16,-2.22 -2.22,-5.06 -3.17,-8.5l-2.3 -8.81c-5.34,-18.69 -10.05,-38.7 -14.14,-60.04l-2.84 14.21 -10.24 41.96c-0.43,4.9 -1.76,12.19 -3.98,21.83 -1.57,4.12 -4.2,6.17 -7.83,6.17 -2.6,0 -4.66,-0.91 -6.2,-2.79 -1.33,-1.57 -1.98,-3.54 -1.98,-5.87 0,-8.83 1.82,-19.69 5.47,-32.56l8.72 -31.99 4.61 -25.02c2.33,-11.7 4.79,-19.34 7.37,-22.94 2.14,-3.06 4.73,-4.61 7.85,-4.61 3.44,0 6.01,1.95 7.72,5.88 2.06,4.71 4.28,14.33 6.66,28.82 2.82,17.41 7.18,36.27 13.11,56.55 7.86,-20.39 14.63,-41.63 20.37,-63.7l2.38 -11.59c0.95,-4.66 2.2,-8.4 3.74,-11.27 2.06,-3.87 4.9,-5.82 8.5,-5.82 4.55,0 8.02,4.38 10.4,13.13 0.84,3.01 1.87,9.27 3.09,18.75 3.12,23.91 7.02,44.36 11.65,61.29l3.9 13.65c2,7.31 3.01,11.83 3.01,13.51 0,2.31 -0.87,4.2 -2.58,5.75 -1.73,1.54 -3.66,2.3 -5.82,2.3z"/>
  <path id="_1" class="fil0" d="M210.54 526.22c-3.38,0 -7.66,-0.36 -12.78,-1.06l-12.79 -1.65c-1.22,15.38 -1.84,30.09 -1.84,44.12 0,3.71 0.11,8.29 0.33,13.73 0.21,5.44 0.29,10.02 0.29,13.73 0,4.99 -0.16,9.51 -0.54,13.57l25.03 -0.32c2.25,0 4.12,0.78 5.61,2.35 1.51,1.6 2.27,3.52 2.27,5.83 0,2.33 -0.76,4.3 -2.27,5.87 -1.49,1.57 -3.36,2.36 -5.61,2.36 -2.95,0 -7.42,0.05 -13.35,0.16 -5.93,0.11 -10.38,0.16 -13.36,0.16 -3.49,0 -8.72,0.49 -15.71,1.47 -6.96,0.97 -12.21,1.46 -15.76,1.46 -2.25,0 -4.12,-0.79 -5.61,-2.33 -1.51,-1.57 -2.27,-3.47 -2.27,-5.74 0,-2.28 0.76,-4.2 2.27,-5.77 1.49,-1.57 3.36,-2.38 5.58,-2.38 3.44,0 9.16,-0.55 17.09,-1.66 0.52,-4.28 0.79,-9.18 0.79,-14.7 0,-3.66 -0.16,-8.13 -0.51,-13.38 -0.36,-5.28 -0.52,-9.73 -0.52,-13.33 0,-12.24 0.73,-27.52 2.22,-45.85l-10.35 0.32 -10.31 0.25c-2.31,0 -4.2,-0.79 -5.75,-2.33 -1.54,-1.55 -2.3,-3.5 -2.3,-5.88 0,-4.96 2.49,-7.66 7.48,-8.13 4.3,-0.43 12.32,-0.65 24.1,-0.65 10.54,0 23.76,1.14 39.68,3.44 4.71,0.68 7.07,3.52 7.07,8.54 0,2.49 -0.89,4.46 -2.71,5.95 -1.57,1.22 -3.41,1.85 -5.47,1.85z"/>
  <path id="_2" class="fil0" d="M345.69 607.44c0,2.55 -0.43,6.77 -1.27,12.7 -0.84,5.34 -3.68,8.02 -8.51,8.02 -2.92,0 -6.38,-1.89 -10.39,-5.71 -21.56,-20.34 -46.26,-49.73 -74.16,-88.11l-0.41 18.01 -0.24 18.09c0,4.39 0.08,11 0.27,19.78 0.19,8.77 0.3,15.41 0.3,19.85 0,14.22 -2.74,21.34 -8.24,21.34 -2.9,0 -5.2,-0.92 -6.9,-2.79 -1.52,-1.62 -2.28,-3.57 -2.28,-5.85 0,-2.22 0.16,-5.58 0.52,-10.1 0.32,-4.5 0.51,-7.85 0.51,-10.08 0,-3.27 0.08,-8.17 0.3,-14.7 0.22,-6.53 0.32,-11.46 0.32,-14.74 0,-3.49 -0.08,-8.74 -0.24,-15.81 -0.16,-7.07 -0.24,-12.35 -0.24,-15.85 0,-3.33 -0.3,-8.29 -0.95,-14.87 -0.63,-6.58 -0.95,-11.54 -0.95,-14.9 0,-2.41 1.06,-4.63 3.14,-6.66 2.09,-2 4.44,-3 7.1,-3 2.79,0 6.25,3.06 10.4,9.21 13.16,19.71 25,36.1 35.53,49.15 12.54,15.5 26.3,30.31 41.28,44.42 0.11,-2.27 0.08,-5.63 -0.08,-10.07l-0.22 -10c0,-23.24 -0.89,-41.71 -2.68,-55.47 -0.21,-1.38 -0.92,-4.14 -2.11,-8.34 -1.06,-3.57 -1.57,-6.39 -1.57,-8.39 0,-6.15 2.82,-9.21 8.42,-9.21 9.24,0 13.84,17.17 13.84,51.48 0,5.88 -0.08,14.66 -0.24,26.3 -0.17,11.68 -0.25,20.45 -0.25,26.3z"/>
  <path id="_3" class="fil0" d="M428.82 526.22c-3.39,0 -7.67,-0.36 -12.79,-1.06l-12.78 -1.65c-1.22,15.38 -1.84,30.09 -1.84,44.12 0,3.71 0.11,8.29 0.32,13.73 0.22,5.44 0.3,10.02 0.3,13.73 0,4.99 -0.16,9.51 -0.54,13.57l25.02 -0.32c2.25,0 4.12,0.78 5.61,2.35 1.52,1.6 2.28,3.52 2.28,5.83 0,2.33 -0.76,4.3 -2.28,5.87 -1.49,1.57 -3.36,2.36 -5.61,2.36 -2.95,0 -7.42,0.05 -13.35,0.16 -5.93,0.11 -10.37,0.16 -13.35,0.16 -3.5,0 -8.72,0.49 -15.71,1.47 -6.96,0.97 -12.22,1.46 -15.76,1.46 -2.25,0 -4.12,-0.79 -5.61,-2.33 -1.52,-1.57 -2.28,-3.47 -2.28,-5.74 0,-2.28 0.76,-4.2 2.28,-5.77 1.49,-1.57 3.36,-2.38 5.58,-2.38 3.44,0 9.15,-0.55 17.09,-1.66 0.51,-4.28 0.79,-9.18 0.79,-14.7 0,-3.66 -0.17,-8.13 -0.52,-13.38 -0.35,-5.28 -0.51,-9.73 -0.51,-13.33 0,-12.24 0.73,-27.52 2.22,-45.85l-10.35 0.32 -10.32 0.25c-2.3,0 -4.2,-0.79 -5.74,-2.33 -1.54,-1.55 -2.3,-3.5 -2.3,-5.88 0,-4.96 2.49,-7.66 7.47,-8.13 4.31,-0.43 12.33,-0.65 24.11,-0.65 10.53,0 23.75,1.14 39.68,3.44 4.71,0.68 7.07,3.52 7.07,8.54 0,2.49 -0.9,4.46 -2.71,5.95 -1.57,1.22 -3.41,1.85 -5.47,1.85z"/>
  <path id="_4" class="fil0" d="M452.32 605.33c-0.05,-2.25 0.71,-4.04 2.25,-5.44 1.57,-1.41 3.47,-2.12 5.75,-2.12 2.57,0 4.84,1.49 6.79,4.45 2.69,4.03 5.09,6.74 7.21,8.18 4.49,2.95 11.02,4.44 19.58,4.44 8.18,0 15.79,-1.76 22.81,-5.31 8.96,-4.58 13.46,-10.89 13.46,-18.99 0,-6.66 -3.77,-11.94 -11.32,-15.82 -6.4,-3.33 -14.3,-5.11 -23.7,-5.39 -8.37,-0.32 -15.47,-2.13 -21.32,-5.47 -7.5,-4.27 -11.27,-10.4 -11.27,-18.39 0,-9.4 5.34,-17.98 16.01,-25.73 10.21,-7.34 20.75,-11.02 31.64,-11.02 5.11,0 10.91,0.87 17.36,2.63 8.56,2.27 12.83,5.2 12.83,8.74 0,4.66 -2.38,6.99 -7.15,6.99 -2.11,0 -5.79,-0.57 -11.1,-1.73 -5.28,-1.16 -9.37,-1.73 -12.3,-1.68 -8.23,0.11 -15.24,2.14 -21.02,6.12 -5.93,4.06 -8.88,9.02 -8.88,14.84 0,4.42 3.93,7.51 11.76,9.32 2.9,0.68 8.56,1.3 16.9,1.9 12.13,0.89 21.61,4.71 28.44,11.43 6.25,6.12 9.37,13.62 9.37,22.45 0,12.57 -5.82,22.61 -17.44,30.15 -10.11,6.49 -21.81,9.74 -35.11,9.74 -9.67,0 -18.52,-1.84 -26.57,-5.55 -9.83,-4.55 -14.81,-10.8 -14.98,-18.74z"/>
  <path id="_5" class="fil0" d="M662.31 524.75c-3.9,0 -9.94,-0.3 -18.06,-0.95 -7.91,-0.56 -13.92,-0.83 -18.04,-0.78l-5.63 0c0.16,7.31 0.84,19.18 2.08,35.59 1.14,15.3 1.71,27.19 1.71,35.67 0,1.84 0.19,4.66 0.54,8.4 0.35,3.76 0.54,6.6 0.54,8.5 0,3.6 -0.57,6.72 -1.73,9.29 -1.49,3.49 -3.79,5.25 -6.91,5.25 -2.11,0 -4.03,-0.73 -5.71,-2.22 -1.71,-1.49 -2.55,-3.38 -2.55,-5.71 0,-0.81 0.14,-2.01 0.41,-3.58 0.24,-1.59 0.38,-2.79 0.38,-3.57 0,-2.6 -0.17,-6.5 -0.52,-11.67 -0.32,-5.21 -0.51,-9.13 -0.51,-11.76 0,-7.58 -0.57,-18.23 -1.76,-31.93 -1.22,-14.85 -1.9,-25.49 -2.06,-31.94l-7.23 0.09c-11.57,0 -20.67,-0.84 -27.3,-2.55 -4.28,-1.11 -6.42,-3.71 -6.42,-7.85 0,-2.17 0.67,-4.07 2.06,-5.69 1.59,-1.87 3.63,-2.71 6.09,-2.55 1.87,0.11 6.09,0.57 12.7,1.44 5.28,0.62 9.56,0.94 12.84,0.94 3.17,0 7.96,-0.08 14.41,-0.21 6.45,-0.14 11.27,-0.19 14.44,-0.19 4.06,0 10.1,0.3 18.12,0.87 7.99,0.59 14.03,0.86 18.09,0.86 2.27,0 4.2,0.79 5.71,2.36 1.55,1.54 2.31,3.49 2.31,5.82 0,2.28 -0.76,4.17 -2.31,5.74 -1.51,1.58 -3.41,2.33 -5.69,2.33z"/>
  <path id="_6" class="fil0" d="M753.16 518.14c-0.76,0 -1.57,-0.13 -2.47,-0.38 -8.96,-2.46 -17.58,-3.68 -25.89,-3.68 -4.36,0 -9.1,0.38 -14.22,1.11 -5.15,0.76 -10.67,1.9 -16.6,3.44 0.43,3.47 0.65,6.23 0.65,8.32 0,7.39 -0.43,17.58 -1.3,30.52l34.83 -3.3c10.21,-1.06 16.49,-1.57 18.82,-1.57 2.33,0 4.28,0.73 5.88,2.22 1.6,1.49 2.38,3.46 2.38,5.93 0,4.82 -2.41,7.53 -7.25,8.1l-18.94 1.68 -36.7 3.36c-0.19,3.73 -0.35,7.28 -0.46,10.61 -0.13,3.36 -0.19,6.48 -0.19,9.37 0,11.65 0.84,18.47 2.55,20.53 1.27,1.49 5.42,2.23 12.46,2.23 3.27,0 8.2,-0.09 14.81,-0.25 6.58,-0.16 11.54,-0.24 14.87,-0.24 1.06,0 2.63,-0.17 4.69,-0.49 2.08,-0.33 3.6,-0.49 4.6,-0.49 5.61,0 8.43,2.74 8.43,8.24 0,4.41 -2.25,7.07 -6.75,7.99 -4.98,0.97 -15.76,1.48 -32.34,1.48 -16.41,0 -26.95,-2.16 -31.61,-6.5 -5.09,-4.71 -7.63,-15.57 -7.63,-32.55 0,-3.39 0.08,-7.07 0.21,-11.11 0.17,-4.01 0.36,-8.34 0.6,-13 -0.54,-1.21 -0.81,-2.51 -0.81,-3.9 0,-1.78 0.48,-3.41 1.46,-4.85 1.08,-15.27 1.62,-26.57 1.62,-33.88 0,-1.95 -0.26,-4.82 -0.81,-8.58 -0.54,-3.79 -0.81,-6.67 -0.81,-8.62 0,-6.31 2.65,-9.45 7.94,-9.45 2.22,0 4.14,0.76 5.71,2.3 6.36,-1.68 12.35,-2.95 17.98,-3.79 5.64,-0.84 10.95,-1.27 15.93,-1.27 12.86,0 23.13,1.52 30.82,4.57 3.55,1.44 5.31,3.96 5.31,7.62 0,2.08 -0.68,3.95 -2.06,5.6 -1.54,1.79 -3.44,2.68 -5.71,2.68zm-29.2 -33.12c-1.9,0 -3.6,-0.76 -5.04,-2.22 -1.46,-1.49 -2.19,-3.17 -2.19,-5.09 0,-1.79 0.81,-3.52 2.46,-5.15 2.28,-2.22 5.75,-6.45 10.41,-12.62 3.49,-4.55 7.39,-8.34 11.67,-11.35 1.43,-0.97 2.84,-1.46 4.22,-1.46 1.9,0 3.58,0.76 5.01,2.25 1.44,1.51 2.14,3.19 2.14,5.09 0,2.11 -1,3.95 -3,5.55 -3.71,2.95 -7.29,6.8 -10.73,11.51 -3.6,4.96 -7.04,8.81 -10.26,11.51 -1.49,1.3 -3.04,1.98 -4.69,1.98z"/>
  <path id="_7" class="fil0" d="M855.51 625.89c-2.01,0 -3.87,-0.84 -5.61,-2.55 -17.39,-17.3 -36.72,-28.95 -58.01,-34.91l0.49 15.57 0.32 15.66c0,2.33 -0.76,4.28 -2.28,5.82 -1.51,1.57 -3.41,2.36 -5.68,2.36 -2.28,0 -4.17,-0.79 -5.69,-2.33 -1.52,-1.57 -2.27,-3.52 -2.27,-5.85 0,-4.17 -0.22,-10.4 -0.66,-18.69 -0.43,-8.26 -0.65,-14.49 -0.65,-18.66 0,-4.88 0.55,-12.14 1.63,-21.75 1.08,-9.64 1.62,-16.85 1.62,-21.67 0,-2.68 -0.24,-6.69 -0.73,-11.97 -0.48,-5.28 -0.73,-9.29 -0.73,-12 0,-3 0.84,-5.63 2.55,-7.91 2,-2.81 4.77,-4.09 8.31,-3.82l19.07 1.52c7.23,0.89 13.33,2.65 18.28,5.31 21.37,11.38 32.07,25.24 32.07,41.63 0,8.04 -3.65,15.14 -10.94,21.34 -5.85,4.96 -13.16,8.75 -21.94,11.35 16.44,8.83 28.71,18.12 36.84,27.9 1.38,1.7 2.05,3.49 2.05,5.39 0,2.22 -0.81,4.17 -2.41,5.79 -1.6,1.65 -3.46,2.47 -5.63,2.47zm-50.46 -104.85l-11.7 -0.95 0.76 9.59c0.35,3.9 0.54,7.1 0.54,9.59 0,4.23 -0.3,9.48 -0.92,15.76l-1.52 15.77c0.73,0 1.87,0.02 3.44,0.08 1.55,0.05 2.71,0.08 3.5,0.08 13.4,0 23.42,-1.79 30.09,-5.39 2.95,-1.62 5.69,-3.76 8.2,-6.42 2.79,-2.95 4.18,-5.47 4.18,-7.53 0,-7.34 -4.18,-14.16 -12.52,-20.5 -7.64,-5.82 -15.65,-9.18 -24.05,-10.08z"/>
  <path id="_8" class="fil0" d="M944.35 526.22c-3.39,0 -7.67,-0.36 -12.79,-1.06l-12.78 -1.65c-1.22,15.38 -1.84,30.09 -1.84,44.12 0,3.71 0.11,8.29 0.32,13.73 0.22,5.44 0.3,10.02 0.3,13.73 0,4.99 -0.16,9.51 -0.54,13.57l25.03 -0.32c2.24,0 4.11,0.78 5.6,2.35 1.52,1.6 2.28,3.52 2.28,5.83 0,2.33 -0.76,4.3 -2.28,5.87 -1.49,1.57 -3.36,2.36 -5.6,2.36 -2.96,0 -7.42,0.05 -13.36,0.16 -5.93,0.11 -10.37,0.16 -13.35,0.16 -3.49,0 -8.72,0.49 -15.71,1.47 -6.96,0.97 -12.21,1.46 -15.76,1.46 -2.25,0 -4.12,-0.79 -5.61,-2.33 -1.52,-1.57 -2.27,-3.47 -2.27,-5.74 0,-2.28 0.75,-4.2 2.27,-5.77 1.49,-1.57 3.36,-2.38 5.58,-2.38 3.44,0 9.16,-0.55 17.09,-1.66 0.52,-4.28 0.79,-9.18 0.79,-14.7 0,-3.66 -0.17,-8.13 -0.52,-13.38 -0.35,-5.28 -0.51,-9.73 -0.51,-13.33 0,-12.24 0.73,-27.52 2.22,-45.85l-10.35 0.32 -10.32 0.25c-2.3,0 -4.19,-0.79 -5.74,-2.33 -1.54,-1.55 -2.3,-3.5 -2.3,-5.88 0,-4.96 2.49,-7.66 7.47,-8.13 4.31,-0.43 12.33,-0.65 24.11,-0.65 10.54,0 23.75,1.14 39.68,3.44 4.71,0.68 7.07,3.52 7.07,8.54 0,2.49 -0.9,4.46 -2.71,5.95 -1.57,1.22 -3.41,1.85 -5.47,1.85z"/>
  <path id="_9" class="fil0" d="M1020.81 629.95c-14.9,0 -27.55,-4.47 -37.92,-13.41 -11,-9.53 -16.5,-21.83 -16.5,-36.86 0,-18.31 5.42,-34.94 16.26,-49.94 12.13,-16.61 27.22,-24.92 45.31,-24.92 17.39,0 30.31,3.93 38.78,11.75 8.83,8.16 13.25,21.02 13.25,38.6 0,18.31 -4.99,34.8 -14.93,49.54 -11.4,16.82 -26.16,25.24 -44.25,25.24zm7.12 -108.88c-12.92,0 -23.89,6.47 -32.85,19.39 -8.29,11.87 -12.43,24.95 -12.43,39.25 0,10.21 3.76,18.52 11.32,24.94 7.23,6.04 16.19,9.05 26.84,9.05 12.84,0 23.43,-6.5 31.77,-19.48 7.45,-11.59 11.16,-24.61 11.16,-39.08 0,-12.65 -2.82,-21.56 -8.48,-26.68 -5.39,-4.92 -14.49,-7.39 -27.33,-7.39z"/>
 </g>
</svg>
