<?xml version="1.0" encoding="UTF-8"?>
<!DOCTYPE svg PUBLIC "-//W3C//DTD SVG 1.1//EN" "http://www.w3.org/Graphics/SVG/1.1/DTD/svg11.dtd">
<!-- Creator: CorelDRAW 2026 -->
<svg xmlns="http://www.w3.org/2000/svg" xml:space="preserve" width="1580px" height="502px" version="1.1" style="shape-rendering:geometricPrecision; text-rendering:geometricPrecision; image-rendering:optimizeQuality; fill-rule:evenodd; clip-rule:evenodd"
viewBox="0 0 1580 502"
 xmlns:xlink="http://www.w3.org/1999/xlink"
 xmlns:xodm="http://www.corel.com/coreldraw/odm/2003">
 <defs>
  <style type="text/css">
   <![CDATA[
    .fil1 {fill:#F90101;fill-rule:nonzero}
    .fil0 {fill:white;fill-rule:nonzero}
    .fil2 {fill:white;fill-rule:nonzero}
   ]]>
  </style>
 </defs>
 <g id="Camada_x0020_1">
  <metadata id="CorelCorpID_0Corel-Layer"/>
  <g id="_1401211735552">
   <g>
    <path class="fil0" d="M486.6 200.02l1.06 0.99 0 49.27c0,1.49 -8.08,2.9 -24.31,4.11 0.7,-2.48 3.04,-4.18 7.09,-5.17l4.11 1.06 1.91 0 0 -1.92 -11.06 0 0 1.92 -7.02 0 1 4.96c-10.07,7.23 -15.1,12.97 -15.1,17.22l-0.86 5.04 0 6.02c0,13.69 17.09,23.47 51.26,29.28l0.85 0.78 -0.85 1.06 0 2.06 3.97 -3.12c34.73,7.52 59.54,15.24 74.36,23.25l18.29 15.17 0 0.85 -3.12 0 0 -1.84c-2.63,0 -3.97,-1.42 -3.97,-4.18l-4.18 0 7.08 6.02 1.07 6.03 -2.06 0 0 2.05 0.99 0 3.12 -0.99 -3.12 7.02 9.15 0c0,2.12 0.99,3.12 2.9,3.12 0,1.98 1.42,4.6 4.19,7.94 3.26,1.2 4.96,4.25 4.96,9.07l-3.12 2.13 -9.99 0c0,1.2 -1.63,2.55 -4.97,3.89l-7.09 0 0 2.13c3.19,0 5.6,0.64 7.09,2.06 0,-1.42 1.35,-2.06 3.97,-2.06l3.12 -3.12c0.78,3.48 1.77,5.18 2.91,5.18l0.99 -1.07 1.07 1.07c0.14,-4.68 2.12,-7.09 6.02,-7.09l1.06 0.85 0 7.09 -1.06 0.99c0,1.42 -1.98,2.13 -6.02,2.13 0,3.33 -0.71,4.96 -2.06,4.96 -2.62,0 -3.97,1.63 -3.97,4.96l-8.08 0 0 1.06 0.99 4.96 1.06 0 0 -1.84 -1.06 -1.06 8.15 -3.12 4.97 0 0 2.13 2.05 0 3.97 -2.13 0 -6.03 2.05 0c-0.63,12.05 -2.05,21.84 -4.11,29.28l-1.06 -0.99 -1.84 0 0 0.99 1.84 0c-0.85,8.08 -2.83,12.05 -6.03,12.05l-2.9 -0.99 0 2.06 3.97 1.06c-1.56,3.97 -4.18,8.01 -7.94,12.05l-0.99 -1.06 -1.07 0c0,4.25 -1.98,7.58 -6.02,9.99l-1.07 -0.85 -0.99 0 2.06 -7.09 -11.2 -9.14 2.05 0 0 -1 -2.05 -2.12 -4.96 1.06 0 -8.93c0,-1.63 1.34,-2.69 4.11,-3.12l0 -1.06c0,-1.49 -2.7,-2.48 -8.09,-2.91l2.06 2.91 0 7.09 -0.99 0 -3.12 -1.06 2.05 3.11 0 2.13 -4.18 3.9 -0.78 -1 -1.06 1 -2.05 0 -1.07 -1 -1.06 0c0,-4.74 2.06,-7.08 6.02,-7.08l0 -1.06 -6.02 -3.91 -6.03 0 1.07 1 0 1.06 -2.06 1.85c-4.89,0 -7.51,-0.93 -7.94,-2.91l1.06 -1 -2.05 -2.12c0,-2.62 2.69,-3.9 8.08,-3.9l0.85 -1.06 0 -1.07c-2.9,0 -4.96,-1.63 -6.03,-4.96 2.77,-4.68 4.12,-10.7 4.12,-18.07l5.03 1.06c1.35,-3.47 2.69,-5.18 3.9,-5.18l0 -0.85 -1.85 -2.05 -3.11 0 -2.91 2.05 -1.06 0 -7.02 -9.14 0 -1.07 0.99 0 7.09 1.07c0,-2.06 1.35,-3.12 3.97,-3.12l0 -0.85 0.99 0.85 3.97 0 2.06 -1.84 0 -2.13c-3.55,0 -6.31,-1.28 -8.08,-3.9l-2.91 0 -3.12 1.84 -15.17 0 -2.91 -1.84 -3.89 0.99c-4.76,-1.63 -7.09,-3.05 -7.09,-4.11l0 -1.06c1.48,0 3.54,-1.28 6.02,-3.9 -3.33,-3.05 -7.65,-4.75 -13.11,-5.03l0 1.06 -6.03 -2.06 -0.99 1 -10.21 -12.05c-1.34,4.04 -3.97,6.02 -7.86,6.02 0,2.27 -2.35,3.9 -7.09,5.03l0 2.06 -4.11 0c-61.68,-10.42 -92.44,-38.28 -92.44,-83.72l0 -3.9c0,-46.71 30.2,-74.15 90.52,-82.51l18.08 -0.99zm12.05 0c28.92,0 54.79,8.36 77.48,25.09 10.77,11.13 16.16,18.5 16.16,22.26 3.47,0 7.8,13.04 12.9,39.27l0 2.84 -34.03 4.18 0 -1.06 -28.28 2.9c-2.62,-16.3 -7.3,-27.01 -14.11,-32.18 -5.52,-4.68 -15.95,-8.36 -31.19,-10.99l0 -2.05 1.07 -6.03 -1.07 -9.99 0 -32.18 1.07 -1.07 0 -0.99zm25.16 8.08l0 1.06 3.05 0.78 0 -1.84 -3.05 0zm21.13 7.09l3.97 -3.12 -1.07 0 -2.9 3.12zm-120.87 7.01l2.13 1.92 0.99 0 2.13 -1.92 0 -2.05 -5.25 2.05zm-29.06 16.03l2.06 2.05 0.85 0 0 -2.05 -2.91 0zm176.15 0l0 2.05 -6.02 0 0 1.92 4.96 0 4.96 -0.85 2.13 2.9 2.84 -1.06 0 -2.91 -1.85 -2.05 -7.02 0zm-149.99 2.05l0 1.92c3.33,0 5.03,0.63 5.03,2.05l2.06 0 -3.12 -3.97 -3.97 0zm136.88 8.08l0 1.92 3.97 0 0 -1.92 -3.97 0zm37.15 13.97l0 5.17 3.11 1.85 0 -1 -2.05 -6.02 -1.06 0zm-170.06 39.2l0 1.06 12.05 2.06 -6.88 -4.11 -5.17 0.99zm20.13 7.09l0 2.05 3.12 0 0 -2.05 -3.12 0zm46.29 10.2l0 1 1.06 5.03c-1.35,0 -2.69,1.99 -3.97,6.02l-5.17 0 1.06 3.91 -1.06 3.11c6.8,-4.96 10.21,-10.06 10.21,-15.16l0 -3.91 -2.13 0zm-92.58 2.91l3.12 3.12 0.99 -3.12 -0.99 -1.06 -3.12 1.06zm14.11 1l0 3.96 2.05 2.06 0 -6.02 -2.05 0zm10.98 9.99l-0.77 0.99 0 1.07 4.96 0 0 -1.07 -4.19 -0.99zm28.29 0l-1.07 0.99 0 1.07 4.19 0 0 -1.07 -3.12 -0.99zm58.34 7.09l3.97 0 0 -1.92 -1.92 0 -2.05 1.92zm-104.7 -0.85l2.13 1.84 2.05 0 0 -1.84 -4.18 0zm160.13 1.84l1.92 4.96 -3.98 2.13 -1.06 -1.06 -3.12 0 -1.84 2.05 0 1.06 1.84 2.91 0 4.18 -1.84 3.9 -4.96 0 -3.12 -2.05 0 4.18 -7.09 0 0 0.99 4.96 1.91 3.12 -2.9 1.06 0 2.91 2.05c0.71,-2.76 2.7,-4.18 6.03,-4.18l0 5.03 -2.91 0 0 3.12 3.97 3.9 2.05 -1.84 0 -7.09 2.06 -2.05 0.85 0 3.12 1.06 0 -7.09 -7.09 0 0 -1.06 1.06 -4.97 1.07 0 4.96 1.07c0,-2.77 0.71,-4.18 2.06,-4.18 -0.57,-2.2 -2.55,-4.19 -6.03,-6.03zm-85.56 2.05l0 5.04 1.07 0 0 -5.04 -1.07 0zm41.12 3.98l-1.85 2.05 0 2.13 2.91 0 0 -4.18 -1.06 0zm-46.08 8.08l-8.08 -2.06 3.9 6.03 4.18 0c0,-1.63 1.27,-2.63 3.97,-2.91l0 -2.06 2.91 -1.91 -0.85 -3.12 -6.03 6.03zm96.55 -1l-1 3.12 2.91 0 0 -3.12 -1.91 0zm20.13 1l0.85 0c2.76,1.41 4.18,3.4 4.18,6.02l-5.03 0 -2.06 -2.05 0 -1.85 2.06 -2.12zm-78.47 2.12l-1.07 1 0 0.85 2.91 0 -1.84 -1.85zm64.36 3.9l0 2.13 6.03 -1.06 0 -1.07 -6.03 0zm-89.53 2.13l2.91 0 3.12 2.9 0 3.12 -0.99 0 -5.04 -2.12 0 -3.9zm84.36 2.05l0 1.85 4.18 1.06 0 -2.06 -4.18 -0.85zm6.24 3.97l1.84 2.06 1.06 0 -2.12 -2.06 -0.78 0zm-95.77 0l7.09 0 3.12 2.91 0 5.17c-12.76,-2.33 -19.14,-4.39 -19.14,-6.02l8.93 0 0 -2.06zm55.43 3.9l-0.99 3.12 2.05 0 1.85 -2.05 -1 -1.07 -1.91 0zm26.23 1.07c0,3.33 -1.77,4.96 -5.25,4.96l0 3.12 1.07 0 9.14 -7.02 -4.96 -1.06zm19.07 3.11l0 1.85 3.97 1.06 3.12 0 0 -1.06c-3.19,0 -5.53,-0.64 -7.09,-1.85zm-11.2 6.03l0 1.84 5.17 0 -2.05 -1.84 -3.12 0zm2.05 12.05l0 2.06 -4.96 0c-1.27,1.13 -5.25,2.05 -12.05,2.9l-1.06 -1.06 0 2.13 9.14 0c0,3.96 0.64,6.02 1.92,6.02l2.05 0 -2.05 -3.12 0 -0.85 2.05 -2.05 7.09 0 2.84 2.05 0 -4.18 -0.78 -0.99 0 -0.85 1.84 -2.06 -6.03 0zm-142.83 2.06l0.99 0.85 0 0.99 -2.06 3.12 0 1.06c2.77,0 4.19,3.34 4.19,10 2.9,6.87 6.16,12.26 9.92,16.16l0 0.85 -0.99 -0.85 -0.86 0 0 1.84 0.86 0 0.99 -0.99c12.76,7.3 22.19,11.41 28.28,12.27l0 2.9 2.06 0 0 -2.12 6.03 0c3.96,0.42 6.02,1.48 6.02,3.11l0 8.16c0,1.2 -1.06,1.84 -3.12,1.84l-1.06 -0.85 -1.84 0 0 0.85c2.62,0.42 3.96,2.12 3.96,5.17l-3.11 4.97c2.05,0 3.11,0.71 3.11,2.12l0 1.84 -1.06 4.97 -1.06 -0.78 -0.99 0 -0.85 0.78 0 4.18c2.9,0 4.89,1.35 6.02,3.97l0 6.02c0,1.35 -1.42,2.06 -4.18,2.06l3.12 3.97 -2.06 2.05 -4.96 0c0,-1.55 -2.41,-4.25 -7.09,-8.08l0 -1.91 -6.03 0 0 0.85 2.91 0 0 5.18 -7.87 0c-3.47,-5.39 -5.81,-8.09 -7.09,-8.09l-1.06 1.07 0 0.99c1.98,0 2.91,2.05 2.91,6.03l-0.78 0 -4.19 0.85c-13.39,-1.49 -26.51,-6.17 -39.27,-13.9 1.14,-4.75 2.84,-7.09 5.25,-7.09l0 -3.12c-3.62,0.57 -6.66,2.2 -9.14,4.97l-3.98 0c-15.09,-10.92 -25.51,-26.3 -31.33,-46.08l-1.91 -12.27 1.91 -1.84 0 -1.06 -0.85 1.06 -1.06 0c-1.35,-3.04 -2.06,-7.44 -2.06,-13.11l2.06 -2.06 1.06 0 0.85 1.07 1 -1.07 3.11 0 6.03 1.07 6.03 -2.13 14.1 0 0 3.12 1.06 0c0.29,-2.77 1.28,-4.11 2.91,-4.11l18.08 0 7.09 -0.85zm-23.11 6.02l1.91 1.84 2.06 -1.84 0 -2.05 -2.06 0 -1.91 2.05zm182.18 -2.05l0 2.05 0.99 0 1.91 -2.05 -2.9 0zm-9.15 3.89l2.06 4.19 2.9 -4.19 -4.96 0zm-209.33 1.07l0 7.09 1 0c0,-1.42 1.06,-2.13 3.11,-2.13l0 -0.78 -2.05 -4.18 -2.06 0zm21.13 1.06l-1 1 0 2.12 3.13 0 0 -1.06 -2.13 -2.06zm28.28 2.06l0 1.84c2.62,0 3.97,1.42 3.97,4.18l3.12 0 0 -2.05 -2.13 -2.13 -0.99 0 0.99 -0.78 0 -3.12 -3.12 0 -1.84 2.06zm-37.14 3.97l4.96 0 0 -2.13 -3.12 0 -1.84 2.13zm183.95 2.05l0 1.84 5.03 0 0 -6.02c-1.28,0 -1.91,1.42 -1.91,4.18l-3.12 0zm-160.91 0l2.05 1.84 2.91 0 -1.07 -3.89 -3.89 2.05zm144.96 -2.05l1.84 2.05 1.07 0 -2.13 -2.05 -0.78 0zm-154.11 2.05l0 3.97 2.06 0 0 -3.97 -2.06 0zm145.96 3.97l0 1c0,1.98 2.41,2.9 7.08,2.9 0,2.77 0.64,4.18 1.85,4.18l2.13 0 2.05 -2.05 -11.2 -6.03 -1.91 0zm29.13 0l0 3.9 2.06 0 0 -3.9 -2.06 0zm-191.11 3.9l2.91 0 0 -1.84 -0.78 0 -2.13 1.84zm200.18 -1.84l0 1.84 2.13 2.13 0.85 0 0 -3.97 -2.98 0zm-17.01 1.84l0 1.06c0,1.21 2.06,2.98 6.03,5.18l0 -4.11c-3.48,0 -5.18,-0.71 -5.18,-2.13l-0.85 0zm19.99 3.12l0 3.97 0.99 0 2.06 -1.91 -3.05 -2.06zm-26.23 3.12l0 1.84 4.18 2.13 1.07 0 0 -2.13 -5.25 -1.84zm-140.78 1.84l0 2.13 2.06 3.9 2.13 0 0 -1.84 -2.13 -4.19 -2.06 0zm158.08 2.13l0 0.99 2.84 1.07 0 -2.06 -2.84 0zm-190.26 3.9l0 1.06 2.06 0 0 -2.9 -2.06 1.84zm187.14 10.21l0 1.06 2.06 0 0 0.78 4.96 -3.9c3.33,0 5.03,-1.7 5.03,-5.03l0.99 0c0,-2.06 -1.27,-3.12 -3.97,-3.12l0 -1.84 -0.99 0c-1.41,0 -2.12,3.33 -2.12,9.99l-5.96 2.06zm-169.92 -8.09l0.85 6.03 2.06 0 0 -1.06 -1.06 -4.97 -1.85 0zm28.08 0c0,2.06 -1,3.13 -2.91,3.13l0 1.84 4.96 -4.97 -2.05 0zm92.57 -1.06c4.19,0 8.16,1.63 12.05,4.97 6.67,0 10,2.4 10,7.08l3.12 1.06 0.99 -1.06 2.13 3.12 -1.07 1.07 0 0.99c4.05,3.19 6.03,5.81 6.03,7.94l1.84 0c0,-2.77 2.7,-4.47 8.16,-5.04l0.99 1.07 -0.99 1.06 0 1.84 0.99 1.07c-0.28,3.4 -1.21,5.17 -2.91,5.17l0 3.97c0,3.26 -1.7,4.96 -5.17,4.96 0,1.49 1.7,2.56 5.17,3.12l0 -1.06 0.85 -1.06 1.07 0 0 -7.02 2.05 0 0 -1.07 -1.06 -0.99c0.42,-3.33 2.76,-5.03 7.09,-5.03 1.13,4.75 2.41,7.09 3.9,7.09l0 1.06c-13.83,10.63 -24.53,15.95 -32.19,15.95l0 -1.84 -10.99 1.84 0 -0.85 1.07 -3.12 -1.07 0 -2.9 1.06 0 1.07 1.84 2.9 0 2.06c0,2.91 -12.33,4.89 -37.14,6.02l-1.07 -1.06 0 -12.05 1.07 -0.99 0 -1.06 4.96 1.06 2.13 0c1.34,0 2.05,-1.7 2.05,-5.03l2.91 -3.12 0 -1.85 -1.06 0 -1 1.07 -0.85 0c0,-3.33 -1.41,-7.44 -4.18,-12.27l1.06 -2.9 -7.09 -6.03 0 -6.02c0,-1.49 1.71,-2.55 5.04,-3.12l5.17 1.06c0,-2.62 3.33,-3.97 10,-3.97l0 6.03 -10 0 2.91 6.02 1.06 0 0 -2.06 8.08 0 -1.06 -1.06 0 -1.06 2.13 0 2.9 2.12 0.99 -1.06 1.07 6.03 1.84 0 0 -2.91 -0.85 -4.96 0.85 -1.06c-1.91,0 -3.26,-1.63 -3.9,-4.96l-2.9 0 0 -1.07 3.89 -3.12zm8.16 8.08l0.99 2.91 1.84 -1.84 0 -3.12 -0.99 0 -1.84 2.05zm-92.65 1.07c0,1.27 1.27,1.84 3.97,1.84l-0.86 1.06 0 1.06 3.91 2.06 0 -1.06 -3.05 -4.96 -3.97 0zm37.14 4.96l0 3.12 3.12 0 0 -0.99 -2.06 -2.13 -1.06 0zm59.4 3.12l0 1.91 4.97 0 -1.85 -1.91 -3.12 0zm46.29 0l0 1.91 2.98 0 0 -1.91 -2.98 0zm-11.98 0.85l3.9 0 0 4.18 -2.9 0.99 -1 -0.99 0 -4.18zm-137.94 5.17l1.06 0 1.07 -0.99 0.99 0 2.9 2.91 1.07 0 0 -1.07 -1.07 -2.9 -3.89 0 -2.13 2.05zm64.36 -3.12l2.13 0 0.99 3.12 -0.99 2.91 -2.13 0 0 -6.03zm-86.55 3.97l0 1.07 4.11 0 -0.99 -1.07 0 -0.85 -3.12 0.85zm53.38 0l0 1.07 2.05 2.05 1.07 0 2.91 -1.06 0 -0.99 -5.04 -1.07 -0.99 0zm-11.06 1.07l0 3.05 3.97 2.97 2.06 0 0 -3.97 -1 0 -1.06 1c-1.92,0 -2.91,-1 -2.91,-3.05l-1.06 0zm47.35 3.05l5.04 1.06 0 7.87 -6.03 0 -2.13 -1.85 0 -4.96c0,-1.41 1.07,-2.12 3.12,-2.12zm52.39 1.06c0,1.98 -1.07,2.9 -3.12,2.9l0 1.07 3.9 0 1.06 -3.97 -1.84 0zm-11.27 1.06l0 4.96 7.09 -0.99 0 -1.06c-3.34,0 -4.96,-0.99 -4.96,-2.91l-2.13 0zm-107.54 0.85l2.06 2.06 0.85 0 -1.84 -2.06 -1.07 0zm86.63 2.06c0.92,2.62 1.91,3.9 2.9,3.9l2.06 0 0 -0.78 -3.12 -3.12 -1.84 0zm-78.55 3.9l-1.06 1.06 0 3.12 1.06 -1.06 1.06 0 3.91 1.06 -4.97 -4.18zm33.25 4.18l0 3.97 1.84 2.05 1.06 -1.06 2.06 0 0 2.13 1.07 0 0 -2.13 -6.03 -4.96zm73.3 3.97l6.02 0 0 -2.13 -1.84 -1.84 -1.07 0 -3.11 3.97zm-122.71 -2.91l0 0.78c4.68,0 7.02,2.13 7.02,6.24l2.13 0 0 -2.06 0.99 -1.06 -0.99 -0.99 -8.16 -2.91 -0.99 0zm35.3 0.78l0 4.18 1.85 0 0 -2.05 -1.85 -2.13zm48.14 5.25l0 4.96 5.03 -2.06c0,-1.56 -1.7,-2.48 -5.03,-2.9zm-6.03 7.02l0 0.85 7.09 1.06 -1.06 -2.91 -6.03 1zm-43.17 0l0 0.85 -1.06 1.06 0 0.99 -3.12 -0.99 0 -1.06 4.18 -0.85zm3.97 1.91l4.11 0 0 2.05 -0.99 0 -3.12 -1.06 0 -0.99zm171.54 -295.74l0 3.12 1 0c0,-1.7 1.49,-2.69 4.39,-3.12l2.06 3.12 0 2.05c-2.06,0 -3.12,1.14 -3.12,3.33l-4.33 2.06 -4.18 -0.99c-1.34,3.19 -2.76,4.89 -4.18,5.17l-0.99 -1.06 -1.28 0 -3.12 4.18 6.46 1.21 0 7.3c-2.91,0 -4.33,1.06 -4.33,3.12l-4.18 0 0 -11.63 1.06 -9.36 -1.06 -7.51 1.06 -0.99 14.74 0zm13.69 0l35.93 0 2.06 2.06 0 28.42 -2.06 0c0,-4.11 -0.7,-6.17 -2.05,-6.17l-2.13 2.06 0 2.05c0,1.42 2.13,2.84 6.24,4.4l0 32.61 -7.23 -1.07 -1.06 0 0 1.07 8.29 3.33 0 12.62 -3.12 0 0 2.12c2.13,0 3.12,0.64 3.12,2.06l0 50.68c-2.76,0 -4.11,2.48 -4.11,7.45l0.99 1.06 -3.12 2.06 -3.11 0c-1.35,0 -2.06,-1.78 -2.06,-5.39l-1.28 0c0,3.61 -0.99,5.39 -3.12,5.39l-5.17 0 -2.06 -2.06 0 -4.4c2.06,0 3.12,-0.7 3.12,-2.05l-1.06 -5.17 -0.99 0.99 -1.07 0 1.07 1.06 0 3.12 -2.34 2.05 -3.12 0c-3.4,-1.2 -5.18,-4.32 -5.18,-9.35l0 -1.21 3.12 -1.06 -2.05 -6.24c2.76,0 4.11,-1.77 4.11,-5.39l8.58 0 0 -4.11 6.16 0 1.28 -1.06 1.06 0c0,-2.06 -1.48,-3.12 -4.39,-3.12l-1.07 -6.45 -0.99 1.06 -1.06 0 1.06 0.99 0 2.34 -3.12 3.12 -4.39 1 0 3.12 -0.99 -1 -2.13 0 -2.06 6.38 -4.11 -2.27 0 2.27 -10.63 0 0 -4.32 1.06 -5.18c-2.05,0 -3.12,-0.7 -3.12,-2.12l0 -4.33 3.12 -1.06c1.21,4.96 4.04,7.51 8.51,7.51l0 -1.06c-3.62,-2.06 -5.39,-4.54 -5.39,-7.51l2.06 -2.06 1.06 1.06 5.39 0 0 -6.24c0,-1.55 0.99,-2.26 3.12,-2.26l0 -2.13c-4.19,0 -6.24,-2.05 -6.24,-6.17l-1.06 0.99 -1.21 0 -9.36 -2.05 -1.06 1.06 0 -2.12c2.06,0 3.12,-0.78 3.12,-2.27l0 -3.12 -2.06 0 0 2.06 -5.39 -1 -2.12 0 0 1 2.12 0 0 2.12 -4.18 1.21 0 -5.39 3.12 0 0 -4.18 -1.06 -1 0 -1.06c2.76,-1.2 4.18,-3.4 4.18,-6.45l3.33 0 3.12 3.12 -2.05 2.34 2.05 6.17 2.06 0 0 -4.12 1.06 0 2.06 2.06 -1.07 1.07 0 0.99 2.13 0 6.45 -2.06 0 -2.06c-4.04,0 -8.65,-2.48 -13.75,-7.51l0 -8.51 -2.06 0c0,1.7 -1.48,3.83 -4.39,6.46l-1 -1.07 -5.24 0 2.13 7.3c0,2.2 -2.84,5.04 -8.51,8.51l0 1.06 -4.18 0 0 -8.29 2.05 -7.51 -2.05 0 0 -4.19 2.05 0 0 3.12c5.32,0 8.16,-1.35 8.51,-4.11l0 -1.28 -0.99 0 0 2.27c-5.67,-0.64 -8.51,-3.12 -8.51,-7.44l4.11 -3.12 6.45 0 -1.06 5.18 0 2.12 1.06 0c0.14,-2.76 0.85,-4.18 2.06,-4.18l-2.06 -9.57 2.06 -2.05 0 -1.07c-2.06,0 -3.12,-0.64 -3.12,-2.06l-0.99 1.07 -1.06 0 -3.34 -3.12 0 -1.06c3.62,0 5.39,-1.42 5.39,-4.4l-0.99 -0.99 0.99 -1.06 1.06 1.06 3.12 0 5.39 -1.06 1.06 6.45 1.07 0c2.34,-2.2 4.39,-3.34 6.16,-3.34l0 -2.05 -4.11 -1.06 3.12 -9.57c-1.84,0 -3.19,-2.06 -4.18,-6.17l2.05 -3.12 5.25 2.05 1.21 -1.06 -2.27 -6.45 0 -0.99zm51.89 0l25.37 0 2.06 2.06 -2.06 2.05 0 3.33 1.07 0c2.05,0 3.12,-2.48 3.12,-7.44l17.79 0 1.06 0.99 1.28 -0.99 13.68 0c0.42,3.47 1.49,5.17 3.12,5.17l1.06 -1.06 0.99 0 -0.99 -0.99 0 -3.12 26.37 0 0 3.12 1 -1.06 1.06 1.06 2.05 0 0 -1.06 -0.99 -1.07 0 -0.99 38 0 2.26 2.06 0 50.68 -2.26 2.05 -27.44 0 0 -3.11c-1.34,0 -2.05,1.06 -2.05,3.11l-60.26 0 -3.12 -2.05 -3.12 2.05 -39.05 0 -2.27 -2.05 0 -8.3 1.06 -1.27 -1.06 -0.99 0 -32.61 2.27 0 0 -3.12 -2.27 0 0 -4.39 2.27 -2.06zm-36.94 7.44l-2.26 4.18 2.26 0 2.06 -2.05 -2.06 -2.13zm13.69 2.13c1.41,5.53 2.76,8.29 4.18,8.29l3.11 -3.12c-1.41,0 -2.05,-1.77 -2.05,-5.17l-1.06 -1.07 -1.07 0 -3.11 1.07zm30.55 4.11l3.12 2.06 1.06 -3.05 -1.06 -1.07 -1.07 0 -2.05 2.06zm-51.68 4.18l0.99 0 3.12 -3.12 -1.06 0 -3.05 3.12zm139.3 -3.12c0,2.91 -2.06,4.33 -6.24,4.33l-1 -1.21 -1.06 4.32 6.24 0 3.12 -6.44 0 -1 -1.06 0zm-51.68 3.12l-1.07 4.32 2.06 0 2.13 -2.05 -3.12 -2.27zm-79.11 2.27l0 5.18 -1.07 0 -2.26 -2.06 0.99 -1.07 -3.12 0 0 6.24 -2.06 0 0 2.06 2.06 0c0,-2.48 3.19,-3.83 9.57,-4.11 1.7,-2.77 3.4,-4.19 5.17,-4.19l0 -2.05 -9.28 0zm55.85 2.05l0 4.19 2.06 -2.06 0 -2.13 -2.06 0zm62.32 5.18l3.12 0 0 -3.05 -3.12 3.05zm-76.07 2.13l-0.99 0.99 0 1.28 0.99 1.06 1.07 0 1.06 -1.06 3.12 4.18 0 6.24 1.21 0 3.11 -1.07 0 -1.06c-1.91,-4.54 -5.1,-8.08 -9.57,-10.56zm-52.74 5.38l0 1.07 2.13 0 0.99 -3.12 -0.99 0 -2.13 2.05zm-17.01 2.06l0 2.13 1.28 0 5.17 -1.06 0 -3.13 -6.45 2.06zm32.82 0l0.99 5.25 -2.05 0 0 3.26 1.06 0 9.57 -4.33 0.99 0 0 -1.06 -5.17 -0.99 -3.33 0 0 -2.13 -2.06 0zm-25.38 1.07l0 3.11 2.13 0 0 -3.11 -2.13 0zm10.64 4.18l0 0.99 2.05 0 2.06 -2.06 -0.99 -1.06 -1.07 0 -2.05 2.13zm86.62 -1.07l0 2.06 2.06 0 2.05 -2.06 -4.11 0zm-31.83 2.06l0 2.27 2.13 0 2.27 -2.27 -4.4 0zm57.14 0l-2.06 6.45 0.99 0 3.12 -3.12 0 -3.33 -2.05 0zm-113.99 3.33l0 3.12 2.06 0 0 -3.12 -2.06 0zm64.37 1.06l0 4.12 0.99 0 1.06 -3.12 -1.06 -1 -0.99 0zm64.36 2.06l0 2.06 2.06 2.12 0 -4.18 -2.06 0zm-110.94 8.5l-6.16 0 -2.34 -2.05 -3.12 0.99 0 4.19 5.46 1.06 0.99 -1.06 10.63 3.11 0 -1.06c0,-1.34 -1.13,-2.05 -3.33,-2.05l0 -1.07 4.33 -4.11 6.23 0 1.06 -3.33 -1.06 -1.06 -2.05 0 -10.64 6.44zm-8.5 14.75l-0.99 1.07 0 0.99 3.33 3.12 0.99 -1 2.13 0c3.4,0 5.17,1.42 5.17,4.33l3.33 0 0 -1.21c-2.9,-3.05 -7.58,-5.53 -13.96,-7.3zm14.96 8.51l4.18 0 -2.06 -2.27 -2.12 2.27zm-58.13 -1.21l2.05 0 1.07 5.39 -1.07 7.23 -2.05 -2.06 0 -10.56zm46.5 1.21l0 2.12c1.42,0 2.13,1.35 2.13,4.12l2.05 0 -3.12 -5.18 0 -1.06 -1.06 0zm-35.94 2.12c1.56,0 3.61,3.48 6.24,10.56l1.06 0 1.28 -5.38c-2.27,0 -3.34,-0.71 -3.34,-2.06l5.39 -1.06 5.18 3.12 1.06 0 0 3.12 -2.13 2.26 -5.17 0c0,3.2 -1.06,5.61 -3.33,7.24l1.06 0 -1.06 1.06 0 1.06 2.34 6.45 -3.34 2.06 -3.11 -3.12 -1.07 0 -2.05 2.06c0,5.38 2.41,8.57 7.23,9.56l0 1.07 1.06 -1.07 1.28 0 2.05 2.06 0 7.3c-3.61,0 -5.39,0.78 -5.39,2.27l0 1.07c1.21,2.76 3.69,4.11 7.45,4.11 0,-4.11 0.71,-6.24 2.05,-6.24l0 1.06 3.12 -1.06 0 -1.21c0,-1.42 -0.99,-2.05 -3.12,-2.05l-0.99 -1.07 0 -3.11 2.06 -3.13c5.67,0 8.5,2.42 8.5,7.31 -1.34,0 -2.05,1.77 -2.05,5.39l-2.27 0 0 3.11c9.29,6.45 13.89,10.35 13.89,11.63 0,1.35 1.71,2.05 5.18,2.05l1.06 1.07 0 5.38 -1.06 5.18 1.06 0 5.39 -2.05 1.06 0.99 0 -2.06c0,-1.35 -1.48,-2.06 -4.39,-2.06 0,-1.56 1.84,-2.26 5.39,-2.26l0 -1.07 6.23 2.27 0 -1.2 1.06 -4.19 2.06 0 0 24.32 -0.99 7.44 0.99 9.36 0 69.75c0,2.55 -1.34,5.39 -4.11,8.58l0 2.06 0.99 -1.07 3.12 0 0 1.07 -0.99 1.06 0.99 5.17 0 13.69 -6.24 6.44 -5.17 0 -3.33 -2.05 1.06 -1.06 0 -3.33 -6.24 2.26 0 2.13 -6.45 0 0 -4.39 4.4 -2.06 0.99 0 0 -1.07 -2.06 -2.05 -1.27 0c0,1.77 -2.06,3.97 -6.17,6.45l-6.45 -1.27c0.78,-4.83 1.92,-7.24 3.33,-7.24l5.18 0c0,-2.12 1.77,-3.11 5.38,-3.11l4.19 -6.46 0 -1.06 -4.19 0 0 -6.24 4.19 0 6.16 5.25 2.34 0 0 -1.06c-3.61,0 -5.46,-2.13 -5.46,-6.46l0 -1.06c2.98,0 5.11,-1.7 6.46,-5.17l1.06 0 0 2.05 2.05 0 0 -3.05 -2.05 -8.57 -2.06 0 -3.33 6.45 2.27 2.12 -11.63 8.3 -3.33 -1.07 0 1.07c0,3.19 -2.76,5.31 -8.29,6.45 -1.56,-3.19 -3.69,-4.96 -6.45,-5.25l0 -3.33 2.05 -2.06 1.07 0 5.38 1.07 -0.99 -1.07 0 -1.06 2.06 -6.16 -5.39 0 1.21 0.99 0 2.12 -3.34 0 -2.05 -4.39 0 -1.07 -1.07 0c0,5.04 -0.63,7.52 -2.05,7.52l-2.06 0 -3.33 -1.06 0 1.06 -2.06 6.24 -1.06 -1.07 -1.06 0 -2.06 2.27c4.96,0 7.52,1.42 7.52,4.19l0.99 5.17 -8.51 1.06 1.07 1 0 7.51c4.25,0 6.45,0.71 6.45,2.05l0 6.46 -6.45 0c-1.28,0 -2.27,-2.13 -3.12,-6.46 -4.97,0 -7.52,-0.7 -7.52,-2.05l0 -7.51 2.13 0 0 -1c-2.77,0 -4.18,-0.71 -4.18,-2.12l0 -18.86 7.44 -6.45 -7.44 0 0 -1.06 2.05 -3.05 0 -3.12 -2.05 -3.33 0 -62.31c0,-1.42 1.06,-2.13 3.12,-2.13l0 -0.99c-2.06,0 -3.12,-0.71 -3.12,-2.06l0 -23.32 2.05 -2.05 1.07 0 1.06 1.06 0.99 0 0 -1.06 -5.17 -5.39 0 -41.12 2.05 0 2.13 2.06 -1.06 0 1.06 3.33 2.27 0 0 -5.39c0,-1.41 2.06,-2.05 6.24,-2.05l0 -1.06 -7.52 -2.06 0 -2.34 1.28 -0.99 0 -1.07 -1.28 -1.06c2.63,-1.2 4.47,-3.26 5.39,-6.17zm40.12 5.18l0 3.12 2.06 0 -1.07 -3.12 -0.99 0zm2.06 5.38c0,3.62 -1,5.68 -3.12,6.24l-4.11 -1.06 -7.52 1.06 0 3.12 14.75 -3.12 2.05 -2.05 0 -2.13 -2.05 -2.06zm27.43 18.93c4.4,0 7.58,3.12 9.57,9.5l-1.06 1.07 2.05 0 1.07 -1.07 1.06 1.07 1.21 0 3.11 -3.13 -5.38 -5.38 0 -2.06 1.06 0 1.21 1 1.06 0 0.99 -1 5.24 1 8.51 0 5.18 -1 0 1 1.06 -1 3.33 0 3.12 1 5.18 -1 18.07 0 8.3 2.06 2.26 -2.06 1.07 0 0.99 1 1.06 -1 42.18 0 2.06 2.06 0 0.99 -1.07 0 -5.17 -0.99 -0.99 0.99 0 1.06 8.5 2.27 1 -3.33 2.12 0 0 19.14c-5.17,-0.71 -9,-2.48 -11.62,-5.39l-6.45 0 0 -2.05 -6.24 0c0,-2.84 -1.49,-4.18 -4.4,-4.18l0 1.06c1.7,6.31 3.48,9.5 5.39,9.5 2.13,0 3.12,1.06 3.12,3.12l1.06 1.06 1.07 0c0,-2.76 1.06,-4.18 3.33,-4.18l3.12 -2.06 6.16 4.18 2.34 0 1 -1.06 1.06 0 1.06 7.3 0 13.89 -1.06 1.07 1.06 0.99 0 1.07 -1.06 7.22 -7.51 -0.99 -2.06 2.27 -2.06 0 0 -1.28 -7.51 1.28 -12.62 0 -1.06 -1.28 -1.07 1.28 -7.44 0 -1.06 -1.28 -0.99 1.28 -6.24 0 -4.4 -1.28 -4.11 1.28 -7.51 0 -2.06 -2.27 -8.29 2.27 -27.65 0c-1.41,0 -2.76,-2.13 -4.18,-6.45l-0.99 0 -2.13 3.12 -3.26 -1.06 0 1.06c0,2.2 -1.77,3.33 -5.25,3.33l-6.23 0 0 -2.27 5.24 0 0 -1.06 -1.06 -1.06 1.06 -3.12 0.99 0 1.07 1.06 1.06 0 0.99 -1.06 0 -5.18c0,-1.49 -0.99,-2.27 -3.12,-2.27l-0.99 1.07 -1.06 0 -3.12 -1.07 1.06 1.07 -1.06 1.2 0 1.06 1.06 3.13 -2.12 5.17 -2.27 0 0 -12.69 1.06 -0.99 -1.06 -1.07 0 -22.18 1.06 0c1.49,0 2.62,2.83 3.33,8.5l1 0c0,-4.32 0.7,-7.16 2.12,-8.5l0 -1.07 -6.45 -6.24 0 -3.33 1.21 -1.06 -1.21 -0.99 0 -2.06zm-75 2.06l-0.99 3.33 0.99 0.99 1.28 0 2.06 -3.33 -1.07 -0.99 -2.27 0zm108.82 2.05l0 1.28 3.11 -1.28 0 -2.05 -0.99 0 -2.12 2.05zm4.39 -1.06l0 2.34 1.06 0 3.12 -1.28 0 -2.05 -1.06 0 -3.12 0.99zm-59.19 3.33l2.05 2.13 2.13 0 0 -1.07 -1.06 -3.33 -1.07 0 -2.05 2.27zm101.37 0c2.05,0 4.53,1.42 7.44,4.19 0,-2.06 1.06,-3.13 3.12,-3.13 0,1.14 2.41,2.84 7.3,5.18l0 -2.05c-3.33,0 -6.45,-2.13 -9.36,-6.46l-6.45 0 -2.05 2.27zm-110.94 2.13l0 0.99 1.06 3.12 4.11 0 0 -2.05 -4.11 -2.06 -1.06 0zm67.48 2.06l0 3.11 2.34 0 0 -1.06 -2.34 -2.05zm-19.92 2.05c0,3.9 1.78,6.73 5.18,8.51l5.46 -7.45 0 -1.06 -1.07 0c0,1.42 -1.48,2.13 -4.39,2.13l0 2.05 -1 0 0 -2.05 -2.12 -2.13 -2.06 0zm-88.67 4.18l-1.07 1.21 0 3.12 3.12 -3.12 -0.99 -1.21 -1.06 0zm139.36 0l0 2.27 5.17 0 0 -2.27 -0.99 1.21 -1.06 0 -3.12 -1.21zm-33.88 2.27l0 1.07 1.06 3.11 1.06 0 2.27 -2.12 -4.39 -2.06zm55.07 2.06l1 4.18 2.12 0 2.06 -2.06 -2.06 -2.12 -3.12 0zm-77.26 2.12l0 2.06 2.27 0c0,1.35 1.06,2.05 3.11,2.05l0 7.52 2.06 0 1.06 -5.39c-4.04,-4.18 -6.87,-6.24 -8.5,-6.24zm78.26 4.11l0 4.4 1.06 0 0 -4.4 -1.06 0zm19.99 2.13l0.99 5.39 3.33 -3.12 -2.27 -2.27 -2.05 0zm-80.18 2.27l2.06 3.12 -5.18 2.05c0,1.14 1.35,2.13 4.19,3.12 0,-1.13 1.7,-2.12 5.17,-3.12l0.99 1.07 -0.99 -4.18 -1.06 1.06 -2.06 0 0 -3.12 -3.12 0zm44.24 2.06l0 4.18 3.33 0.99 2.05 -6.24 -5.38 1.07zm-139.37 8.5l3.12 0 0 1.06 -5.17 1.07 0 2.06 2.05 0 0 4.11 1.06 5.45 -6.23 2.06 0 -1.06 -5.39 1.06 0 1.06 0.99 1 0 1.06 10.63 -2.06 0 2.06 2.06 0 0 -7.52 5.39 0 -0.99 -4.11 0.99 -3.11 7.3 0 3.33 3.11 -1.06 1 0 2.12 2.05 2.27 0 -3.33 2.13 0 4.11 4.39 0 1 -1.06 1.06 1.06 1.06 0 1 -1.06 5.17 2.13 0 0.99 -8.29 1.27 1.06 2.06 0 0 -1.06c-1.35,0 -2.06,-1.78 -2.06,-5.39 -3.61,-0.43 -5.38,-1.42 -5.38,-3.12l4.11 -8.51 -3.12 0 0 2.27 -3.05 0 -1.06 -1.2 -1.07 0 1.07 -5.25 0 -0.99 -2.06 0 -1.06 6.24 -1.06 -1.07 -1.21 0 -1.06 3.33 -7.23 0 0 4.12 -4.4 0 0 -2.06 2.27 0 0 -0.99 -0.99 -3.33 0.99 0c1.7,0 3.05,-2.48 4.18,-7.3l-4.18 0 -5.39 8.5zm75.99 -4.32l0 0.99 1.07 0 5.38 -0.99 0 -2.13 -1.06 0 -5.39 2.13zm76.07 -1.07l0 2.06 3.26 7.52 1.06 0 0 -6.46c-1.35,0 -2.06,-1.06 -2.06,-3.12l-2.26 0zm-27.44 10.57l0 3.12 1 0 3.33 -1 0 -1.06 -4.33 -1.06zm29.7 0c0,2.12 -0.78,3.12 -2.26,3.12l0 2.12 4.32 -2.12 0 -3.12 -2.06 0zm-144.75 8.57c0,3.41 -0.71,5.18 -2.05,5.18l-3.12 -1.06c1.35,1.7 2.05,4.18 2.05,7.51l2.06 0c1.27,0 2.27,-1.84 3.12,-5.46l-1.07 -0.99 4.19 -2.06 0 2.06 1.06 0 0 -4.18 -6.24 -1zm32.82 1l0 4.18c0.92,0 1.99,-1.42 3.12,-4.18l-3.12 0zm-5.46 6.23l0 1.07 2.13 2.05 0 -3.12 -2.13 0zm-45.22 4.4l0 2.06 3.12 1.06 0.99 -1.06 0 -5.39 -0.99 0 -3.12 3.33zm37.99 6.17l0 3.12 1.07 0 3.12 -1 0 -2.12 -4.19 0zm10.35 3.12l0 1.06 1.28 7.51 3.12 0c0,-3.47 1.7,-5.24 5.17,-5.24 -0.42,-2.77 -2.48,-4.89 -6.23,-6.45l-3.34 3.12zm-44.23 3.33l0 2.13 3.12 3.11 5.46 -2.12 0 -0.99 -2.34 -2.13 -5.18 1.06 -1.06 -1.06zm26.44 2.13l0 2.05 4.11 0 3.33 -3.12 0 -1.06 -1.27 0 -6.17 2.13zm16.8 5.17l-1.06 4.32 2.05 0 0 -4.32 -0.99 0zm-45.29 5.39l-1.07 1.06 0 0.99 1.07 0 0 -0.99 1.06 0.99 2.05 0 0 -0.99 -3.11 -1.06zm4.18 2.05l0 1.07 3.11 3.11 0 -1.06 -3.11 -3.12zm30.48 0l0 2.13 6.45 0.99 0 1.06c0,2.34 -0.99,4.82 -3.12,7.45l0 1.06 2.13 0c1.34,0 2.05,-1.42 2.05,-4.32l6.45 -1.07 0 -5.17 -13.96 -2.13zm-20.91 5.25l0 0.99 4.11 0 0 -2.06 -1.07 0 -3.04 1.07zm-17.09 5.39l0 2.05 2.27 0 -0.99 1.06 0 1 0.99 3.11 -0.99 0 -3.33 1.07 0 1.06 3.33 0c2.48,-4.89 7.02,-7.3 13.68,-7.3l0 -2.05 -9.57 2.05 -2.05 -2.05 -3.34 0zm56.07 0l-0.99 0.99 0 3.12c2.06,0 3.12,1.41 3.12,4.18l3.12 0c-2.84,-3.19 -4.18,-5.6 -4.18,-7.3l2.05 0 0 -0.99 -3.12 0zm-50.68 17.86l0 4.11 5.24 -6.24 -1.06 -0.99 -4.18 3.12zm47.57 2.05c0,3.62 -1.78,5.39 -5.39,5.39l0 1.07 8.5 1.06 0 -6.45 -3.11 -1.07zm37 3.12l6.23 0 4.33 3.34c0,-2.2 0.71,-3.34 2.13,-3.34l9.28 0 0 1.28 -0.99 0.99 0 1.07 0.99 1.06 1.28 0 4.18 -4.4 35.87 0 3.12 2.27 4.18 -2.27c2.34,0.86 3.83,2.27 4.33,4.4l-1 0.99 8.3 4.18 0 -2.12c-2.62,0 -4.4,-2.48 -5.18,-7.45l17.87 0c2.9,0 7.86,2.13 14.95,6.45l2.06 -2.05 -1.06 -1.06 0 -3.34 13.75 0 2.05 2.27 0 8.29 -6.45 9.57 1.07 0 4.32 -3.11 1.06 0 0 13.75 -1.06 0.99 1.06 1.06 0 1 -2.05 3.12 2.05 3.33 0 13.75 -2.05 2.05 -42.39 0 0 -1.06 4.39 -0.99 0 -1.06 -2.34 0 0 1.06 -0.99 -1.06 -3.12 0 0 3.11 -16.87 0 -5.39 -4.18 3.33 -6.38c-6.24,-0.71 -10.13,-1.77 -11.62,-3.12l-7.45 3.12 0 3.12c2.06,0 3.06,1.07 3.06,3.26l-1 0 1 1.07 0 1.06 -2.06 2.05 -14.75 0 0 -1.06c0,-1.34 1.07,-2.05 3.12,-2.05l-3.12 -4.33 -5.17 0 0 -2.13 -6.45 0c0,3.62 -2.06,5.39 -6.24,5.39l-2.27 -2.26 0 -7.24 3.33 0 -1.06 -1.06 0 -6.45 1.06 -1.06 0 -1c-2.33,-2.05 -4.53,-3.11 -6.45,-3.11l0 -1.07 1.06 -0.99 -1.06 -1.06 0 -1.07 2.06 -3.33c-0.35,-1.77 -2.13,-3.47 -5.18,-5.17l-4.32 2.05 1.21 5.25c0,2.34 -1.07,4.82 -3.34,7.44l0 2.06c0,1.7 1.85,2.76 5.39,3.12l0 2.34 -3.26 0c0,2.05 1.42,3.11 4.32,3.11l0 10.57 4.18 0 0 1.06 -2.12 2.05 -13.68 0c0,-2.05 -1.35,-3.11 -4.18,-3.11l-1.21 -1.07 0 -6.38 2.27 -3.12 0 -4.18 -3.33 0 0 -8.5 6.45 -5.39c0,-2.13 1.42,-3.12 4.18,-3.12l0 -2.13 -4.18 0 2.05 -10.56c1.42,0 2.13,1.06 2.13,3.12 2.91,0 4.33,-1.42 4.33,-4.18l1.06 -1 -1.06 -1.06 -1.21 0 0 -3.12 2.27 -2.27zm-82.44 4.4l2.05 2.05 3.12 -1.06 0 -0.99 -5.17 0zm117.1 2.05l0 2.06 2.27 0 0 -4.11 -2.27 2.05zm12.69 -2.05l0 0.99 3.33 1.06 0 -1.06 -1.06 -0.99 -2.27 0zm-132.91 3.05l0 1.06 2.05 2.05 1.07 0 0 -2.05 -1.07 -1.06 -2.05 0zm155.1 0l0 5.46 2.13 -2.35 -1.07 -3.11 -1.06 0zm-16.8 3.11l2.05 2.35 2.13 -2.35 -4.18 0zm-68.76 1.07l2.27 0 2.12 2.27 0 4.18 -4.39 0 0 -6.45zm-66.42 2.27l0 1.06 2.05 2.06 2.06 -2.06 -4.11 -1.06zm148.86 1.06l-0.99 1.06 0 3.05 0.99 0c0,-2.05 0.71,-3.05 2.13,-3.05l0 -1.06 -2.13 0zm34.95 2.06l0 2.05 0.99 5.25 1.06 0 1 -6.24 -1 -1.06 -2.05 0zm-29.7 5.17l0 2.13 4.32 -1.07 0 -4.18 -3.12 3.12 -1.2 0zm-23.11 -0.99l0 6.45 1.06 0.99 0 1.07 -3.33 0c0,1.13 2.12,2.48 6.45,4.11l0 -1 -1.07 -1.06 0 -0.99 1.07 -1.06 -3.12 -1.07c0.28,-3.61 1.35,-5.39 3.12,-5.39l-2.06 -2.05 -2.12 0zm67.48 0l-2.06 2.05c0.71,5.39 1.78,8.94 3.13,10.57l-4.12 6.45 2.06 0c0,-1.35 1.06,-2.06 3.12,-2.06l0 -3.33 -1.06 -5.17 4.18 -1.07 1.2 1.07 1.06 -1.07 -1.06 -4.32 -5.38 1.2 -1.07 -1.2 1.07 -1.07 0 -2.05 -1.07 0zm-97.18 2.05l0 1.07 6.44 5.39 2.13 -2.06 4.11 0 9.57 8.29 1.06 -1.06 0 -1.06c-2.83,0 -4.18,-1.71 -4.18,-5.18l1.07 -5.39 -3.12 4.4 -2.34 0 -7.23 -3.33 -4.4 1.2 -3.11 -2.27zm50.68 0l0 1.07 1.06 3.33 1.07 0 0 -1.06 -1.07 -3.34 -1.06 0zm-157.23 4.4c0,2.06 -1.06,3.12 -3.26,3.12l2.27 2.05 -1.28 1 0 2.12 5.39 0 0 -1.06c-1.35,-1.49 -2.05,-3.9 -2.05,-7.23l-1.07 0zm150.99 0l0 15.74c2.41,3.33 5.18,5.39 8.37,6.24l0 -1 -4.19 -7.3 2.06 -4.39 -4.11 -4.12 0 -5.17 -2.13 0zm17.87 0.99l0 2.13 1.06 0.99 2.05 0 0 -0.99 -2.05 -2.13 -1.06 0zm9.56 1.07l1.07 1.06 0.99 0.99c1.42,0 2.13,1.42 2.13,4.18l3.33 1 0.99 -1 0 -2.12 -6.45 -4.11 -2.06 0zm-14.74 2.05l0 3.12 -1.06 5.39 1.06 0 2.05 -2.06 0 -6.45 -2.05 0zm-144.75 1.06l0 5.39 -2.06 2.06 -2.05 -6.45 0.99 -1 3.12 0zm31.76 10.57l0 1.06 1.06 0c4.18,-0.71 6.23,-1.7 6.23,-3.12l0 -1.06 -4.18 0 -3.11 3.12zm84.35 2.12c3.9,0 6.73,2.13 8.51,6.38l1.06 0 0 2.13 -5.25 2.05 -2.05 0c0,-2.9 -1.49,-5.74 -4.39,-8.5l2.12 -2.06zm-29.49 5.39l3.12 0 4.32 4.11 0 1.06 -9.49 0 -2.13 -2.05 4.18 -3.12zm-110.94 0.99l1.07 1.07 0 1.06 -2.06 2.05 -1.06 -1.06 0 -0.99 2.05 -2.13z"/>
    <path class="fil0" d="M1110.69 200.02l0 3.12 1 0c0,-1.7 1.49,-2.69 4.39,-3.12l2.06 3.12 0 2.05c-2.06,0 -3.12,1.14 -3.12,3.33l-4.33 2.06 -4.18 -0.99c-1.35,3.19 -2.76,4.89 -4.18,5.17l-0.99 -1.06 -1.28 0 -3.12 4.18 6.45 1.21 0 7.3c-2.9,0 -4.32,1.06 -4.32,3.12l-4.19 0 0 -11.63 1.07 -9.36 -1.07 -7.51 1.07 -0.99 14.74 0zm13.69 0l35.94 0 2.05 2.06 0 28.42 -2.05 0c0,-4.11 -0.71,-6.17 -2.06,-6.17l-2.13 2.06 0 2.05c0,1.42 2.13,2.84 6.24,4.4l0 32.61 -7.23 -1.07 -1.06 0 0 1.07 8.29 3.33 0 12.62 -3.12 0 0 2.12c2.13,0 3.12,0.64 3.12,2.06l0 50.68c-2.76,0 -4.11,2.48 -4.11,7.45l0.99 1.06 -3.12 2.06 -3.12 0c-1.34,0 -2.05,-1.78 -2.05,-5.39l-1.28 0c0,3.61 -0.99,5.39 -3.12,5.39l-5.17 0 -2.06 -2.06 0 -4.4c2.06,0 3.12,-0.7 3.12,-2.05l-1.06 -5.17 -1 0.99 -1.06 0 1.06 1.06 0 3.12 -2.33 2.05 -3.12 0c-3.41,-1.2 -5.18,-4.32 -5.18,-9.35l0 -1.21 3.12 -1.06 -2.06 -6.24c2.77,0 4.12,-1.77 4.12,-5.39l8.57 0 0 -4.11 6.17 0 1.28 -1.06 1.06 0c0,-2.06 -1.49,-3.12 -4.39,-3.12l-1.07 -6.45 -0.99 1.06 -1.06 0 1.06 0.99 0 2.34 -3.12 3.12 -4.39 1 0 3.12 -1 -1 -2.12 0 -2.06 6.38 -4.11 -2.27 0 2.27 -10.63 0 0 -4.32 1.06 -5.18c-2.06,0 -3.12,-0.7 -3.12,-2.12l0 -4.33 3.12 -1.06c1.2,4.96 4.04,7.51 8.51,7.51l0 -1.06c-3.62,-2.06 -5.39,-4.54 -5.39,-7.51l2.06 -2.06 1.06 1.06 5.38 0 0 -6.24c0,-1.55 1,-2.26 3.12,-2.26l0 -2.13c-4.18,0 -6.23,-2.05 -6.23,-6.17l-1.07 0.99 -1.2 0 -9.36 -2.05 -1.06 1.06 0 -2.12c2.05,0 3.12,-0.78 3.12,-2.27l0 -3.12 -2.06 0 0 2.06 -5.39 -1 -2.12 0 0 1 2.12 0 0 2.12 -4.18 1.21 0 -5.39 3.12 0 0 -4.18 -1.06 -1 0 -1.06c2.76,-1.2 4.18,-3.4 4.18,-6.45l3.33 0 3.12 3.12 -2.06 2.34 2.06 6.17 2.05 0 0 -4.12 1.07 0 2.06 2.06 -1.07 1.07 0 0.99 2.13 0 6.45 -2.06 0 -2.06c-4.04,0 -8.65,-2.48 -13.75,-7.51l0 -8.51 -2.06 0c0,1.7 -1.49,3.83 -4.39,6.46l-1 -1.07 -5.24 0 2.12 7.3c0,2.2 -2.83,5.04 -8.5,8.51l0 1.06 -4.19 0 0 -8.29 2.06 -7.51 -2.06 0 0 -4.19 2.06 0 0 3.12c5.32,0 8.15,-1.35 8.51,-4.11l0 -1.28 -0.99 0 0 2.27c-5.67,-0.64 -8.51,-3.12 -8.51,-7.44l4.11 -3.12 6.45 0 -1.06 5.18 0 2.12 1.06 0c0.14,-2.76 0.85,-4.18 2.06,-4.18l-2.06 -9.57 2.06 -2.05 0 -1.07c-2.06,0 -3.12,-0.64 -3.12,-2.06l-0.99 1.07 -1.07 0 -3.33 -3.12 0 -1.06c3.62,0 5.39,-1.42 5.39,-4.4l-0.99 -0.99 0.99 -1.06 1.06 1.06 3.12 0 5.39 -1.06 1.06 6.45 1.06 0c2.34,-2.2 4.4,-3.34 6.17,-3.34l0 -2.05 -4.11 -1.06 3.12 -9.57c-1.85,0 -3.19,-2.06 -4.18,-6.17l2.05 -3.12 5.25 2.05 1.2 -1.06 -2.26 -6.45 0 -0.99zm51.88 0l25.38 0 2.06 2.06 -2.06 2.05 0 3.33 1.06 0c2.06,0 3.12,-2.48 3.12,-7.44l17.8 0 1.06 0.99 1.28 -0.99 13.68 0c0.42,3.47 1.48,5.17 3.11,5.17l1.07 -1.06 0.99 0 -0.99 -0.99 0 -3.12 26.37 0 0 3.12 0.99 -1.06 1.07 1.06 2.05 0 0 -1.06 -0.99 -1.07 0 -0.99 37.99 0 2.27 2.06 0 50.68 -2.27 2.05 -27.43 0 0 -3.11c-1.35,0 -2.05,1.06 -2.05,3.11l-60.26 0 -3.12 -2.05 -3.12 2.05 -39.06 0 -2.26 -2.05 0 -8.3 1.06 -1.27 -1.06 -0.99 0 -32.61 2.26 0 0 -3.12 -2.26 0 0 -4.39 2.26 -2.06zm-36.93 7.44l-2.27 4.18 2.27 0 2.06 -2.05 -2.06 -2.13zm13.68 2.13c1.42,5.53 2.77,8.29 4.18,8.29l3.13 -3.12c-1.42,0 -2.06,-1.77 -2.06,-5.17l-1.07 -1.07 -1.06 0 -3.12 1.07zm30.56 4.11l3.11 2.06 1.07 -3.05 -1.07 -1.07 -1.06 0 -2.05 2.06zm-51.68 4.18l0.99 0 3.12 -3.12 -1.06 0 -3.05 3.12zm139.29 -3.12c0,2.91 -2.05,4.33 -6.24,4.33l-0.99 -1.21 -1.06 4.32 6.24 0 3.12 -6.44 0 -1 -1.07 0zm-51.67 3.12l-1.07 4.32 2.06 0 2.12 -2.05 -3.11 -2.27zm-79.12 2.27l0 5.18 -1.06 0 -2.27 -2.06 1 -1.07 -3.12 0 0 6.24 -2.06 0 0 2.06 2.06 0c0,-2.48 3.19,-3.83 9.57,-4.11 1.7,-2.77 3.4,-4.19 5.17,-4.19l0 -2.05 -9.29 0zm55.87 2.05l0 4.19 2.05 -2.06 0 -2.13 -2.05 0zm62.3 5.18l3.12 0 0 -3.05 -3.12 3.05zm-76.06 2.13l-0.99 0.99 0 1.28 0.99 1.06 1.07 0 1.06 -1.06 3.12 4.18 0 6.24 1.2 0 3.12 -1.07 0 -1.06c-1.91,-4.54 -5.1,-8.08 -9.57,-10.56zm-52.74 5.38l0 1.07 2.13 0 0.99 -3.12 -0.99 0 -2.13 2.05zm-17.01 2.06l0 2.13 1.28 0 5.17 -1.06 0 -3.13 -6.45 2.06zm32.82 0l0.99 5.25 -2.05 0 0 3.26 1.06 0 9.57 -4.33 0.99 0 0 -1.06 -5.17 -0.99 -3.33 0 0 -2.13 -2.06 0zm-25.38 1.07l0 3.11 2.13 0 0 -3.11 -2.13 0zm10.63 4.18l0 0.99 2.06 0 2.06 -2.06 -1 -1.06 -1.06 0 -2.06 2.13zm86.63 -1.07l0 2.06 2.06 0 2.05 -2.06 -4.11 0zm-31.83 2.06l0 2.27 2.13 0 2.27 -2.27 -4.4 0zm57.13 0l-2.05 6.45 0.99 0 3.12 -3.12 0 -3.33 -2.06 0zm-113.98 3.33l0 3.12 2.05 0 0 -3.12 -2.05 0zm64.36 1.06l0 4.12 1 0 1.06 -3.12 -1.06 -1 -1 0zm64.37 2.06l0 2.06 2.06 2.12 0 -4.18 -2.06 0zm-110.94 8.5l-6.17 0 -2.33 -2.05 -3.12 0.99 0 4.19 5.45 1.06 1 -1.06 10.63 3.11 0 -1.06c0,-1.34 -1.13,-2.05 -3.33,-2.05l0 -1.07 4.32 -4.11 6.24 0 1.07 -3.33 -1.07 -1.06 -2.06 0 -10.63 6.44zm-8.5 14.75l-1 1.07 0 0.99 3.33 3.12 1 -1 2.12 0c3.41,0 5.18,1.42 5.18,4.33l3.33 0 0 -1.21c-2.9,-3.05 -7.59,-5.53 -13.96,-7.3zm14.95 8.51l4.18 0 -2.05 -2.27 -2.13 2.27zm-58.13 -1.21l2.06 0 1.07 5.39 -1.07 7.23 -2.06 -2.06 0 -10.56zm46.51 1.21l0 2.12c1.41,0 2.12,1.35 2.12,4.12l2.06 0 -3.12 -5.18 0 -1.06 -1.06 0zm-35.94 2.12c1.56,0 3.61,3.48 6.24,10.56l1.06 0 1.28 -5.38c-2.27,0 -3.34,-0.71 -3.34,-2.06l5.39 -1.06 5.17 3.12 1.07 0 0 3.12 -2.13 2.26 -5.17 0c0,3.2 -1.07,5.61 -3.33,7.24l1.06 0 -1.06 1.06 0 1.06 2.34 6.45 -3.34 2.06 -3.12 -3.12 -1.06 0 -2.05 2.06c0,5.38 2.4,8.57 7.23,9.56l0 1.07 1.06 -1.07 1.28 0 2.05 2.06 0 7.3c-3.61,0 -5.39,0.78 -5.39,2.27l0 1.07c1.21,2.76 3.69,4.11 7.45,4.11 0,-4.11 0.7,-6.24 2.05,-6.24l0 1.06 3.12 -1.06 0 -1.21c0,-1.42 -0.99,-2.05 -3.12,-2.05l-0.99 -1.07 0 -3.11 2.05 -3.13c5.68,0 8.51,2.42 8.51,7.31 -1.34,0 -2.05,1.77 -2.05,5.39l-2.27 0 0 3.11c9.29,6.45 13.89,10.35 13.89,11.63 0,1.35 1.7,2.05 5.18,2.05l1.06 1.07 0 5.38 -1.06 5.18 1.06 0 5.39 -2.05 1.06 0.99 0 -2.06c0,-1.35 -1.49,-2.06 -4.39,-2.06 0,-1.56 1.84,-2.26 5.38,-2.26l0 -1.07 6.24 2.27 0 -1.2 1.07 -4.19 2.05 0 0 24.32 -0.99 7.44 0.99 9.36 0 69.75c0,2.55 -1.35,5.39 -4.11,8.58l0 2.06 0.99 -1.07 3.12 0 0 1.07 -0.99 1.06 0.99 5.17 0 13.69 -6.24 6.44 -5.17 0 -3.33 -2.05 1.06 -1.06 0 -3.33 -6.24 2.26 0 2.13 -6.45 0 0 -4.39 4.39 -2.06 1 0 0 -1.07 -2.06 -2.05 -1.27 0c0,1.77 -2.06,3.97 -6.17,6.45l-6.45 -1.27c0.78,-4.83 1.91,-7.24 3.33,-7.24l5.17 0c0,-2.12 1.78,-3.11 5.39,-3.11l4.18 -6.46 0 -1.06 -4.18 0 0 -6.24 4.18 0 6.17 5.25 2.34 0 0 -1.06c-3.61,0 -5.46,-2.13 -5.46,-6.46l0 -1.06c2.98,0 5.11,-1.7 6.45,-5.17l1.07 0 0 2.05 2.05 0 0 -3.05 -2.05 -8.57 -2.06 0 -3.33 6.45 2.27 2.12 -11.63 8.3 -3.33 -1.07 0 1.07c0,3.19 -2.77,5.31 -8.29,6.45 -1.56,-3.19 -3.69,-4.96 -6.46,-5.25l0 -3.33 2.06 -2.06 1.07 0 5.38 1.07 -0.99 -1.07 0 -1.06 2.05 -6.16 -5.38 0 1.2 0.99 0 2.12 -3.33 0 -2.06 -4.39 0 -1.07 -1.06 0c0,5.04 -0.64,7.52 -2.05,7.52l-2.06 0 -3.33 -1.06 0 1.06 -2.06 6.24 -1.06 -1.07 -1.06 0 -2.06 2.27c4.96,0 7.52,1.42 7.52,4.19l0.99 5.17 -8.51 1.06 1.06 1 0 7.51c4.26,0 6.46,0.71 6.46,2.05l0 6.46 -6.46 0c-1.27,0 -2.26,-2.13 -3.11,-6.46 -4.97,0 -7.52,-0.7 -7.52,-2.05l0 -7.51 2.13 0 0 -1c-2.77,0 -4.19,-0.71 -4.19,-2.12l0 -18.86 7.45 -6.45 -7.45 0 0 -1.06 2.06 -3.05 0 -3.12 -2.06 -3.33 0 -62.31c0,-1.42 1.07,-2.13 3.13,-2.13l0 -0.99c-2.06,0 -3.13,-0.71 -3.13,-2.06l0 -23.32 2.06 -2.05 1.07 0 1.06 1.06 0.99 0 0 -1.06 -5.18 -5.39 0 -41.12 2.06 0 2.13 2.06 -1.06 0 1.06 3.33 2.27 0 0 -5.39c0,-1.41 2.05,-2.05 6.23,-2.05l0 -1.06 -7.51 -2.06 0 -2.34 1.28 -0.99 0 -1.07 -1.28 -1.06c2.62,-1.2 4.47,-3.26 5.39,-6.17zm40.12 5.18l0 3.12 2.06 0 -1.07 -3.12 -0.99 0zm2.06 5.38c0,3.62 -1,5.68 -3.12,6.24l-4.12 -1.06 -7.51 1.06 0 3.12 14.75 -3.12 2.05 -2.05 0 -2.13 -2.05 -2.06zm27.43 18.93c4.39,0 7.59,3.12 9.57,9.5l-1.06 1.07 2.05 0 1.06 -1.07 1.07 1.07 1.2 0 3.12 -3.13 -5.39 -5.38 0 -2.06 1.07 0 1.2 1 1.07 0 0.99 -1 5.25 1 8.5 0 5.18 -1 0 1 1.06 -1 3.33 0 3.12 1 5.17 -1 18.08 0 8.29 2.06 2.27 -2.06 1.06 0 1 1 1.06 -1 42.18 0 2.05 2.06 0 0.99 -1.06 0 -5.17 -0.99 -0.99 0.99 0 1.06 8.5 2.27 0.99 -3.33 2.13 0 0 19.14c-5.17,-0.71 -9,-2.48 -11.62,-5.39l-6.46 0 0 -2.05 -6.24 0c0,-2.84 -1.48,-4.18 -4.39,-4.18l0 1.06c1.7,6.31 3.47,9.5 5.39,9.5 2.13,0 3.12,1.06 3.12,3.12l1.06 1.06 1.06 0c0,-2.76 1.07,-4.18 3.33,-4.18l3.13 -2.06 6.16 4.18 2.34 0 0.99 -1.06 1.07 0 1.06 7.3 0 13.89 -1.06 1.07 1.06 0.99 0 1.07 -1.06 7.22 -7.52 -0.99 -2.05 2.27 -2.06 0 0 -1.28 -7.51 1.28 -12.62 0 -1.06 -1.28 -1.07 1.28 -7.44 0 -1.06 -1.28 -1 1.28 -6.24 0 -4.39 -1.28 -4.11 1.28 -7.51 0 -2.06 -2.27 -8.29 2.27 -27.65 0c-1.42,0 -2.76,-2.13 -4.18,-6.45l-1 0 -2.12 3.12 -3.26 -1.06 0 1.06c0,2.2 -1.77,3.33 -5.25,3.33l-6.24 0 0 -2.27 5.25 0 0 -1.06 -1.06 -1.06 1.06 -3.12 0.99 0 1.07 1.06 1.06 0 0.99 -1.06 0 -5.18c0,-1.49 -0.99,-2.27 -3.12,-2.27l-0.99 1.07 -1.06 0 -3.12 -1.07 1.06 1.07 -1.06 1.2 0 1.06 1.06 3.13 -2.13 5.17 -2.26 0 0 -12.69 1.06 -0.99 -1.06 -1.07 0 -22.18 1.06 0c1.49,0 2.62,2.83 3.33,8.5l0.99 0c0,-4.32 0.71,-7.16 2.13,-8.5l0 -1.07 -6.45 -6.24 0 -3.33 1.2 -1.06 -1.2 -0.99 0 -2.06zm-75 2.06l-0.99 3.33 0.99 0.99 1.28 0 2.05 -3.33 -1.06 -0.99 -2.27 0zm108.81 2.05l0 1.28 3.12 -1.28 0 -2.05 -0.99 0 -2.13 2.05zm4.4 -1.06l0 2.34 1.06 0 3.12 -1.28 0 -2.05 -1.07 0 -3.11 0.99zm-59.19 3.33l2.05 2.13 2.13 0 0 -1.07 -1.07 -3.33 -1.06 0 -2.05 2.27zm101.37 0c2.05,0 4.53,1.42 7.44,4.19 0,-2.06 1.06,-3.13 3.12,-3.13 0,1.14 2.41,2.84 7.3,5.18l0 -2.05c-3.33,0 -6.45,-2.13 -9.36,-6.46l-6.45 0 -2.05 2.27zm-110.94 2.13l0 0.99 1.06 3.12 4.11 0 0 -2.05 -4.11 -2.06 -1.06 0zm67.48 2.06l0 3.11 2.34 0 0 -1.06 -2.34 -2.05zm-19.92 2.05c0,3.9 1.77,6.73 5.18,8.51l5.45 -7.45 0 -1.06 -1.06 0c0,1.42 -1.49,2.13 -4.39,2.13l0 2.05 -0.99 0 0 -2.05 -2.13 -2.13 -2.06 0zm-88.68 4.18l-1.06 1.21 0 3.12 3.12 -3.12 -0.99 -1.21 -1.07 0zm139.36 0l0 2.27 5.18 0 0 -2.27 -0.99 1.21 -1.06 0 -3.13 -1.21zm-33.88 2.27l0 1.07 1.07 3.11 1.06 0 2.27 -2.12 -4.4 -2.06zm55.08 2.06l0.99 4.18 2.13 0 2.06 -2.06 -2.06 -2.12 -3.12 0zm-77.27 2.12l0 2.06 2.27 0c0,1.35 1.07,2.05 3.12,2.05l0 7.52 2.06 0 1.06 -5.39c-4.04,-4.18 -6.88,-6.24 -8.51,-6.24zm78.26 4.11l0 4.4 1.07 0 0 -4.4 -1.07 0zm19.99 2.13l1 5.39 3.33 -3.12 -2.27 -2.27 -2.06 0zm-80.17 2.27l2.05 3.12 -5.17 2.05c0,1.14 1.35,2.13 4.18,3.12 0,-1.13 1.71,-2.12 5.18,-3.12l0.99 1.07 -0.99 -4.18 -1.06 1.06 -2.06 0 0 -3.12 -3.12 0zm44.23 2.06l0 4.18 3.33 0.99 2.06 -6.24 -5.39 1.07zm-139.36 8.5l3.12 0 0 1.06 -5.18 1.07 0 2.06 2.06 0 0 4.11 1.06 5.45 -6.23 2.06 0 -1.06 -5.39 1.06 0 1.06 0.99 1 0 1.06 10.63 -2.06 0 2.06 2.06 0 0 -7.52 5.39 0 -1 -4.11 1 -3.11 7.3 0 3.33 3.11 -1.06 1 0 2.12 2.05 2.27 0 -3.33 2.13 0 4.11 4.39 0 1 -1.06 1.06 1.06 1.06 0 1 -1.06 5.17 2.12 0 1 -8.29 1.27 1.06 2.06 0 0 -1.06c-1.35,0 -2.06,-1.78 -2.06,-5.39 -3.61,-0.43 -5.39,-1.42 -5.39,-3.12l4.12 -8.51 -3.12 0 0 2.27 -3.05 0 -1.07 -1.2 -1.06 0 1.06 -5.25 0 -0.99 -2.05 0 -1.06 6.24 -1.07 -1.07 -1.2 0 -1.06 3.33 -7.24 0 0 4.12 -4.39 0 0 -2.06 2.27 0 0 -0.99 -0.99 -3.33 0.99 0c1.7,0 3.04,-2.48 4.18,-7.3l-4.18 0 -5.39 8.5zm75.99 -4.32l0 0.99 1.06 0 5.39 -0.99 0 -2.13 -1.06 0 -5.39 2.13zm76.06 -1.07l0 2.06 3.26 7.52 1.07 0 0 -6.46c-1.35,0 -2.06,-1.06 -2.06,-3.12l-2.27 0zm-27.43 10.57l0 3.12 0.99 0 3.33 -1 0 -1.06 -4.32 -1.06zm29.7 0c0,2.12 -0.78,3.12 -2.27,3.12l0 2.12 4.33 -2.12 0 -3.12 -2.06 0zm-144.75 8.57c0,3.41 -0.71,5.18 -2.06,5.18l-3.11 -1.06c1.34,1.7 2.05,4.18 2.05,7.51l2.06 0c1.27,0 2.26,-1.84 3.11,-5.46l-1.06 -0.99 4.19 -2.06 0 2.06 1.06 0 0 -4.18 -6.24 -1zm32.82 1l0 4.18c0.92,0 1.98,-1.42 3.12,-4.18l-3.12 0zm-5.46 6.23l0 1.07 2.13 2.05 0 -3.12 -2.13 0zm-45.22 4.4l0 2.06 3.12 1.06 0.99 -1.06 0 -5.39 -0.99 0 -3.12 3.33zm37.99 6.17l0 3.12 1.06 0 3.12 -1 0 -2.12 -4.18 0zm10.35 3.12l0 1.06 1.28 7.51 3.12 0c0,-3.47 1.7,-5.24 5.17,-5.24 -0.42,-2.77 -2.48,-4.89 -6.24,-6.45l-3.33 3.12zm-44.23 3.33l0 2.13 3.12 3.11 5.46 -2.12 0 -0.99 -2.34 -2.13 -5.18 1.06 -1.06 -1.06zm26.44 2.13l0 2.05 4.11 0 3.33 -3.12 0 -1.06 -1.27 0 -6.17 2.13zm16.8 5.17l-1.06 4.32 2.05 0 0 -4.32 -0.99 0zm-45.3 5.39l-1.06 1.06 0 0.99 1.06 0 0 -0.99 1.07 0.99 2.05 0 0 -0.99 -3.12 -1.06zm4.18 2.05l0 1.07 3.12 3.11 0 -1.06 -3.12 -3.12zm30.49 0l0 2.13 6.45 0.99 0 1.06c0,2.34 -1,4.82 -3.12,7.45l0 1.06 2.12 0c1.35,0 2.06,-1.42 2.06,-4.32l6.45 -1.07 0 -5.17 -13.96 -2.13zm-20.92 5.25l0 0.99 4.11 0 0 -2.06 -1.06 0 -3.05 1.07zm-17.08 5.39l0 2.05 2.27 0 -0.99 1.06 0 1 0.99 3.11 -0.99 0 -3.33 1.07 0 1.06 3.33 0c2.48,-4.89 7.01,-7.3 13.68,-7.3l0 -2.05 -9.57 2.05 -2.06 -2.05 -3.33 0zm56.07 0l-0.99 0.99 0 3.12c2.05,0 3.12,1.41 3.12,4.18l3.12 0c-2.84,-3.19 -4.19,-5.6 -4.19,-7.3l2.06 0 0 -0.99 -3.12 0zm-50.68 17.86l0 4.11 5.24 -6.24 -1.06 -0.99 -4.18 3.12zm47.56 2.05c0,3.62 -1.77,5.39 -5.38,5.39l0 1.07 8.5 1.06 0 -6.45 -3.12 -1.07zm37.01 3.12l6.24 0 4.32 3.34c0,-2.2 0.71,-3.34 2.12,-3.34l9.29 0 0 1.28 -0.99 0.99 0 1.07 0.99 1.06 1.28 0 4.18 -4.4 35.87 0 3.12 2.27 4.18 -2.27c2.34,0.86 3.83,2.27 4.32,4.4l-0.99 0.99 8.3 4.18 0 -2.12c-2.63,0 -4.4,-2.48 -5.18,-7.45l17.86 0c2.91,0 7.87,2.13 14.96,6.45l2.06 -2.05 -1.07 -1.06 0 -3.34 13.75 0 2.06 2.27 0 8.29 -6.45 9.57 1.06 0 4.33 -3.11 1.06 0 0 13.75 -1.06 0.99 1.06 1.06 0 1 -2.06 3.12 2.06 3.33 0 13.75 -2.06 2.05 -42.38 0 0 -1.06 4.39 -0.99 0 -1.06 -2.34 0 0 1.06 -0.99 -1.06 -3.12 0 0 3.11 -16.87 0 -5.39 -4.18 3.33 -6.38c-6.23,-0.71 -10.14,-1.77 -11.62,-3.12l-7.44 3.12 0 3.12c2.05,0 3.04,1.07 3.04,3.26l-0.99 0 0.99 1.07 0 1.06 -2.05 2.05 -14.75 0 0 -1.06c0,-1.34 1.07,-2.05 3.12,-2.05l-3.12 -4.33 -5.17 0 0 -2.13 -6.46 0c0,3.62 -2.05,5.39 -6.23,5.39l-2.27 -2.26 0 -7.24 3.33 0 -1.06 -1.06 0 -6.45 1.06 -1.06 0 -1c-2.34,-2.05 -4.53,-3.11 -6.45,-3.11l0 -1.07 1.07 -0.99 -1.07 -1.06 0 -1.07 2.06 -3.33c-0.36,-1.77 -2.13,-3.47 -5.18,-5.17l-4.32 2.05 1.2 5.25c0,2.34 -1.06,4.82 -3.33,7.44l0 2.06c0,1.7 1.84,2.76 5.39,3.12l0 2.34 -3.26 0c0,2.05 1.42,3.11 4.32,3.11l0 10.57 4.19 0 0 1.06 -2.13 2.05 -13.68 0c0,-2.05 -1.35,-3.11 -4.19,-3.11l-1.2 -1.07 0 -6.38 2.27 -3.12 0 -4.18 -3.33 0 0 -8.5 6.45 -5.39c0,-2.13 1.41,-3.12 4.18,-3.12l0 -2.13 -4.18 0 2.05 -10.56c1.42,0 2.13,1.06 2.13,3.12 2.91,0 4.32,-1.42 4.32,-4.18l1.07 -1 -1.07 -1.06 -1.2 0 0 -3.12 2.27 -2.27zm-82.45 4.4l2.06 2.05 3.12 -1.06 0 -0.99 -5.18 0zm117.11 2.05l0 2.06 2.27 0 0 -4.11 -2.27 2.05zm12.69 -2.05l0 0.99 3.33 1.06 0 -1.06 -1.06 -0.99 -2.27 0zm-132.91 3.05l0 1.06 2.05 2.05 1.06 0 0 -2.05 -1.06 -1.06 -2.05 0zm155.1 0l0 5.46 2.12 -2.35 -1.06 -3.11 -1.06 0zm-16.81 3.11l2.06 2.35 2.13 -2.35 -4.19 0zm-68.75 1.07l2.26 0 2.13 2.27 0 4.18 -4.39 0 0 -6.45zm-66.43 2.27l0 1.06 2.06 2.06 2.06 -2.06 -4.12 -1.06zm148.87 1.06l-0.99 1.06 0 3.05 0.99 0c0,-2.05 0.71,-3.05 2.12,-3.05l0 -1.06 -2.12 0zm34.95 2.06l0 2.05 0.99 5.25 1.06 0 0.99 -6.24 -0.99 -1.06 -2.05 0zm-29.71 5.17l0 2.13 4.33 -1.07 0 -4.18 -3.12 3.12 -1.21 0zm-23.11 -0.99l0 6.45 1.07 0.99 0 1.07 -3.33 0c0,1.13 2.12,2.48 6.44,4.11l0 -1 -1.06 -1.06 0 -0.99 1.06 -1.06 -3.11 -1.07c0.28,-3.61 1.34,-5.39 3.11,-5.39l-2.05 -2.05 -2.13 0zm67.49 0l-2.06 2.05c0.71,5.39 1.78,8.94 3.12,10.57l-4.11 6.45 2.06 0c0,-1.35 1.06,-2.06 3.12,-2.06l0 -3.33 -1.07 -5.17 4.18 -1.07 1.21 1.07 1.06 -1.07 -1.06 -4.32 -5.39 1.2 -1.06 -1.2 1.06 -1.07 0 -2.05 -1.06 0zm-97.19 2.05l0 1.07 6.45 5.39 2.13 -2.06 4.11 0 9.57 8.29 1.07 -1.06 0 -1.06c-2.84,0 -4.19,-1.71 -4.19,-5.18l1.06 -5.39 -3.11 4.4 -2.34 0 -7.24 -3.33 -4.39 1.2 -3.12 -2.27zm50.69 0l0 1.07 1.06 3.33 1.06 0 0 -1.06 -1.06 -3.34 -1.06 0zm-157.23 4.4c0,2.06 -1.06,3.12 -3.26,3.12l2.27 2.05 -1.28 1 0 2.12 5.39 0 0 -1.06c-1.35,-1.49 -2.06,-3.9 -2.06,-7.23l-1.06 0zm150.99 0l0 15.74c2.41,3.33 5.17,5.39 8.36,6.24l0 -1 -4.18 -7.3 2.06 -4.39 -4.11 -4.12 0 -5.17 -2.13 0zm17.86 0.99l0 2.13 1.07 0.99 2.05 0 0 -0.99 -2.05 -2.13 -1.07 0zm9.57 1.07l1.07 1.06 0.99 0.99c1.42,0 2.12,1.42 2.12,4.18l3.33 1 1 -1 0 -2.12 -6.45 -4.11 -2.06 0zm-14.74 2.05l0 3.12 -1.07 5.39 1.07 0 2.05 -2.06 0 -6.45 -2.05 0zm-144.76 1.06l0 5.39 -2.05 2.06 -2.06 -6.45 1 -1 3.11 0zm31.76 10.57l0 1.06 1.07 0c4.18,-0.71 6.24,-1.7 6.24,-3.12l0 -1.06 -4.19 0 -3.12 3.12zm84.36 2.12c3.9,0 6.73,2.13 8.51,6.38l1.06 0 0 2.13 -5.25 2.05 -2.05 0c0,-2.9 -1.49,-5.74 -4.4,-8.5l2.13 -2.06zm-29.49 5.39l3.12 0 4.32 4.11 0 1.06 -9.5 0 -2.12 -2.05 4.18 -3.12zm-110.94 0.99l1.07 1.07 0 1.06 -2.06 2.05 -1.07 -1.06 0 -0.99 2.06 -2.13zm233.72 -293.61l63.3 0c10.56,14.96 20.77,32.18 30.76,51.68l-2.27 0c6.88,6.66 13.26,15.45 19.07,26.37l0 2.12 -2.05 3.33c2.76,0.21 4.11,1.28 4.11,3.12l-0.99 1c6.38,0.7 9.57,4.25 9.57,10.63l-2.13 2.05 -11.62 0 0 2.06 -7.45 0 0 2.05 -6.24 0 -12.69 3.34 0 -1 -8.5 2.06 -2.06 -2.06 -3.12 0c0,2.06 -0.78,3.12 -2.27,3.12l-1.06 0 -8.29 -14.74 0 -1.07 2.05 0c0,2.06 2.06,3.13 6.24,3.13l4.32 -2.06 2.13 2.06 5.18 -1.07 0 -2.06c-3.76,0 -6.95,-1.77 -9.57,-5.38l-5.18 -1.06 0 -2.06 -3.12 0 0 2.06 -4.39 0c-2.06,0 -3.12,-2.06 -3.12,-6.24 -2.98,0 -8.3,-7.37 -15.74,-22.19 -21.19,-33.81 -32.82,-53.52 -34.87,-59.19zm181.68 0l1.06 0.99 1 -0.99 9.57 0 4.18 0.99 7.44 -0.99 34.74 0 2.26 2.06 0 7.51 -5.38 0 0 2.05c3.54,0 5.38,0.71 5.38,2.06l0 75c0,1.35 -1.48,2.05 -4.39,2.05l0 1.07c2.91,0 4.39,0.71 4.39,2.26l0 180.48 -2.26 0 -31.62 -55.85 2.05 0 -2.05 -2.27 -0.99 1.2c-19.85,-30.98 -29.71,-48.98 -29.71,-54.01l-1.06 -31.55 0 -29.7 2.06 -3.12 -2.06 -2.05 0 -9.57 8.51 -2.06 0 -5.39 2.05 -3.12c-4.25,0 -8.15,-2.12 -11.62,-6.24l0 -41.32 -0.99 -28.5 0.99 -0.99 6.45 0zm34.88 7.44l0 4.18 2.12 -2.05 0 -2.13 -2.12 0zm-174.46 6.24l0 1.06 2.34 2.06 0 -1.06 -2.34 -2.06zm160.56 0l-1.06 1.06 0 1 3.33 0 -2.27 -2.06zm-203.73 7.51l2.06 0 35.94 61.25c-1.35,0 -2.06,1.06 -2.06,3.12 -4.32,0 -6.45,2.41 -6.45,7.23l-9.36 -0.99 0 0.99c0,1.7 -3.89,3.47 -11.62,5.46l-2.06 2.05 -1.27 0 -4.11 -5.17 -1.07 0 0 -73.94zm220.75 5.18l0 0.99 2.12 0 4.11 -3.05 -2.05 0 -4.18 2.06zm-17.02 2.05l0 2.06 5.39 0 0 -2.06 -5.39 0zm-9.35 4.4l0 0.99 1.06 3.12 3.12 -3.12 -4.18 -0.99zm33.67 18.86l0 1.06 2.27 0c0,2.2 0.7,3.33 2.05,3.33l3.12 0 0 -1.28 -6.45 -3.11 -0.99 0zm-18.93 10.63l2.05 2.05 0 -4.18 -2.05 2.13zm-123.56 2.05l-1.06 1.07 0 3.33 2.13 2.05 2.05 -2.05 0 -1.28 -3.12 -3.12zm91.8 9.58c2.91,0.92 5.04,2.69 6.45,5.17l0 2.27 -2.05 2.12 -3.34 0 -2.12 -2.12 0 -5.39 1.06 -1.06 0 -0.99zm-92.86 3.11l0 8.51c-2.91,0.28 -4.33,1.28 -4.33,3.12l0 0.99 6.46 0c0,4.32 1.34,6.45 4.11,6.45l0 -3.33 5.39 1.27 2.12 0 6.24 -4.39 -1.06 -0.99 0 -1.06c0,-1.78 1.48,-2.84 4.39,-3.13l0 -0.99 -11.69 0c-6.31,-1.98 -9.5,-4.11 -9.5,-6.45l-2.13 0zm146.88 2.06l0 1.06 5.17 1.21 1.07 0 0 -1.21 -5.25 -1.06 -0.99 0zm-131.07 6.45l0 4.11 -2.06 2.13 -1.06 0 -2.06 -2.13 5.18 -4.11zm-58.13 8.5l2.27 0 3.12 4.19 -3.12 2.05 -2.27 0 -3.12 -3.11 3.12 -3.13zm-19.92 2.06c3.12,1.42 4.89,2.77 5.18,4.18l-2.13 5.39c1.42,0 2.13,-1.13 2.13,-3.33l6.45 0 3.12 -2.06 0.99 0 2.05 2.06 -2.05 3.33 0 1.06 2.05 0c3.62,-1.56 5.46,-2.97 5.46,-4.39l3.12 0c4.11,2.91 6.17,6.45 6.17,10.63l0 1c-7.73,0.7 -12.27,1.77 -13.68,3.11l-11.63 0c0,1.56 -1.7,2.27 -5.17,2.27l-3.12 3.12 -5.39 -0.99 -3.12 0 -7.51 4.11 -3.12 0 -2.06 -2.05 0 -9.57 1.07 -1 -1.07 -1.06 0 -5.18 1.07 0 2.05 2.06 -1.06 1.06 0 1 7.51 1.06c0,-1.42 2.41,-2.41 7.23,-3.12l-0.99 -5.39 6.45 0 0 -1.06 -2.13 -5.17 1.07 0 1.06 -1.07zm104.42 10.63l1.06 0c4.96,4.68 7.44,8.94 7.44,12.62 -1.77,0 -2.83,1.42 -3.11,4.19l3.11 2.05 1.07 0 -1.07 -0.99 0 -3.12 3.12 0 103.43 174.24 0 2.05 -20.98 0 -6.46 -2.05 -2.05 2.05 -31.54 0c-3.34,-2.62 -27.65,-42.45 -72.88,-119.44 -17.22,-26.8 -26.44,-42.25 -27.65,-46.29l2.27 0 0 -1.06 -2.27 0 -1.06 1.06c-4.82,-7.58 -7.23,-12.62 -7.23,-14.96l8.29 0 0 2.27 5.39 0 5.18 1.06 1.06 -4.39 5.39 1.06 6.24 0 6.45 -4.11 3.12 2.06 0.99 0c0,-3.47 3.19,-5.88 9.57,-7.3l3.12 1.06 0 -2.06zm72.87 2.06l0 2.06 1.06 0 2.06 -2.06 -3.12 0zm-14.74 4.18l-1 1 0 1.06 5.18 0.99 0 -2.05 -4.18 -1zm-135.19 10.57l4.19 0 0.99 -1.07 1.27 0c0.71,6.38 2.77,9.57 6.24,9.57l1.07 -1.06 2.05 6.24 0 7.51 -4.18 0 0 2.06 4.18 0 2.06 149.92 -1 1.06 -56.92 0 -4.39 -1.06 -4.11 1.06 -1.07 -1.06 0 -160.49c1.63,-4.32 4.47,-6.45 8.51,-6.45 3.33,0 5.74,-0.71 7.3,-2.05l2.06 0c6.38,2.9 9.57,5.03 9.57,6.38l3.11 -0.99c2.91,0.7 4.33,3.11 4.33,7.22l1.06 0 2.06 -2.05 0 -2.06c-2.76,-2.62 -4.11,-4.82 -4.11,-6.45l-5.46 0 -5.17 -1.06 0 -2.06 3.11 -3.11 13.68 0 0 2.05 4.4 0 0 -2.05 -1.28 -1.07 0 -0.99 6.45 -3.12 0 5.18zm8.51 -2.06l2.13 0c2.76,1.06 4.11,3.47 4.11,7.23l-0.99 0c-3.48,-1.35 -5.25,-3.76 -5.25,-7.23zm47.56 4.11l0 2.13 3.13 0 0 -2.13 -3.13 0zm-58.12 3.12l-1.07 5.39 0 3.12 1.07 0c2.05,-0.64 3.12,-2.77 3.12,-6.24l-3.12 -2.27zm67.48 4.4l0 0.99 4.4 1.06 0.99 0 0 -1.06 -2.06 -2.06 -3.33 1.07zm3.33 3.11l0 3.12 2.06 -2.12 0 -1 -2.06 0zm16.8 6.24l3.12 0 3.12 -5.24 -1.06 0c-1.77,0 -3.47,1.77 -5.18,5.24zm-5.38 0l0 1.21 4.39 0 0 -1.21 -4.39 0zm-119.23 2.27c2.83,3.05 4.18,5.81 4.18,8.29l1.06 0c2.62,-2.76 4.75,-4.18 6.45,-4.18l0 -2.05c-2.13,0 -3.12,-0.71 -3.12,-2.06l-8.57 0zm29.48 2.06c0,3.19 -3.47,4.89 -10.56,5.17l0 5.46 1.06 0c2.77,-2.91 5.61,-4.4 8.51,-4.4 0,-2.76 0.99,-4.18 3.12,-4.18l0 -2.05 -2.13 0zm18.08 6.23l0 1.07 2.13 2.26 0.99 0 -0.99 -3.33 -2.13 0zm-15.95 2.27l0 2.13 6.45 0 0 -2.13 -6.45 0zm107.75 0l-0.99 3.12 0 1.07 0.99 0 2.12 -2.06 0 -2.13 -2.12 0zm-127.67 2.13l-1.06 0.99 0 1.07 4.11 0 0 -1.07 -3.05 -0.99zm11.63 8.29l4.11 0 2.05 -2.12 0 -1c-4.11,0.64 -6.16,1.7 -6.16,3.12zm113.98 6.45l3.12 0 0 -2.12 -1.06 0 -2.06 2.12zm-137.3 6.17l0 2.34 2.12 2.06 0.99 0 -0.99 -1.07 0 -0.99 0.99 -1.28 0 -1.06 -3.11 0zm215.42 6.45l2.06 2.06 0.99 0 0 -2.06 -3.05 0zm-86.62 10.64l0 2.05 0.99 0 2.12 -2.05 -3.11 0zm78.26 86.55l-1.21 1.06 0 1.06 3.33 0 -2.12 -2.12zm-42.32 6.23l2.05 2.13 5.39 0 0 -1.06 -5.39 -1.07 -2.05 0z"/>
    <path class="fil1" d="M963.22 466.58l-2.06 3.18 1.07 0 3.11 -1.22 -2.12 -1.96zm-6.17 21.15l0 2.03 0.99 0.95 2.13 0 0 -0.95 -2.13 -2.03 -0.99 0zm58.55 -223.46l64.37 0 -88.29 230.93 -65.42 0 89.34 -230.93zm-47.35 188.46l2.27 2.16 2.06 0 0 -2.16 -4.33 0zm35.09 -28.92l0 1.96 2.27 2.03 1.06 -1.02 0 -1.01 -2.13 -1.96 -1.2 0zm25.52 -113.66l2.12 2.23c6.17,-2.03 9.72,-4.05 10.57,-6.15l-1.07 -1.01c-3.47,3.31 -7.3,4.93 -11.62,4.93zm-29.28 26.76l0 2.16 2.06 1.96 0 -4.12 -2.06 0zm6.24 6.15l0 3.92 3.33 0 0 -0.95 -1.06 -2.97 -2.27 0zm15.81 -2.98l0 0.95 10.56 7.16 0 -3.98c-3.61,-2.37 -5.39,-5.41 -5.39,-9.13 -1.13,0 -2.12,1.69 -3.11,5l-2.06 0zm2.91 -67.7l0 1.15c2.19,0 4.32,1.35 6.44,3.98l1 0 3.12 -2.97 -3.12 -5.14 -1 0c-2.4,1.96 -4.53,2.98 -6.44,2.98zm-22.9 82.71l-0.99 6.14 3.11 2.98 0 1.96 -5.24 1.01 -3.05 0 -2.34 5.14 0 1.01 2.34 1.96 1 0 5.17 -1.01 1.06 5 1.06 0 0 -5.95c1.35,0 2.06,-1.35 2.06,-3.99l1.28 -1.14 0.99 0 4.18 1.14 0 -1.14c0,-1.36 -2.12,-2.64 -6.45,-3.99l-1.06 -4.94 0 -1.21 2.34 0 0 -0.95c-2.27,0 -3.34,-0.67 -3.34,-2.02l-2.12 0zm24.31 19.19l-3.12 -0.95 0 3.92 3.12 0c0,-2.64 2.48,-4.6 7.52,-5.88l0 -2.03 -1.06 0 -6.46 4.94zm4.4 7.16l0 1.96c2.76,-1.01 4.11,-2.03 4.11,-2.98l-4.11 1.02zm-23.25 3.99l3.12 0 0.99 -1.02 1.06 0 -1.06 -2.97 -4.11 3.99zm10.56 0l0 0.94c0,1.08 2.41,2.77 7.3,5.14l0 -2.16c-2.13,0 -3.12,-1.02 -3.12,-2.98l-1.06 -0.94 -3.12 0zm-13.9 9.05l0 1.01c2.91,0 4.33,1.36 4.33,3.99l2.13 0c0,-3.04 1.7,-5.68 5.17,-7.97 -7.8,0.67 -11.63,1.69 -11.63,2.97zm20.14 0l0 1.01 4.32 0 -1.2 -1.01 0 -0.95 -3.12 0.95zm29.49 -116.77c0,2.64 -0.71,3.92 -2.06,3.92l-3.33 -0.94 -1.06 0.94 0 3.18c2.19,0 3.33,1.02 3.33,2.97l1.06 0c0,-3.44 1.7,-5.13 5.18,-5.13l3.33 0c-1.42,-2.37 -3.55,-4.06 -6.45,-4.94zm-44.66 46.5l0 1.21 1.06 0c0.29,-3.17 3.12,-4.73 8.51,-4.73l0 -4.59c-6.38,2.36 -9.57,5.07 -9.57,8.11zm31.97 -23.32l2.05 0 2.13 -2.03 -2.13 0 -2.05 2.03zm-18.08 22.17l-1.2 4.73 3.33 0 0.99 -4.73 -3.12 0zm24.32 -10.14l0 2.03c-2.06,0 -3.13,0.61 -3.13,1.96l3.13 0 1.06 -2.98 0 -1.01 -1.06 0zm-10.57 6.15l3.33 0 2.06 -2.16 -3.12 0 -2.27 2.16zm-52.6 98.79l0 1.02 2.35 0c0,-1.49 0.99,-2.24 3.11,-2.24l0 -1.96 -5.46 3.18zm1.28 -32.84l0 0.95 2.27 3.17 0 1.96c0,2.03 -1.42,2.98 -4.33,2.98l0 1.01 5.39 0 1.07 -4.93c-1.42,-3.18 -2.84,-4.87 -4.4,-5.14zm-9.57 33.86l0 1.96 1.06 0 2.06 -1.96 -3.12 0zm6.24 10.06l2.05 1.96 3.34 0 0 -1.96 -5.39 0zm-9.57 5.95l2.34 2.97 3.12 -1.01 -1.07 -3.92 -4.39 1.96zm22.47 -29.67l0 1.96 3.33 0 0 -1.96 -3.33 0z"/>
    <path class="fil1" d="M936.88 200.02c4.99,0 8.61,2.97 10.86,9.05l-1.21 1.02 2.33 0 1.21 -1.02 1.21 1.02 1.37 0 3.53 -2.98 -6.11 -5.13 0 -1.96 1.21 0 1.37 0.95 1.2 0 1.13 -0.95 5.95 0.95 9.65 0 5.87 -0.95 0 0.95 1.21 -0.95 3.77 0 3.54 0.95 5.88 -0.95 20.5 0 9.41 1.96 2.58 -1.96 1.2 0 1.13 0.95 1.2 -0.95 47.86 0 2.33 1.96 0 0.95 -1.21 0 -5.87 -0.95 -1.12 0.95 0 1.01 9.65 2.16 1.12 -3.17 2.42 0 0 18.24c-5.87,-0.68 -10.22,-2.37 -13.19,-5.14l-7.32 0 0 -1.96 -7.08 0c0,-2.7 -1.69,-3.98 -4.99,-3.98l0 1.01c1.93,6.01 3.94,9.06 6.12,9.06 2.41,0 3.54,1.01 3.54,2.97l1.2 1.01 1.21 0c0,-2.63 1.2,-3.98 3.78,-3.98l3.54 -1.96 6.99 3.98 2.66 0 1.12 -1.01 1.21 0 1.21 6.96 0 13.24 -1.21 1.02 1.21 0.94 0 1.02 -1.21 6.89 -8.53 -0.95 -2.33 2.16 -2.33 0 0 -1.21 -8.52 1.21 -14.32 0 -1.21 -1.21 -1.2 1.21 -8.45 0 -1.2 -1.21 -1.13 1.21 -7.08 0 -4.98 -1.21 -4.67 1.21 -8.52 0 -2.34 -2.16 -9.4 2.16 -31.37 0c-1.61,0 -3.13,-2.02 -4.74,-6.14l-1.13 0 -2.41 2.97 -3.7 -1.01 0 1.01c0,2.09 -2.01,3.17 -5.96,3.17l-7.07 0 0 -2.16 5.95 0 0 -1.01 -1.21 -1.01 1.21 -2.98 1.12 0 1.21 1.02 1.21 0 1.12 -1.02 0 -4.93c0,-1.42 -1.12,-2.16 -3.54,-2.16l-1.12 1.01 -1.21 0 -3.54 -1.01 1.21 1.01 -1.21 1.15 0 1.01 1.21 2.98 -2.41 4.93 -2.57 0 0 -12.1 1.2 -0.94 -1.2 -1.02 0 -21.15 1.2 0c1.69,0 2.98,2.71 3.78,8.11l1.13 0c0,-4.12 0.8,-6.82 2.41,-8.11l0 -1.01 -7.32 -5.95 0 -3.17 1.37 -1.01 -1.37 -0.95 0 -1.96zm38.36 3.92l0 1.21 3.54 -1.21 0 -1.96 -1.12 0 -2.42 1.96zm4.99 -1.01l0 2.22 1.2 0 3.54 -1.21 0 -1.96 -1.2 0 -3.54 0.95zm47.85 3.17c2.33,0 5.15,1.35 8.45,3.99 0,-1.96 1.2,-2.98 3.54,-2.98 0,1.08 2.73,2.71 8.28,4.94l0 -1.96c-3.78,0 -7.32,-2.03 -10.62,-6.15l-7.32 0 -2.33 2.16zm-49.3 3.99l0 2.97 2.65 0 0 -1.01 -2.65 -1.96zm-22.6 1.96c0,3.71 2.01,6.42 5.87,8.11l6.2 -7.1 0 -1.01 -1.21 0c0,1.35 -1.69,2.02 -4.99,2.02l0 1.96 -1.12 0 0 -1.96 -2.41 -2.02 -2.34 0zm57.51 3.98l0 2.17 5.87 0 0 -2.17 -1.13 1.15 -1.2 0 -3.54 -1.15zm-38.45 2.17l0 1.01 1.21 2.97 1.21 0 2.57 -2.02 -4.99 -1.96zm62.49 1.96l1.13 3.98 2.41 0 2.33 -1.96 -2.33 -2.02 -3.54 0zm-87.66 2.02l0 1.96 2.58 0c0,1.29 1.2,1.96 3.53,1.96l0 7.16 2.34 0 1.2 -5.13c-4.58,-3.99 -7.8,-5.95 -9.65,-5.95zm88.79 3.92l0 4.19 1.21 0 0 -4.19 -1.21 0zm22.68 2.03l1.12 5.13 3.78 -2.97 -2.57 -2.16 -2.33 0zm-90.96 2.16l2.33 2.97 -5.87 1.96c0,1.08 1.53,2.03 4.75,2.98 0,-1.08 1.92,-2.03 5.87,-2.98l1.12 1.02 -1.12 -3.99 -1.21 1.01 -2.33 0 0 -2.97 -3.54 0zm50.18 1.96l0 3.99 3.78 0.94 2.33 -5.94 -6.11 1.01zm-71.9 3.99l0 0.94 1.21 0 6.11 -0.94 0 -2.03 -1.2 0 -6.12 2.03zm86.3 -1.02l0 1.96 3.7 7.17 1.21 0 0 -6.15c-1.53,0 -2.34,-1.02 -2.34,-2.98l-2.57 0zm-31.13 10.07l0 2.98 1.13 0 3.78 -0.95 0 -1.01 -4.91 -1.02zm33.7 0c0,2.03 -0.88,2.98 -2.57,2.98l0 2.02 4.91 -2.02 0 -2.98 -2.34 0z"/>
    <path class="fil0" d="M899.91 384.55l-0.8 -5.13 -0.75 0.77 -1.33 3.65 2.88 0.71zm37.93 10.78l-1.43 -2.33 -1.36 -0.36 -1.5 1.54 0.67 1.08 2.92 0.79 0.7 -0.72zm-22.5 89.28l-60.55 -197.15 33.43 -87.44 60.41 198.56 -33.29 86.03zm-8.48 -196.42l-3.12 -0.83 -1.45 1.48 1.53 2.48 3.04 -3.13zm-18.58 54.12l-1.38 -2.24 -3.03 -0.68 -0.03 1.93 0.72 1.16 2.87 0.7 0.85 -0.87zm30.61 52.68l-3.07 -1.02c-2.9,6.8 -3.97,11.69 -3.08,14.7l1.46 0.4c0.1,-6.32 1.65,-10.95 4.69,-14.08zm1.7 -51.88l-1.53 -2.48 -2.83 -0.76 2.91 4.73 1.45 -1.49zm-8.73 -2.53l-2.77 -4.49 -2.34 2.41 0.67 1.09 2.84 2.63 1.6 -1.64zm-9.02 14.86l-0.67 -1.08 -12.48 -0.56 2.82 4.57c4.21,0.09 7.6,2.29 10.22,6.55 0.8,-0.82 0.31,-3.48 -1.33,-7.99l1.44 -1.49zm3.47 -31.68l-3.64 -7.76 -4.3 -1.15 -1.38 -2.25 2.97 -4.96 2.15 -2.21 -1.98 -7.58 -0.72 -1.16 -3.03 -0.55 -0.7 0.72 -2.92 4.91 -4.28 -4.96 -0.74 0.77 4.19 6.81c-0.94,0.98 -0.49,3.04 1.37,6.06l-0.08 2.24 -0.7 0.72 -3.75 1.71 0.81 1.32c0.95,1.55 3.35,1.48 7.35,-0.1l4.23 4.88 0.86 1.4 -1.65 1.69 0.67 1.08c1.59,-1.64 2.82,-1.63 3.77,-0.09l1.5 -1.54zm-30.65 -4.38l2.87 -1.18 -2.77 -4.49 -2.19 2.26c1.86,3.02 1.49,7.07 -1.14,12.18l1.43 2.33 0.75 -0.77 1.05 -10.33zm-8.14 -5.02l-1.38 -2.25c-1.23,3.16 -1.46,5.3 -0.8,6.38l2.18 -4.13zm13.53 -21.42l-2.19 2.26 0.02 1.88 -0.75 0.77 2.84 2.64 0.08 -7.55zm-7.42 7.65l-0.67 -1.08c-0.77,-1.24 -3.65,-1.43 -8.76,-0.6l1.52 2.48c1.5,-1.54 2.91,-1.1 4.3,1.15l1.41 0.31 2.2 -2.26zm3.37 -20.44l-0.71 -1.16c-2.05,2.1 -4,1.58 -5.86,-1.44l-1.49 1.54c2.15,3.49 2.81,7.74 1.99,12.89 5,-6.42 6.98,-10.36 6.07,-11.83zm-14.15 14.58l-0.72 -1.16 -3.04 3.13 1.56 0.29 0.67 1.09 1.53 -3.35zm61.69 155.2c-1.86,-3.02 -2.26,-5 -1.32,-5.98l3.01 -1.33 0.08 -1.85 -2.24 -3.64c-1.55,1.59 -3.06,1.25 -4.44,-1l-0.75 0.78c2.43,3.95 2.43,7.11 -0.01,9.63l-2.35 2.41c2.67,1.69 5.36,2.08 8.02,0.98zm-1.41 -85.63l-0.87 -1.4 -0.74 0.77c2.04,3.85 1.15,7.68 -2.64,11.58l3.24 5.27c2.82,-7.33 3.15,-12.74 1.01,-16.22zm-6.03 49.87l-1.44 1.5 -0.07 3.86 1.5 -1.54 0.01 -3.82zm-2.94 -38.49l-2.49 -6.3 -2.34 2.42 2.65 6.14 2.18 -2.26zm-9.93 29.23l-1.44 -2.33c1.45,-1.48 1.77,-2.95 0.81,-4.5l-2.19 2.26 1.35 4.18 0.72 1.16 0.75 -0.77zm3.08 -14.7l-2.34 2.41 0.08 3.97 2.19 -2.26 0.07 -4.12zm14.29 -68.49l-0.72 -1.17 -1.64 1.7c1.04,1.7 0.87,3.27 -0.62,4.81l1.38 2.25 1.6 -7.59zm-24.76 -44.28l-0.67 -1.09 -3.84 -1.99 -1.38 -2.25c-1.43,-2.33 -1.1,-4.44 0.95,-6.54l-0.72 -1.16 -3.79 3.9 2.73 6.42c3.24,2.62 5.43,3.53 6.72,2.71zm15.3 32.94l-1.38 -2.25 -0.75 0.78 -0.06 3.73 2.19 -2.26zm-33.14 -68.22l-2.83 -0.75 -2.34 2.41 1.38 2.25 3.79 -3.91zm14.71 2.68l-3.75 -1.72 -1.47 3.43 3.51 3.72 1.71 -5.43zm-17.86 16.37l-1.38 -2.25 -2.35 2.42 1.39 2.24 2.34 -2.41z"/>
   </g>
   <g>
    <path class="fil1" d="M188.73 449.96l-3.44 5.31 1.78 0 5.21 -2.03 -3.55 -3.28zm-10.32 35.37l0 3.39 1.66 1.58 3.56 0 0 -1.58 -3.56 -3.39 -1.66 0zm97.92 -373.69l107.64 0 -147.65 386.17 -109.4 0 149.41 -386.17zm-79.19 315.16l3.79 3.61 3.44 0 0 -3.61 -7.23 0zm58.68 -48.37l0 3.28 3.8 3.39 1.77 -1.7 0 -1.69 -3.55 -3.28 -2.02 0zm42.68 -190.07l3.55 3.73c10.32,-3.39 16.25,-6.78 17.67,-10.28l-1.78 -1.7c-5.81,5.54 -12.21,8.25 -19.44,8.25zm-48.96 44.75l0 3.62 3.44 3.28 0 -6.9 -3.44 0zm10.43 10.28l0 6.56 5.57 0 0 -1.58 -1.78 -4.98 -3.79 0zm26.44 -4.97l0 1.59 17.66 11.97 0 -6.66c-6.05,-3.96 -9.01,-9.04 -9.01,-15.26 -1.9,0 -3.55,2.82 -5.22,8.36l-3.43 0zm4.86 -113.22l0 1.92c3.67,0 7.23,2.26 10.78,6.66l1.67 0 5.21 -4.97 -5.21 -8.59 -1.67 0c-4.03,3.28 -7.58,4.98 -10.78,4.98zm-38.29 138.31l-1.66 10.28 5.21 4.97 0 3.28 -8.77 1.7 -5.1 0 -3.91 8.58 0 1.7 3.91 3.28 1.66 0 8.66 -1.7 1.77 8.36 1.78 0 0 -9.94c2.26,0 3.44,-2.26 3.44,-6.67l2.14 -1.92 1.65 0 7 1.92 0 -1.92c0,-2.26 -3.56,-4.41 -10.79,-6.67l-1.78 -8.25 0 -2.03 3.92 0 0 -1.58c-3.8,0 -5.58,-1.13 -5.58,-3.39l-3.55 0zm40.66 32.09l-5.22 -1.58 0 6.55 5.22 0c0,-4.4 4.15,-7.68 12.56,-9.83l0 -3.39 -1.78 0 -10.78 8.25zm7.35 11.98l0 3.28c4.62,-1.7 6.87,-3.39 6.87,-4.98l-6.87 1.7zm-38.88 6.67l5.21 0 1.66 -1.7 1.78 0 -1.78 -4.97 -6.87 6.67zm17.66 0l0 1.58c0,1.81 4.03,4.63 12.21,8.59l0 -3.62c-3.56,0 -5.22,-1.69 -5.22,-4.97l-1.77 -1.58 -5.22 0zm-23.24 15.14l0 1.69c4.86,0 7.23,2.26 7.23,6.67l3.56 0c0,-5.08 2.85,-9.49 8.65,-13.33 -13.03,1.13 -19.44,2.82 -19.44,4.97zm33.67 0l0 1.69 7.23 0 -2.01 -1.69 0 -1.58 -5.22 1.58zm49.31 -195.27c0,4.41 -1.18,6.56 -3.43,6.56l-5.58 -1.58 -1.77 1.58 0 5.31c3.67,0 5.57,1.69 5.57,4.97l1.78 0c0,-5.76 2.84,-8.59 8.65,-8.59l5.57 0c-2.37,-3.95 -5.93,-6.78 -10.79,-8.25zm-74.68 77.75l0 2.03 1.78 0c0.47,-5.31 5.22,-7.91 14.23,-7.91l0 -7.68c-10.67,3.95 -16.01,8.47 -16.01,13.56zm53.47 -38.99l3.43 0 3.56 -3.39 -3.56 0 -3.43 3.39zm-30.24 37.07l-2.01 7.91 5.57 0 1.66 -7.91 -5.22 0zm40.67 -16.95l0 3.38c-3.44,0 -5.22,1.03 -5.22,3.28l5.22 0 1.77 -4.97 0 -1.69 -1.77 0zm-17.67 10.28l5.57 0 3.44 -3.62 -5.21 0 -3.8 3.62zm-87.96 165.21l0 1.69 3.92 0c0,-2.48 1.65,-3.73 5.21,-3.73l0 -3.27 -9.13 5.31zm2.14 -54.92l0 1.58 3.79 5.31 0 3.28c0,3.39 -2.37,4.97 -7.23,4.97l0 1.7 9.01 0 1.78 -8.25c-2.37,-5.31 -4.74,-8.14 -7.35,-8.59zm-16.01 56.61l0 3.28 1.78 0 3.44 -3.28 -5.22 0zm10.43 16.84l3.44 3.28 5.57 0 0 -3.28 -9.01 0zm-16 9.94l3.91 4.98 5.22 -1.7 -1.78 -6.55 -7.35 3.27zm37.58 -49.6l0 3.27 5.57 0 0 -3.27 -5.57 0z"/>
    <path class="fil1" d="M144.68 4.19c8.34,0 14.39,4.97 18.16,15.15l-2.02 1.69 3.91 0 2.01 -1.69 2.02 1.69 2.28 0 5.92 -4.97 -10.22 -8.59 0 -3.28 2.02 0 2.28 1.59 2.02 0 1.88 -1.59 9.96 1.59 16.14 0 9.82 -1.59 0 1.59 2.01 -1.59 6.32 0 5.92 1.59 9.82 -1.59 34.29 0 15.74 3.28 4.3 -3.28 2.02 0 1.88 1.59 2.02 -1.59 80.02 0 3.9 3.28 0 1.58 -2.02 0 -9.81 -1.58 -1.89 1.58 0 1.7 16.14 3.61 1.88 -5.31 4.04 0 0 30.51c-9.82,-1.13 -17.08,-3.95 -22.06,-8.59l-12.24 0 0 -3.27 -11.83 0c0,-4.52 -2.82,-6.67 -8.34,-6.67l0 1.69c3.23,10.06 6.59,15.15 10.22,15.15 4.04,0 5.92,1.69 5.92,4.97l2.02 1.69 2.01 0c0,-4.4 2.02,-6.66 6.33,-6.66l5.91 -3.28 11.7 6.66 4.44 0 1.88 -1.69 2.02 0 2.02 11.64 0 22.15 -2.02 1.69 2.02 1.59 0 1.69 -2.02 11.53 -14.25 -1.59 -3.9 3.62 -3.9 0 0 -2.03 -14.26 2.03 -23.94 0 -2.02 -2.03 -2.01 2.03 -14.13 0 -2.01 -2.03 -1.89 2.03 -11.83 0 -8.34 -2.03 -7.8 2.03 -14.26 0 -3.9 -3.62 -15.73 3.62 -52.45 0c-2.69,0 -5.25,-3.39 -7.94,-10.28l-1.88 0 -4.04 4.97 -6.18 -1.69 0 1.69c0,3.5 -3.37,5.31 -9.96,5.31l-11.83 0 0 -3.62 9.95 0 0 -1.69 -2.01 -1.69 2.01 -4.98 1.88 0 2.02 1.7 2.02 0 1.89 -1.7 0 -8.25c0,-2.37 -1.89,-3.61 -5.93,-3.61l-1.88 1.69 -2.01 0 -5.92 -1.69 2.02 1.69 -2.02 1.92 0 1.7 2.02 4.97 -4.04 8.25 -4.3 0 0 -20.23 2.01 -1.58 -2.01 -1.69 0 -35.37 2.01 0c2.83,0 4.98,4.52 6.33,13.55l1.88 0c0,-6.89 1.34,-11.41 4.03,-13.55l0 -1.7 -12.24 -9.94 0 -5.31 2.29 -1.7 -2.29 -1.58 0 -3.28zm64.16 6.56l0 2.03 5.91 -2.03 0 -3.28 -1.88 0 -4.03 3.28zm8.33 -1.7l0 3.73 2.02 0 5.92 -2.03 0 -3.28 -2.02 0 -5.92 1.58zm80.03 5.31c3.9,0 8.61,2.26 14.12,6.67 0,-3.28 2.02,-4.97 5.92,-4.97 0,1.81 4.57,4.52 13.85,8.25l0 -3.28c-6.32,0 -12.24,-3.39 -17.75,-10.28l-12.24 0 -3.9 3.61zm-82.45 6.67l0 4.97 4.44 0 0 -1.69 -4.44 -3.28zm-37.79 3.28c0,6.21 3.36,10.73 9.82,13.56l10.36 -11.87 0 -1.69 -2.02 0c0,2.26 -2.82,3.39 -8.34,3.39l0 3.27 -1.88 0 0 -3.27 -4.04 -3.39 -3.9 0zm96.16 6.66l0 3.62 9.82 0 0 -3.62 -1.88 1.93 -2.02 0 -5.92 -1.93zm-64.28 3.62l0 1.69 2.02 4.97 2.01 0 4.3 -3.38 -8.33 -3.28zm104.5 3.28l1.88 6.66 4.03 0 3.9 -3.28 -3.9 -3.38 -5.91 0zm-146.6 3.38l0 3.28 4.3 0c0,2.15 2.02,3.28 5.92,3.28l0 11.98 3.9 0 2.02 -8.59c-7.67,-6.67 -13.05,-9.95 -16.14,-9.95zm148.48 6.56l0 7.01 2.02 0 0 -7.01 -2.02 0zm37.92 3.39l1.89 8.59 6.32 -4.97 -4.3 -3.62 -3.91 0zm-152.1 3.62l3.89 4.97 -9.81 3.28c0,1.8 2.55,3.38 7.93,4.97 0,-1.81 3.23,-3.39 9.82,-4.97l1.88 1.69 -1.88 -6.67 -2.01 1.7 -3.91 0 0 -4.97 -5.91 0zm83.92 3.27l0 6.67 6.32 1.58 3.9 -9.94 -10.22 1.69zm-120.23 6.67l0 1.58 2.01 0 10.22 -1.58 0 -3.39 -2.02 0 -10.21 3.39zm144.3 -1.69l0 3.27 6.19 11.98 2.02 0 0 -10.28c-2.56,0 -3.9,-1.7 -3.9,-4.97l-4.31 0zm-52.05 16.83l0 4.98 1.89 0 6.32 -1.59 0 -1.69 -8.21 -1.7zm56.36 0c0,3.39 -1.48,4.98 -4.31,4.98l0 3.38 8.21 -3.38 0 -4.98 -3.9 0z"/>
    <path class="fil2" d="M82.85 312.78l-1.33 -8.58 -1.25 1.29 -2.23 6.11 4.81 1.18zm63.44 18.02l-2.39 -3.88 -2.29 -0.61 -2.5 2.57 1.12 1.82 4.89 1.31 1.17 -1.21zm-37.62 149.3l-101.26 -329.69 55.91 -146.22 101 332.05 -55.65 143.86zm-14.19 -328.46l-5.22 -1.4 -2.41 2.49 2.55 4.15 5.08 -5.24zm-31.07 90.51l-2.31 -3.76 -5.06 -1.14 -0.06 3.23 1.2 1.95 4.81 1.18 1.42 -1.46zm51.19 88.09l-5.13 -1.7c-4.86,11.36 -6.64,19.54 -5.17,24.58l2.45 0.66c0.18,-10.56 2.76,-18.3 7.85,-23.54zm2.83 -86.76l-2.55 -4.14 -4.73 -1.27 4.87 7.9 2.41 -2.49zm-14.59 -4.23l-4.63 -7.51 -3.92 4.04 1.12 1.81 4.76 4.41 2.67 -2.75zm-15.08 24.85l-1.12 -1.81 -20.87 -0.94 4.71 7.64c7.04,0.16 12.71,3.84 17.1,10.96 1.33,-1.37 0.51,-5.81 -2.24,-13.36l2.42 -2.49zm5.8 -52.97l-6.09 -12.99 -7.18 -1.92 -2.32 -3.75 4.98 -8.3 3.58 -3.69 -3.31 -12.68 -1.2 -1.94 -5.06 -0.93 -1.17 1.21 -4.89 8.21 -7.15 -8.3 -1.25 1.29 7.02 11.4c-1.58,1.63 -0.82,5.08 2.29,10.13l-0.15 3.74 -1.16 1.21 -6.28 2.86 1.36 2.2c1.59,2.59 5.61,2.48 12.29,-0.17l7.07 8.17 1.44 2.33 -2.75 2.83 1.12 1.82c2.66,-2.75 4.71,-2.74 6.31,-0.15l2.5 -2.58zm-51.25 -7.33l4.79 -1.97 -4.63 -7.51 -3.67 3.78c3.11,5.05 2.51,11.81 -1.89,20.37l2.39 3.89 1.25 -1.29 1.76 -17.27zm-13.62 -8.41l-2.31 -3.75c-2.06,5.29 -2.44,8.87 -1.33,10.68l3.64 -6.93zm22.63 -35.8l-3.67 3.77 0.04 3.15 -1.25 1.29 4.75 4.41 0.13 -12.62zm-12.42 12.79l-1.11 -1.81c-1.28,-2.07 -6.11,-2.39 -14.65,-1l2.55 4.14c2.5,-2.57 4.86,-1.83 7.18,1.93l2.36 0.52 3.67 -3.78zm5.65 -34.19l-1.2 -1.94c-3.41,3.52 -6.68,2.65 -9.79,-2.4l-2.5 2.57c3.59,5.83 4.7,12.94 3.33,21.56 8.37,-10.74 11.68,-17.32 10.16,-19.79zm-23.67 24.39l-1.2 -1.94 -5.09 5.24 2.62 0.48 1.12 1.81 2.55 -5.59zm103.17 259.54c-3.11,-5.05 -3.79,-8.37 -2.21,-10l5.04 -2.22 0.13 -3.11 -3.75 -6.08c-2.59,2.66 -5.12,2.09 -7.43,-1.67l-1.25 1.29c4.07,6.61 4.06,11.91 -0.02,16.12l-3.92 4.03c4.46,2.82 8.95,3.48 13.41,1.64zm-2.37 -143.21l-1.44 -2.33 -1.25 1.29c3.42,6.43 1.92,12.84 -4.42,19.37l5.43 8.81c4.71,-12.27 5.27,-21.31 1.68,-27.14zm-10.07 83.42l-2.42 2.49 -0.11 6.46 2.5 -2.58 0.03 -6.37zm-4.91 -64.39l-4.17 -10.52 -3.92 4.03 4.42 10.27 3.67 -3.78zm-16.63 48.89l-2.39 -3.89c2.42,-2.49 2.95,-4.94 1.35,-7.53l-3.66 3.77 2.26 6.99 1.19 1.94 1.25 -1.28zm5.16 -24.59l-3.92 4.04 0.14 6.64 3.67 -3.78 0.11 -6.9zm23.89 -114.54l-1.19 -1.94 -2.75 2.83c1.75,2.85 1.46,5.48 -1.04,8.06l2.31 3.75 2.67 -12.7zm-41.4 -74.04l-1.11 -1.82 -6.42 -3.33 -2.31 -3.76c-2.4,-3.89 -1.85,-7.42 1.57,-10.94l-1.2 -1.94 -6.33 6.52 4.57 10.75c5.42,4.37 9.08,5.89 11.23,4.52zm25.59 55.09l-2.31 -3.76 -1.25 1.29 -0.1 6.25 3.66 -3.78zm-55.42 -114.08l-4.73 -1.27 -3.92 4.04 2.32 3.76 6.33 -6.53zm24.59 4.48l-6.26 -2.87 -2.47 5.72 5.88 6.23 2.85 -9.08zm-29.86 27.37l-2.31 -3.75 -3.92 4.03 2.31 3.76 3.92 -4.04z"/>
   </g>
   <g>
    <path class="fil0" d="M536.61 156.33c-2.36,0 -4.31,-1.23 -5.82,-3.66 -1.3,-2.1 -2.49,-5.6 -3.53,-10.49l-2.34 -11.28c-1.79,-6.96 -4.63,-22.36 -8.51,-46.2l-13.1 39.46 -3.88 12.44c-1.57,4.93 -3.22,8.97 -4.91,12.11 -1.83,3.28 -4.31,4.94 -7.41,4.94 -2.57,0 -4.6,-1.38 -6.1,-4.15 -0.95,-1.83 -1.83,-4.17 -2.61,-7.01l-1.9 -7.26c-4.4,-15.4 -8.28,-31.89 -11.65,-49.48l-2.34 11.71 -8.44 34.58c-0.35,4.04 -1.45,10.05 -3.28,17.99 -1.29,3.4 -3.46,5.09 -6.45,5.09 -2.14,0 -3.84,-0.75 -5.11,-2.3 -1.1,-1.3 -1.63,-2.92 -1.63,-4.84 0,-7.28 1.5,-16.23 4.51,-26.83l7.18 -26.37 3.8 -20.61c1.92,-9.65 3.95,-15.94 6.07,-18.91 1.77,-2.52 3.9,-3.8 6.47,-3.8 2.84,0 4.95,1.61 6.36,4.85 1.7,3.88 3.53,11.81 5.49,23.75 2.33,14.34 5.92,29.89 10.81,46.6 6.47,-16.8 12.05,-34.31 16.78,-52.49l1.96 -9.55c0.79,-3.85 1.82,-6.93 3.09,-9.29 1.69,-3.19 4.04,-4.8 7,-4.8 3.75,0 6.61,3.61 8.57,10.82 0.69,2.48 1.54,7.64 2.55,15.45 2.57,19.71 5.78,36.56 9.6,50.51l3.21 11.25c1.65,6.03 2.48,9.75 2.48,11.13 0,1.91 -0.71,3.47 -2.12,4.74 -1.43,1.27 -3.02,1.9 -4.8,1.9l0 0z"/>
    <path id="_1" class="fil0" d="M611.09 69.37c-2.78,0 -6.31,-0.3 -10.53,-0.87l-10.54 -1.36c-1,12.67 -1.51,24.79 -1.51,36.35 0,3.06 0.08,6.84 0.27,11.32 0.17,4.48 0.24,8.26 0.24,11.31 0,4.12 -0.14,7.84 -0.45,11.19l20.63 -0.27c1.85,0 3.39,0.65 4.62,1.94 1.24,1.32 1.87,2.9 1.87,4.8 0,1.92 -0.63,3.55 -1.87,4.84 -1.23,1.29 -2.77,1.95 -4.62,1.95 -2.44,0 -6.12,0.04 -11,0.13 -4.89,0.09 -8.56,0.13 -11.02,0.13 -2.87,0 -7.18,0.4 -12.94,1.21 -5.74,0.8 -10.06,1.2 -12.99,1.2 -1.85,0 -3.39,-0.65 -4.62,-1.92 -1.25,-1.29 -1.87,-2.86 -1.87,-4.73 0,-1.87 0.62,-3.46 1.87,-4.75 1.23,-1.29 2.77,-1.96 4.6,-1.96 2.83,0 7.55,-0.45 14.08,-1.37 0.43,-3.53 0.65,-7.57 0.65,-12.11 0,-3.02 -0.13,-6.7 -0.42,-11.03 -0.3,-4.35 -0.43,-8.02 -0.43,-10.98 0,-10.09 0.6,-22.68 1.83,-37.79l-8.53 0.26 -8.5 0.21c-1.9,0 -3.45,-0.65 -4.73,-1.92 -1.27,-1.28 -1.9,-2.88 -1.9,-4.85 0,-4.09 2.05,-6.31 6.17,-6.7 3.54,-0.35 10.15,-0.53 19.86,-0.53 8.68,0 19.58,0.94 32.7,2.83 3.88,0.56 5.82,2.9 5.82,7.04 0,2.05 -0.73,3.67 -2.23,4.9 -1.29,1.01 -2.81,1.53 -4.51,1.53l0 0z"/>
    <path id="_2" class="fil0" d="M722.47 136.3c0,2.11 -0.36,5.58 -1.05,10.47 -0.69,4.4 -3.03,6.61 -7.01,6.61 -2.41,0 -5.26,-1.56 -8.56,-4.71 -17.77,-16.76 -38.13,-40.98 -61.12,-72.61l-0.34 14.84 -0.19 14.91c0,3.62 0.06,9.06 0.22,16.3 0.16,7.23 0.25,12.7 0.25,16.36 0,11.72 -2.26,17.58 -6.8,17.58 -2.38,0 -4.28,-0.75 -5.68,-2.29 -1.25,-1.34 -1.88,-2.95 -1.88,-4.82 0,-1.84 0.13,-4.6 0.43,-8.33 0.26,-3.71 0.42,-6.47 0.42,-8.31 0,-2.69 0.06,-6.73 0.24,-12.11 0.19,-5.38 0.27,-9.44 0.27,-12.15 0,-2.87 -0.07,-7.2 -0.2,-13.03 -0.13,-5.82 -0.2,-10.17 -0.2,-13.06 0,-2.74 -0.24,-6.83 -0.78,-12.25 -0.52,-5.42 -0.78,-9.51 -0.78,-12.28 0,-1.98 0.87,-3.82 2.58,-5.49 1.73,-1.65 3.66,-2.47 5.86,-2.47 2.3,0 5.15,2.52 8.57,7.59 10.84,16.24 20.6,29.75 29.28,40.5 10.33,12.78 21.67,24.98 34.02,36.61 0.09,-1.87 0.06,-4.64 -0.07,-8.3l-0.18 -8.24c0,-19.15 -0.73,-34.37 -2.21,-45.71 -0.17,-1.14 -0.76,-3.41 -1.74,-6.88 -0.87,-2.94 -1.29,-5.26 -1.29,-6.91 0,-5.07 2.32,-7.59 6.94,-7.59 7.61,0 11.4,14.15 11.4,42.43 0,4.84 -0.07,12.08 -0.2,21.67 -0.14,9.62 -0.2,16.85 -0.2,21.67l0 0z"/>
    <path id="_3" class="fil0" d="M790.97 69.37c-2.79,0 -6.32,-0.3 -10.54,-0.87l-10.53 -1.36c-1,12.67 -1.51,24.79 -1.51,36.35 0,3.06 0.09,6.84 0.26,11.32 0.18,4.48 0.25,8.26 0.25,11.31 0,4.12 -0.14,7.84 -0.45,11.19l20.62 -0.27c1.85,0 3.4,0.65 4.62,1.94 1.26,1.32 1.88,2.9 1.88,4.8 0,1.92 -0.62,3.55 -1.88,4.84 -1.22,1.29 -2.77,1.95 -4.62,1.95 -2.43,0 -6.11,0.04 -11,0.13 -4.89,0.09 -8.55,0.13 -11,0.13 -2.89,0 -7.19,0.4 -12.95,1.21 -5.74,0.8 -10.07,1.2 -12.99,1.2 -1.85,0 -3.39,-0.65 -4.62,-1.92 -1.25,-1.29 -1.88,-2.86 -1.88,-4.73 0,-1.87 0.63,-3.46 1.88,-4.75 1.23,-1.29 2.77,-1.96 4.6,-1.96 2.83,0 7.54,-0.45 14.08,-1.37 0.42,-3.53 0.65,-7.57 0.65,-12.11 0,-3.02 -0.14,-6.7 -0.43,-11.03 -0.28,-4.35 -0.41,-8.02 -0.41,-10.98 0,-10.09 0.6,-22.68 1.82,-37.79l-8.52 0.26 -8.51 0.21c-1.89,0 -3.46,-0.65 -4.73,-1.92 -1.27,-1.28 -1.89,-2.88 -1.89,-4.85 0,-4.09 2.05,-6.31 6.15,-6.7 3.55,-0.35 10.16,-0.53 19.87,-0.53 8.68,0 19.57,0.94 32.7,2.83 3.88,0.56 5.83,2.9 5.83,7.04 0,2.05 -0.75,3.67 -2.24,4.9 -1.29,1.01 -2.81,1.53 -4.51,1.53l0 0z"/>
    <path id="_4" class="fil0" d="M810.34 134.56c-0.04,-1.85 0.59,-3.33 1.86,-4.48 1.29,-1.16 2.85,-1.75 4.73,-1.75 2.12,0 3.99,1.23 5.6,3.67 2.22,3.32 4.19,5.56 5.94,6.74 3.7,2.43 9.08,3.66 16.14,3.66 6.74,0 13.01,-1.45 18.79,-4.37 7.39,-3.78 11.09,-8.98 11.09,-15.65 0,-5.49 -3.1,-9.84 -9.32,-13.04 -5.28,-2.75 -11.79,-4.21 -19.53,-4.44 -6.9,-0.27 -12.75,-1.76 -17.57,-4.51 -6.18,-3.52 -9.29,-8.57 -9.29,-15.16 0,-7.74 4.4,-14.81 13.19,-21.2 8.42,-6.05 17.1,-9.08 26.08,-9.08 4.21,0 8.99,0.72 14.3,2.16 7.05,1.88 10.58,4.29 10.58,7.21 0,3.84 -1.97,5.76 -5.9,5.76 -1.74,0 -4.77,-0.47 -9.14,-1.42 -4.36,-0.96 -7.73,-1.43 -10.14,-1.39 -6.78,0.09 -12.56,1.76 -17.32,5.04 -4.89,3.35 -7.32,7.44 -7.32,12.23 0,3.65 3.24,6.19 9.69,7.68 2.39,0.56 7.05,1.08 13.93,1.57 9.99,0.73 17.81,3.88 23.44,9.42 5.15,5.04 7.72,11.22 7.72,18.5 0,10.36 -4.8,18.63 -14.37,24.85 -8.34,5.34 -17.98,8.02 -28.94,8.02 -7.97,0 -15.26,-1.52 -21.9,-4.57 -8.1,-3.75 -12.2,-8.9 -12.34,-15.45l0 0z"/>
    <path id="_5" class="fil0" d="M983.39 68.16c-3.21,0 -8.19,-0.25 -14.88,-0.78 -6.52,-0.46 -11.47,-0.69 -14.87,-0.65l-4.64 0c0.13,6.02 0.69,15.81 1.71,29.33 0.94,12.61 1.41,22.41 1.41,29.4 0,1.51 0.16,3.84 0.45,6.92 0.29,3.1 0.44,5.44 0.44,7 0,2.97 -0.46,5.54 -1.42,7.66 -1.23,2.88 -3.13,4.33 -5.69,4.33 -1.74,0 -3.33,-0.61 -4.71,-1.83 -1.41,-1.23 -2.1,-2.79 -2.1,-4.71 0,-0.67 0.11,-1.66 0.34,-2.95 0.19,-1.31 0.31,-2.3 0.31,-2.94 0,-2.14 -0.14,-5.36 -0.43,-9.62 -0.26,-4.29 -0.42,-7.52 -0.42,-9.69 0,-6.25 -0.47,-15.02 -1.45,-26.31 -1.01,-12.24 -1.57,-21.01 -1.7,-26.32l-5.96 0.07c-9.53,0 -17.03,-0.69 -22.49,-2.1 -3.53,-0.92 -5.29,-3.06 -5.29,-6.47 0,-1.79 0.55,-3.36 1.69,-4.69 1.31,-1.54 2.99,-2.23 5.02,-2.1 1.54,0.09 5.02,0.47 10.47,1.18 4.35,0.52 7.88,0.78 10.58,0.78 2.61,0 6.56,-0.07 11.87,-0.17 5.32,-0.12 9.29,-0.16 11.9,-0.16 3.35,0 8.33,0.25 14.94,0.72 6.58,0.48 11.56,0.71 14.9,0.71 1.87,0 3.46,0.65 4.71,1.94 1.28,1.27 1.9,2.88 1.9,4.8 0,1.88 -0.62,3.44 -1.9,4.73 -1.25,1.3 -2.81,1.92 -4.69,1.92l0 0z"/>
    <path id="_6" class="fil0" d="M1058.26 62.71c-0.63,0 -1.3,-0.11 -2.04,-0.31 -7.38,-2.03 -14.49,-3.04 -21.33,-3.04 -3.59,0 -7.5,0.32 -11.72,0.92 -4.24,0.63 -8.79,1.57 -13.68,2.83 0.36,2.86 0.54,5.14 0.54,6.86 0,6.09 -0.36,14.49 -1.08,25.15l28.71 -2.72c8.41,-0.87 13.59,-1.29 15.51,-1.29 1.92,0 3.52,0.6 4.84,1.83 1.32,1.23 1.96,2.85 1.96,4.89 0,3.97 -1.98,6.2 -5.97,6.67l-15.61 1.38 -30.24 2.78c-0.16,3.07 -0.29,5.99 -0.38,8.74 -0.11,2.77 -0.16,5.34 -0.16,7.72 0,9.6 0.69,15.22 2.1,16.92 1.05,1.23 4.47,1.84 10.27,1.84 2.7,0 6.76,-0.08 12.21,-0.21 5.42,-0.13 9.51,-0.2 12.25,-0.2 0.87,0 2.17,-0.14 3.86,-0.4 1.72,-0.27 2.97,-0.41 3.8,-0.41 4.62,0 6.94,2.26 6.94,6.79 0,3.64 -1.85,5.83 -5.56,6.59 -4.11,0.8 -12.99,1.22 -26.65,1.22 -13.52,0 -22.21,-1.78 -26.05,-5.36 -4.19,-3.88 -6.29,-12.83 -6.29,-26.82 0,-2.8 0.07,-5.83 0.18,-9.16 0.13,-3.3 0.29,-6.87 0.49,-10.71 -0.44,-1 -0.67,-2.07 -0.67,-3.22 0,-1.46 0.4,-2.81 1.2,-3.99 0.9,-12.58 1.34,-21.9 1.34,-27.92 0,-1.61 -0.21,-3.97 -0.67,-7.07 -0.44,-3.12 -0.67,-5.5 -0.67,-7.1 0,-5.21 2.19,-7.79 6.55,-7.79 1.83,0 3.41,0.62 4.7,1.89 5.24,-1.38 10.18,-2.43 14.82,-3.12 4.65,-0.69 9.03,-1.05 13.13,-1.05 10.6,0 19.06,1.25 25.4,3.77 2.92,1.18 4.37,3.26 4.37,6.28 0,1.71 -0.56,3.25 -1.69,4.61 -1.28,1.48 -2.84,2.21 -4.71,2.21l0 0zm-24.07 -27.29c-1.56,0 -2.96,-0.63 -4.15,-1.83 -1.2,-1.23 -1.8,-2.61 -1.8,-4.2 0,-1.47 0.66,-2.9 2.03,-4.24 1.87,-1.83 4.73,-5.31 8.57,-10.4 2.88,-3.75 6.09,-6.87 9.62,-9.35 1.18,-0.8 2.34,-1.21 3.48,-1.21 1.56,0 2.95,0.63 4.13,1.86 1.18,1.24 1.76,2.62 1.76,4.19 0,1.74 -0.82,3.26 -2.47,4.57 -3.06,2.44 -6.01,5.61 -8.85,9.49 -2.96,4.09 -5.8,7.26 -8.45,9.49 -1.23,1.07 -2.5,1.63 -3.87,1.63l0 0z"/>
    <path id="_7" class="fil0" d="M1142.61 151.51c-1.66,0 -3.19,-0.7 -4.63,-2.11 -14.33,-14.25 -30.26,-23.85 -47.8,-28.76l0.4 12.83 0.26 12.9c0,1.92 -0.62,3.53 -1.88,4.8 -1.24,1.29 -2.81,1.94 -4.68,1.94 -1.87,0 -3.43,-0.65 -4.68,-1.92 -1.26,-1.29 -1.88,-2.9 -1.88,-4.82 0,-3.43 -0.18,-8.57 -0.54,-15.4 -0.36,-6.81 -0.54,-11.94 -0.54,-15.38 0,-4.02 0.46,-10 1.35,-17.92 0.89,-7.95 1.33,-13.89 1.33,-17.86 0,-2.21 -0.2,-5.51 -0.6,-9.86 -0.39,-4.36 -0.6,-7.66 -0.6,-9.89 0,-2.47 0.69,-4.64 2.1,-6.52 1.65,-2.32 3.93,-3.37 6.85,-3.15l15.72 1.25c5.95,0.74 10.98,2.19 15.06,4.38 17.61,9.38 26.43,20.8 26.43,34.31 0,6.62 -3.01,12.47 -9.02,17.58 -4.82,4.09 -10.84,7.21 -18.08,9.36 13.55,7.27 23.66,14.93 30.36,22.99 1.14,1.4 1.69,2.87 1.69,4.44 0,1.83 -0.67,3.44 -1.99,4.77 -1.31,1.36 -2.85,2.04 -4.63,2.04l0 0zm-41.59 -86.41l-9.64 -0.78 0.62 7.9c0.29,3.21 0.45,5.85 0.45,7.91 0,3.48 -0.25,7.81 -0.76,12.98l-1.25 13c0.6,0 1.54,0.02 2.84,0.07 1.27,0.03 2.23,0.06 2.88,0.06 11.04,0 19.3,-1.47 24.8,-4.44 2.43,-1.34 4.68,-3.1 6.75,-5.29 2.3,-2.43 3.45,-4.51 3.45,-6.21 0,-6.05 -3.45,-11.67 -10.32,-16.89 -6.3,-4.8 -12.9,-7.57 -19.82,-8.31l0 0z"/>
    <path id="_8" class="fil0" d="M1215.82 69.37c-2.8,0 -6.32,-0.3 -10.54,-0.87l-10.53 -1.36c-1.01,12.67 -1.52,24.79 -1.52,36.35 0,3.06 0.09,6.84 0.26,11.32 0.18,4.48 0.25,8.26 0.25,11.31 0,4.12 -0.13,7.84 -0.45,11.19l20.63 -0.27c1.85,0 3.39,0.65 4.62,1.94 1.25,1.32 1.87,2.9 1.87,4.8 0,1.92 -0.62,3.55 -1.87,4.84 -1.23,1.29 -2.77,1.95 -4.62,1.95 -2.44,0 -6.11,0.04 -11.01,0.13 -4.89,0.09 -8.54,0.13 -11,0.13 -2.88,0 -7.18,0.4 -12.95,1.21 -5.73,0.8 -10.06,1.2 -12.99,1.2 -1.85,0 -3.39,-0.65 -4.62,-1.92 -1.25,-1.29 -1.87,-2.86 -1.87,-4.73 0,-1.87 0.62,-3.46 1.87,-4.75 1.23,-1.29 2.77,-1.96 4.6,-1.96 2.84,0 7.55,-0.45 14.08,-1.37 0.43,-3.53 0.66,-7.57 0.66,-12.11 0,-3.02 -0.15,-6.7 -0.43,-11.03 -0.29,-4.35 -0.42,-8.02 -0.42,-10.98 0,-10.09 0.6,-22.68 1.83,-37.79l-8.53 0.26 -8.51 0.21c-1.89,0 -3.45,-0.65 -4.73,-1.92 -1.27,-1.28 -1.89,-2.88 -1.89,-4.85 0,-4.09 2.05,-6.31 6.15,-6.7 3.55,-0.35 10.17,-0.53 19.87,-0.53 8.69,0 19.57,0.94 32.7,2.83 3.88,0.56 5.83,2.9 5.83,7.04 0,2.05 -0.74,3.67 -2.23,4.9 -1.3,1.01 -2.81,1.53 -4.51,1.53l0 0z"/>
    <path id="_9" class="fil0" d="M1278.83 154.85c-12.28,0 -22.71,-3.68 -31.25,-11.05 -9.07,-7.85 -13.6,-17.99 -13.6,-30.37 0,-15.09 4.47,-28.8 13.4,-41.16 9.99,-13.69 22.43,-20.53 37.34,-20.53 14.33,0 24.98,3.23 31.95,9.68 7.28,6.72 10.93,17.32 10.93,31.81 0,15.09 -4.12,28.67 -12.31,40.82 -9.39,13.87 -21.55,20.8 -36.46,20.8l0 0zm5.86 -89.72c-10.64,0 -19.68,5.33 -27.07,15.98 -6.83,9.78 -10.24,20.55 -10.24,32.34 0,8.42 3.1,15.26 9.33,20.55 5.95,4.98 13.34,7.46 22.12,7.46 10.58,0 19.3,-5.35 26.18,-16.05 6.14,-9.55 9.2,-20.28 9.2,-32.21 0,-10.42 -2.33,-17.77 -7,-21.98 -4.44,-4.06 -11.94,-6.09 -22.52,-6.09l0 0z"/>
   </g>
  </g>
 </g>
 <g id="Camada_x0020_1_2">
  <metadata id="CorelCorpID_1Corel-Layer"/>
 </g>
</svg>
