<?xml version="1.0" encoding="UTF-8"?>
<!DOCTYPE svg PUBLIC "-//W3C//DTD SVG 1.1//EN" "http://www.w3.org/Graphics/SVG/1.1/DTD/svg11.dtd">
<!-- Creator: CorelDRAW 2026 -->
<svg xmlns="http://www.w3.org/2000/svg" xml:space="preserve" width="1080px" height="1080px" version="1.1" style="shape-rendering:geometricPrecision; text-rendering:geometricPrecision; image-rendering:optimizeQuality; fill-rule:evenodd; clip-rule:evenodd"
viewBox="0 0 1080 1080"
 xmlns:xlink="http://www.w3.org/1999/xlink"
 xmlns:xodm="http://www.corel.com/coreldraw/odm/2003">
 <defs>
  <style type="text/css">
   <![CDATA[
    .fil0 {fill:black;fill-rule:nonzero}
    .fil1 {fill:#F90101;fill-rule:nonzero}
   ]]>
  </style>
 </defs>
 <g id="Camada_x0020_1">
  <metadata id="CorelCorpID_0Corel-Layer"/>
  <path class="fil0" d="M217.25 444.4l0.71 0.67 0 32.84c0,0.99 -5.39,1.94 -16.21,2.74 0.47,-1.65 2.03,-2.79 4.73,-3.45l2.74 0.71 1.27 0 0 -1.28 -7.37 0 0 1.28 -4.68 0 0.66 3.31c-6.71,4.82 -10.06,8.64 -10.06,11.48l-0.57 3.36 0 4.01c0,9.12 11.39,15.64 34.17,19.52l0.56 0.52 -0.56 0.71 0 1.37 2.64 -2.08c23.16,5.01 39.7,10.16 49.58,15.5l12.19 10.11 0 0.57 -2.08 0 0 -1.23c-1.75,0 -2.65,-0.94 -2.65,-2.79l-2.78 0 4.72 4.02 0.71 4.02 -1.37 0 0 1.37 0.66 0 2.08 -0.66 -2.08 4.67 6.1 0c0,1.42 0.66,2.09 1.93,2.09 0,1.32 0.95,3.07 2.79,5.29 2.18,0.8 3.31,2.83 3.31,6.05l-2.08 1.41 -6.66 0c0,0.81 -1.09,1.7 -3.31,2.6l-4.73 0 0 1.42c2.13,0 3.74,0.43 4.73,1.37 0,-0.94 0.9,-1.37 2.65,-1.37l2.08 -2.08c0.52,2.32 1.18,3.45 1.93,3.45l0.66 -0.71 0.72 0.71c0.09,-3.12 1.41,-4.72 4.01,-4.72l0.71 0.56 0 4.73 -0.71 0.66c0,0.95 -1.32,1.42 -4.01,1.42 0,2.22 -0.48,3.31 -1.38,3.31 -1.74,0 -2.64,1.08 -2.64,3.3l-5.39 0 0 0.71 0.66 3.31 0.71 0 0 -1.23 -0.71 -0.71 5.44 -2.08 3.31 0 0 1.42 1.37 0 2.64 -1.42 0 -4.01 1.37 0c-0.42,8.03 -1.37,14.55 -2.74,19.52l-0.71 -0.67 -1.23 0 0 0.67 1.23 0c-0.56,5.38 -1.89,8.03 -4.02,8.03l-1.93 -0.66 0 1.37 2.64 0.71c-1.04,2.64 -2.78,5.34 -5.29,8.03l-0.66 -0.71 -0.71 0c0,2.84 -1.32,5.06 -4.02,6.67l-0.71 -0.57 -0.66 0 1.37 -4.73 -7.46 -6.1 1.37 0 0 -0.66 -1.37 -1.41 -3.31 0.7 0 -5.95c0,-1.09 0.9,-1.8 2.74,-2.08l0 -0.71c0,-0.99 -1.8,-1.65 -5.39,-1.93l1.37 1.93 0 4.73 -0.66 0 -2.08 -0.71 1.37 2.08 0 1.42 -2.79 2.59 -0.52 -0.66 -0.7 0.66 -1.37 0 -0.71 -0.66 -0.71 0c0,-3.16 1.37,-4.72 4.01,-4.72l0 -0.71 -4.01 -2.6 -4.02 0 0.71 0.66 0 0.71 -1.37 1.23c-3.26,0 -5.01,-0.61 -5.29,-1.94l0.7 -0.66 -1.37 -1.42c0,-1.75 1.8,-2.6 5.39,-2.6l0.57 -0.71 0 -0.7c-1.94,0 -3.31,-1.09 -4.02,-3.31 1.85,-3.12 2.74,-7.14 2.74,-12.05l3.36 0.71c0.9,-2.32 1.79,-3.46 2.6,-3.46l0 -0.56 -1.23 -1.37 -2.08 0 -1.94 1.37 -0.71 0 -4.68 -6.1 0 -0.71 0.67 0 4.72 0.71c0,-1.37 0.9,-2.08 2.65,-2.08l0 -0.56 0.66 0.56 2.65 0 1.37 -1.23 0 -1.41c-2.37,0 -4.21,-0.85 -5.39,-2.6l-1.94 0 -2.08 1.23 -10.11 0 -1.94 -1.23 -2.6 0.66c-3.16,-1.09 -4.72,-2.03 -4.72,-2.74l0 -0.71c0.99,0 2.36,-0.85 4.01,-2.6 -2.22,-2.03 -5.1,-3.17 -8.74,-3.35l0 0.7 -4.02 -1.37 -0.66 0.67 -6.8 -8.04c-0.9,2.69 -2.65,4.02 -5.25,4.02 0,1.51 -1.56,2.6 -4.72,3.35l0 1.37 -2.74 0c-41.12,-6.94 -61.63,-25.52 -61.63,-55.81l0 -2.6c0,-31.14 20.13,-49.43 60.35,-55l12.05 -0.67zm8.03 0c19.28,0 36.53,5.58 51.66,16.73 7.18,7.42 10.77,12.34 10.77,14.84 2.32,0 5.2,8.7 8.6,26.18l0 1.89 -22.68 2.79 0 -0.71 -18.86 1.94c-1.75,-10.87 -4.87,-18.01 -9.4,-21.46 -3.69,-3.12 -10.64,-5.57 -20.8,-7.32l0 -1.37 0.71 -4.02 -0.71 -6.66 0 -21.46 0.71 -0.7 0 -0.67zm16.78 5.39l0 0.71 2.03 0.52 0 -1.23 -2.03 0zm14.08 4.73l2.65 -2.08 -0.71 0 -1.94 2.08zm-80.57 4.67l1.42 1.28 0.66 0 1.41 -1.28 0 -1.37 -3.49 1.37zm-19.38 10.69l1.37 1.37 0.57 0 0 -1.37 -1.94 0zm117.44 0l0 1.37 -4.02 0 0 1.27 3.31 0 3.31 -0.57 1.42 1.94 1.89 -0.71 0 -1.93 -1.23 -1.37 -4.68 0zm-100 1.37l0 1.27c2.22,0 3.36,0.43 3.36,1.37l1.37 0 -2.08 -2.64 -2.65 0zm91.26 5.38l0 1.28 2.64 0 0 -1.28 -2.64 0zm24.76 9.31l0 3.45 2.08 1.23 0 -0.66 -1.37 -4.02 -0.71 0zm-113.37 26.14l0 0.71 8.03 1.37 -4.58 -2.75 -3.45 0.67zm13.42 4.72l0 1.37 2.08 0 0 -1.37 -2.08 0zm30.86 6.81l0 0.66 0.71 3.35c-0.9,0 -1.8,1.33 -2.65,4.02l-3.45 0 0.71 2.6 -0.71 2.08c4.54,-3.31 6.81,-6.71 6.81,-10.11l0 -2.6 -1.42 0zm-61.72 1.94l2.08 2.07 0.66 -2.07 -0.66 -0.71 -2.08 0.71zm9.4 0.66l0 2.64 1.37 1.37 0 -4.01 -1.37 0zm7.33 6.66l-0.52 0.66 0 0.71 3.31 0 0 -0.71 -2.79 -0.66zm18.85 0l-0.71 0.66 0 0.71 2.79 0 0 -0.71 -2.08 -0.66zm38.9 4.73l2.64 0 0 -1.28 -1.27 0 -1.37 1.28zm-69.8 -0.57l1.42 1.23 1.37 0 0 -1.23 -2.79 0zm106.75 1.23l1.28 3.31 -2.65 1.41 -0.71 -0.71 -2.08 0 -1.22 1.37 0 0.71 1.22 1.94 0 2.79 -1.22 2.6 -3.31 0 -2.08 -1.37 0 2.79 -4.73 0 0 0.66 3.31 1.27 2.08 -1.93 0.71 0 1.94 1.37c0.47,-1.85 1.79,-2.79 4.01,-2.79l0 3.35 -1.93 0 0 2.08 2.64 2.6 1.37 -1.23 0 -4.72 1.37 -1.37 0.57 0 2.08 0.71 0 -4.73 -4.73 0 0 -0.71 0.71 -3.31 0.71 0 3.31 0.71c0,-1.84 0.47,-2.79 1.37,-2.79 -0.38,-1.46 -1.7,-2.78 -4.02,-4.01zm-57.04 1.37l0 3.35 0.71 0 0 -3.35 -0.71 0zm27.41 2.64l-1.23 1.37 0 1.42 1.94 0 0 -2.79 -0.71 0zm-30.72 5.39l-5.38 -1.37 2.6 4.02 2.78 0c0,-1.09 0.85,-1.75 2.65,-1.94l0 -1.37 1.94 -1.28 -0.57 -2.08 -4.02 4.02zm64.37 -0.66l-0.66 2.08 1.94 0 0 -2.08 -1.28 0zm13.42 0.66l0.57 0c1.84,0.95 2.79,2.27 2.79,4.02l-3.36 0 -1.37 -1.37 0 -1.23 1.37 -1.42zm-52.31 1.42l-0.71 0.66 0 0.57 1.93 0 -1.22 -1.23zm42.91 2.6l0 1.42 4.01 -0.71 0 -0.71 -4.01 0zm-59.69 1.42l1.94 0 2.08 1.93 0 2.08 -0.66 0 -3.36 -1.42 0 -2.59zm56.24 1.37l0 1.22 2.79 0.71 0 -1.37 -2.79 -0.56zm4.16 2.64l1.22 1.37 0.71 0 -1.41 -1.37 -0.52 0zm-63.85 0l4.73 0 2.08 1.94 0 3.45c-8.51,-1.56 -12.76,-2.93 -12.76,-4.02l5.95 0 0 -1.37zm36.96 2.6l-0.67 2.08 1.37 0 1.23 -1.37 -0.66 -0.71 -1.27 0zm17.48 0.71c0,2.22 -1.18,3.31 -3.5,3.31l0 2.08 0.71 0 6.1 -4.68 -3.31 -0.71zm12.71 2.08l0 1.23 2.65 0.71 2.08 0 0 -0.71c-2.13,0 -3.69,-0.43 -4.73,-1.23zm-7.46 4.02l0 1.23 3.45 0 -1.37 -1.23 -2.08 0zm1.37 8.03l0 1.37 -3.31 0c-0.85,0.76 -3.5,1.37 -8.03,1.94l-0.71 -0.71 0 1.42 6.09 0c0,2.64 0.43,4.02 1.28,4.02l1.37 0 -1.37 -2.09 0 -0.56 1.37 -1.37 4.73 0 1.89 1.37 0 -2.79 -0.52 -0.66 0 -0.57 1.22 -1.37 -4.01 0zm-95.23 1.37l0.67 0.57 0 0.66 -1.38 2.08 0 0.71c1.85,0 2.79,2.22 2.79,6.66 1.94,4.59 4.11,8.18 6.62,10.78l0 0.56 -0.66 -0.56 -0.57 0 0 1.23 0.57 0 0.66 -0.67c8.51,4.87 14.79,7.61 18.85,8.18l0 1.94 1.37 0 0 -1.42 4.02 0c2.65,0.28 4.02,0.99 4.02,2.08l0 5.43c0,0.81 -0.71,1.23 -2.08,1.23l-0.71 -0.56 -1.23 0 0 0.56c1.75,0.29 2.65,1.42 2.65,3.45l-2.08 3.31c1.37,0 2.08,0.47 2.08,1.42l0 1.23 -0.71 3.3 -0.71 -0.52 -0.66 0 -0.57 0.52 0 2.79c1.94,0 3.26,0.9 4.02,2.65l0 4.01c0,0.9 -0.95,1.38 -2.79,1.38l2.08 2.64 -1.37 1.37 -3.31 0c0,-1.04 -1.61,-2.83 -4.72,-5.39l0 -1.27 -4.02 0 0 0.57 1.94 0 0 3.45 -5.25 0c-2.31,-3.6 -3.88,-5.39 -4.73,-5.39l-0.7 0.71 0 0.66c1.32,0 1.93,1.37 1.93,4.02l-0.52 0 -2.79 0.56c-8.93,-0.99 -17.67,-4.11 -26.18,-9.26 0.76,-3.17 1.89,-4.72 3.5,-4.72l0 -2.08c-2.41,0.37 -4.44,1.46 -6.09,3.3l-2.65 0c-10.07,-7.27 -17.01,-17.53 -20.89,-30.71l-1.28 -8.18 1.28 -1.23 0 -0.71 -0.57 0.71 -0.71 0c-0.89,-2.03 -1.37,-4.96 -1.37,-8.74l1.37 -1.37 0.71 0 0.57 0.71 0.66 -0.71 2.08 0 4.02 0.71 4.02 -1.42 9.4 0 0 2.08 0.71 0c0.19,-1.84 0.85,-2.74 1.94,-2.74l12.05 0 4.72 -0.57zm-15.4 4.02l1.27 1.23 1.37 -1.23 0 -1.37 -1.37 0 -1.27 1.37zm121.45 -1.37l0 1.37 0.66 0 1.28 -1.37 -1.94 0zm-6.1 2.6l1.37 2.79 1.94 -2.79 -3.31 0zm-139.55 0.71l0 4.72 0.66 0c0,-0.94 0.71,-1.42 2.08,-1.42l0 -0.52 -1.37 -2.78 -1.37 0zm14.08 0.71l-0.66 0.66 0 1.41 2.08 0 0 -0.7 -1.42 -1.37zm18.86 1.37l0 1.22c1.75,0 2.65,0.95 2.65,2.79l2.07 0 0 -1.37 -1.41 -1.42 -0.66 0 0.66 -0.52 0 -2.07 -2.08 0 -1.23 1.37zm-24.76 2.64l3.3 0 0 -1.42 -2.07 0 -1.23 1.42zm122.63 1.37l0 1.23 3.36 0 0 -4.02c-0.86,0 -1.28,0.95 -1.28,2.79l-2.08 0zm-107.27 0l1.37 1.23 1.93 0 -0.71 -2.6 -2.59 1.37zm96.64 -1.37l1.23 1.37 0.71 0 -1.42 -1.37 -0.52 0zm-102.74 1.37l0 2.65 1.37 0 0 -2.65 -1.37 0zm97.3 2.65l0 0.66c0,1.32 1.61,1.94 4.73,1.94 0,1.84 0.42,2.79 1.23,2.79l1.42 0 1.37 -1.37 -7.47 -4.02 -1.28 0zm19.43 0l0 2.6 1.37 0 0 -2.6 -1.37 0zm-127.41 2.6l1.94 0 0 -1.23 -0.52 0 -1.42 1.23zm133.45 -1.23l0 1.23 1.42 1.42 0.57 0 0 -2.65 -1.99 0zm-11.34 1.23l0 0.71c0,0.8 1.37,1.98 4.02,3.45l0 -2.74c-2.32,0 -3.45,-0.48 -3.45,-1.42l-0.57 0zm13.33 2.08l0 2.64 0.66 0 1.37 -1.27 -2.03 -1.37zm-17.49 2.08l0 1.23 2.79 1.41 0.71 0 0 -1.41 -3.5 -1.23zm-93.85 1.23l0 1.41 1.37 2.6 1.42 0 0 -1.23 -1.42 -2.78 -1.37 0zm105.39 1.41l0 0.67 1.89 0.7 0 -1.37 -1.89 0zm-126.84 2.6l0 0.71 1.37 0 0 -1.94 -1.37 1.23zm124.76 6.81l0 0.71 1.37 0 0 0.52 3.3 -2.6c2.23,0 3.36,-1.14 3.36,-3.36l0.66 0c0,-1.37 -0.85,-2.08 -2.65,-2.08l0 -1.23 -0.66 0c-0.94,0 -1.41,2.22 -1.41,6.67l-3.97 1.37zm-113.28 -5.39l0.57 4.02 1.37 0 0 -0.71 -0.71 -3.31 -1.23 0zm18.71 0c0,1.37 -0.66,2.08 -1.94,2.08l0 1.23 3.31 -3.31 -1.37 0zm61.72 -0.71c2.79,0 5.44,1.09 8.04,3.31 4.44,0 6.66,1.61 6.66,4.72l2.08 0.71 0.66 -0.71 1.42 2.08 -0.71 0.71 0 0.67c2.69,2.12 4.02,3.87 4.02,5.29l1.22 0c0,-1.85 1.8,-2.98 5.44,-3.36l0.66 0.71 -0.66 0.71 0 1.23 0.66 0.71c-0.19,2.27 -0.8,3.45 -1.94,3.45l0 2.64c0,2.18 -1.13,3.31 -3.45,3.31 0,1 1.14,1.7 3.45,2.08l0 -0.71 0.57 -0.71 0.71 0 0 -4.67 1.37 0 0 -0.71 -0.71 -0.66c0.28,-2.23 1.84,-3.36 4.73,-3.36 0.75,3.17 1.6,4.73 2.6,4.73l0 0.7c-9.22,7.09 -16.35,10.64 -21.46,10.64l0 -1.23 -7.32 1.23 0 -0.57 0.7 -2.08 -0.7 0 -1.94 0.71 0 0.71 1.23 1.93 0 1.38c0,1.93 -8.23,3.26 -24.77,4.01l-0.71 -0.71 0 -8.03 0.71 -0.66 0 -0.71 3.31 0.71 1.42 0c0.9,0 1.37,-1.13 1.37,-3.36l1.94 -2.08 0 -1.22 -0.71 0 -0.66 0.7 -0.57 0c0,-2.22 -0.94,-4.96 -2.79,-8.17l0.71 -1.94 -4.73 -4.02 0 -4.01c0,-0.99 1.14,-1.7 3.36,-2.08l3.45 0.71c0,-1.75 2.22,-2.65 6.66,-2.65l0 4.02 -6.66 0 1.94 4.01 0.71 0 0 -1.37 5.38 0 -0.7 -0.71 0 -0.7 1.41 0 1.94 1.41 0.66 -0.71 0.71 4.02 1.23 0 0 -1.94 -0.57 -3.3 0.57 -0.71c-1.28,0 -2.17,-1.09 -2.6,-3.31l-1.94 0 0 -0.71 2.6 -2.08zm5.44 5.39l0.66 1.94 1.23 -1.23 0 -2.08 -0.66 0 -1.23 1.37zm-61.77 0.71c0,0.85 0.85,1.23 2.65,1.23l-0.57 0.7 0 0.71 2.6 1.37 0 -0.71 -2.03 -3.3 -2.65 0zm24.76 3.3l0 2.09 2.08 0 0 -0.67 -1.37 -1.42 -0.71 0zm39.61 2.09l0 1.27 3.3 0 -1.23 -1.27 -2.07 0zm30.85 0l0 1.27 1.99 0 0 -1.27 -1.99 0zm-7.98 0.56l2.6 0 0 2.79 -1.94 0.66 -0.66 -0.66 0 -2.79zm-91.96 3.45l0.7 0 0.71 -0.66 0.66 0 1.94 1.94 0.71 0 0 -0.71 -0.71 -1.94 -2.6 0 -1.41 1.37zm42.9 -2.08l1.42 0 0.66 2.08 -0.66 1.94 -1.42 0 0 -4.02zm-57.7 2.65l0 0.71 2.74 0 -0.66 -0.71 0 -0.57 -2.08 0.57zm35.59 0l0 0.71 1.37 1.37 0.71 0 1.94 -0.71 0 -0.66 -3.36 -0.71 -0.66 0zm-7.37 0.71l0 2.03 2.64 1.99 1.37 0 0 -2.65 -0.66 0 -0.71 0.66c-1.27,0 -1.94,-0.66 -1.94,-2.03l-0.7 0zm31.56 2.03l3.36 0.71 0 5.24 -4.02 0 -1.42 -1.22 0 -3.31c0,-0.95 0.71,-1.42 2.08,-1.42zm34.93 0.71c0,1.32 -0.71,1.94 -2.08,1.94l0 0.71 2.6 0 0.71 -2.65 -1.23 0zm-7.52 0.71l0 3.31 4.73 -0.67 0 -0.7c-2.22,0 -3.31,-0.67 -3.31,-1.94l-1.42 0zm-71.69 0.57l1.37 1.37 0.57 0 -1.23 -1.37 -0.71 0zm57.75 1.37c0.62,1.74 1.28,2.59 1.94,2.59l1.37 0 0 -0.52 -2.08 -2.07 -1.23 0zm-52.36 2.59l-0.71 0.71 0 2.08 0.71 -0.71 0.71 0 2.6 0.71 -3.31 -2.79zm22.16 2.79l0 2.65 1.23 1.37 0.71 -0.71 1.37 0 0 1.42 0.71 0 0 -1.42 -4.02 -3.31zm48.87 2.65l4.02 0 0 -1.42 -1.23 -1.23 -0.71 0 -2.08 2.65zm-81.8 -1.94l0 0.52c3.11,0 4.68,1.42 4.68,4.16l1.41 0 0 -1.37 0.66 -0.71 -0.66 -0.66 -5.43 -1.94 -0.66 0zm23.53 0.52l0 2.79 1.23 0 0 -1.37 -1.23 -1.42zm32.09 3.5l0 3.31 3.35 -1.38c0,-1.03 -1.13,-1.65 -3.35,-1.93zm-4.02 4.68l0 0.56 4.73 0.71 -0.71 -1.93 -4.02 0.66zm-28.78 0l0 0.56 -0.71 0.71 0 0.66 -2.08 -0.66 0 -0.71 2.79 -0.56zm2.65 1.27l2.74 0 0 1.37 -0.66 0 -2.08 -0.71 0 -0.66zm114.36 -197.16l0 2.08 0.66 0c0,-1.13 1,-1.79 2.93,-2.08l1.37 2.08 0 1.37c-1.37,0 -2.07,0.76 -2.07,2.22l-2.89 1.37 -2.79 -0.66c-0.89,2.13 -1.84,3.26 -2.78,3.45l-0.66 -0.71 -0.86 0 -2.08 2.79 4.31 0.8 0 4.87c-1.94,0 -2.89,0.71 -2.89,2.08l-2.79 0 0 -7.75 0.71 -6.24 -0.71 -5 0.71 -0.67 9.83 0zm9.12 0l23.96 0 1.37 1.37 0 18.95 -1.37 0c0,-2.74 -0.47,-4.11 -1.37,-4.11l-1.42 1.37 0 1.37c0,0.95 1.42,1.89 4.16,2.93l0 21.74 -4.82 -0.71 -0.71 0 0 0.71 5.53 2.22 0 8.41 -2.08 0 0 1.42c1.42,0 2.08,0.43 2.08,1.37l0 33.79c-1.84,0 -2.74,1.66 -2.74,4.96l0.66 0.71 -2.08 1.37 -2.07 0c-0.9,0 -1.37,-1.18 -1.37,-3.59l-0.86 0c0,2.41 -0.66,3.59 -2.08,3.59l-3.44 0 -1.38 -1.37 0 -2.93c1.38,0 2.08,-0.47 2.08,-1.37l-0.7 -3.45 -0.67 0.67 -0.71 0 0.71 0.7 0 2.08 -1.56 1.37 -2.08 0c-2.26,-0.8 -3.45,-2.88 -3.45,-6.24l0 -0.8 2.08 -0.71 -1.37 -4.15c1.85,0 2.74,-1.19 2.74,-3.6l5.72 0 0 -2.74 4.11 0 0.86 -0.71 0.7 0c0,-1.37 -0.99,-2.08 -2.93,-2.08l-0.71 -4.3 -0.66 0.71 -0.71 0 0.71 0.66 0 1.56 -2.08 2.08 -2.93 0.66 0 2.08 -0.66 -0.66 -1.42 0 -1.37 4.25 -2.74 -1.51 0 1.51 -7.09 0 0 -2.88 0.71 -3.45c-1.37,0 -2.08,-0.47 -2.08,-1.42l0 -2.88 2.08 -0.71c0.81,3.31 2.7,5.01 5.67,5.01l0 -0.71c-2.41,-1.37 -3.59,-3.02 -3.59,-5.01l1.37 -1.37 0.71 0.71 3.59 0 0 -4.16c0,-1.04 0.66,-1.51 2.08,-1.51l0 -1.42c-2.79,0 -4.16,-1.37 -4.16,-4.11l-0.7 0.66 -0.81 0 -6.24 -1.37 -0.7 0.71 0 -1.42c1.37,0 2.07,-0.52 2.07,-1.51l0 -2.08 -1.37 0 0 1.37 -3.59 -0.66 -1.42 0 0 0.66 1.42 0 0 1.42 -2.79 0.8 0 -3.59 2.08 0 0 -2.79 -0.71 -0.66 0 -0.71c1.85,-0.8 2.79,-2.26 2.79,-4.3l2.22 0 2.08 2.08 -1.37 1.56 1.37 4.12 1.37 0 0 -2.75 0.71 0 1.37 1.38 -0.71 0.7 0 0.67 1.42 0 4.3 -1.37 0 -1.38c-2.69,0 -5.76,-1.65 -9.17,-5.01l0 -5.67 -1.37 0c0,1.14 -0.99,2.55 -2.93,4.3l-0.66 -0.71 -3.49 0 1.41 4.87c0,1.47 -1.89,3.36 -5.67,5.67l0 0.71 -2.79 0 0 -5.53 1.37 -5.01 -1.37 0 0 -2.79 1.37 0 0 2.08c3.55,0 5.44,-0.89 5.68,-2.74l0 -0.85 -0.67 0 0 1.51c-3.78,-0.42 -5.67,-2.07 -5.67,-4.96l2.74 -2.08 4.3 0 -0.7 3.45 0 1.42 0.7 0c0.1,-1.84 0.57,-2.79 1.37,-2.79l-1.37 -6.38 1.37 -1.37 0 -0.7c-1.37,0 -2.07,-0.43 -2.07,-1.38l-0.67 0.71 -0.7 0 -2.23 -2.08 0 -0.71c2.41,0 3.6,-0.94 3.6,-2.93l-0.67 -0.66 0.67 -0.71 0.7 0.71 2.08 0 3.6 -0.71 0.7 4.3 0.71 0c1.56,-1.46 2.93,-2.22 4.11,-2.22l0 -1.37 -2.74 -0.71 2.08 -6.38c-1.23,0 -2.12,-1.37 -2.79,-4.11l1.37 -2.08 3.5 1.37 0.81 -0.71 -1.52 -4.29 0 -0.67zm34.6 0l16.91 0 1.37 1.37 -1.37 1.37 0 2.22 0.71 0c1.37,0 2.08,-1.65 2.08,-4.96l11.86 0 0.71 0.67 0.85 -0.67 9.12 0c0.29,2.32 1,3.45 2.08,3.45l0.71 -0.71 0.66 0 -0.66 -0.66 0 -2.08 17.58 0 0 2.08 0.66 -0.71 0.71 0.71 1.37 0 0 -0.71 -0.66 -0.7 0 -0.67 25.33 0 1.51 1.37 0 33.79 -1.51 1.37 -18.29 0 0 -2.08c-0.89,0 -1.37,0.71 -1.37,2.08l-40.17 0 -2.08 -1.37 -2.08 1.37 -26.03 0 -1.52 -1.37 0 -5.53 0.71 -0.85 -0.71 -0.66 0 -21.74 1.52 0 0 -2.08 -1.52 0 0 -2.93 1.52 -1.37zm-24.63 4.96l-1.51 2.79 1.51 0 1.38 -1.37 -1.38 -1.42zm9.13 1.42c0.94,3.69 1.84,5.53 2.78,5.53l2.08 -2.08c-0.94,0 -1.37,-1.18 -1.37,-3.45l-0.71 -0.71 -0.71 0 -2.07 0.71zm20.36 2.74l2.08 1.37 0.71 -2.03 -0.71 -0.71 -0.71 0 -1.37 1.37zm-34.45 2.79l0.66 0 2.08 -2.08 -0.71 0 -2.03 2.08zm92.86 -2.08c0,1.94 -1.37,2.88 -4.15,2.88l-0.67 -0.8 -0.7 2.88 4.15 0 2.08 -4.3 0 -0.66 -0.71 0zm-34.45 2.08l-0.71 2.88 1.37 0 1.42 -1.37 -2.08 -1.51zm-52.74 1.51l0 3.45 -0.71 0 -1.51 -1.37 0.66 -0.71 -2.08 0 0 4.16 -1.37 0 0 1.37 1.37 0c0,-1.65 2.13,-2.55 6.38,-2.74 1.14,-1.84 2.27,-2.79 3.45,-2.79l0 -1.37 -6.19 0zm37.24 1.37l0 2.79 1.37 -1.37 0 -1.42 -1.37 0zm41.54 3.45l2.08 0 0 -2.03 -2.08 2.03zm-50.71 1.42l-0.66 0.66 0 0.85 0.66 0.71 0.71 0 0.71 -0.71 2.08 2.79 0 4.16 0.81 0 2.07 -0.71 0 -0.71c-1.27,-3.02 -3.4,-5.38 -6.38,-7.04zm-35.16 3.59l0 0.71 1.42 0 0.66 -2.08 -0.66 0 -1.42 1.37zm-11.34 1.38l0 1.41 0.85 0 3.45 -0.71 0 -2.08 -4.3 1.38zm21.88 0l0.66 3.49 -1.37 0 0 2.17 0.71 0 6.38 -2.88 0.66 0 0 -0.71 -3.44 -0.66 -2.23 0 0 -1.41 -1.37 0zm-16.92 0.7l0 2.08 1.42 0 0 -2.08 -1.42 0zm7.09 2.79l0 0.66 1.37 0 1.37 -1.37 -0.66 -0.71 -0.71 0 -1.37 1.42zm57.75 -0.71l0 1.37 1.37 0 1.37 -1.37 -2.74 0zm-21.22 1.37l0 1.51 1.42 0 1.51 -1.51 -2.93 0zm38.09 0l-1.37 4.3 0.66 0 2.08 -2.08 0 -2.22 -1.37 0zm-75.99 2.22l0 2.08 1.37 0 0 -2.08 -1.37 0zm42.91 0.71l0 2.74 0.66 0 0.71 -2.07 -0.71 -0.67 -0.66 0zm42.91 1.37l0 1.37 1.37 1.42 0 -2.79 -1.37 0zm-73.96 5.67l-4.11 0 -1.56 -1.37 -2.08 0.66 0 2.79 3.64 0.71 0.67 -0.71 7.08 2.08 0 -0.71c0,-0.89 -0.75,-1.37 -2.22,-1.37l0 -0.71 2.89 -2.74 4.15 0 0.71 -2.22 -0.71 -0.71 -1.37 0 -7.09 4.3zm-5.67 9.84l-0.66 0.7 0 0.67 2.22 2.07 0.67 -0.66 1.41 0c2.27,0 3.45,0.95 3.45,2.88l2.22 0 0 -0.8c-1.93,-2.03 -5.05,-3.68 -9.31,-4.86zm9.98 5.66l2.78 0 -1.37 -1.51 -1.41 1.51zm-38.76 -0.8l1.37 0 0.71 3.59 -0.71 4.82 -1.37 -1.37 0 -7.04zm31.01 0.8l0 1.42c0.94,0 1.41,0.9 1.41,2.74l1.37 0 -2.08 -3.45 0 -0.71 -0.7 0zm-23.96 1.42c1.03,0 2.4,2.32 4.15,7.04l0.71 0 0.85 -3.59c-1.51,0 -2.22,-0.47 -2.22,-1.37l3.59 -0.71 3.45 2.08 0.71 0 0 2.08 -1.42 1.51 -3.44 0c0,2.13 -0.71,3.74 -2.23,4.82l0.71 0 -0.71 0.71 0 0.71 1.56 4.3 -2.22 1.37 -2.08 -2.08 -0.71 0 -1.37 1.37c0,3.6 1.61,5.72 4.82,6.38l0 0.71 0.71 -0.71 0.85 0 1.37 1.38 0 4.86c-2.41,0 -3.59,0.52 -3.59,1.51l0 0.71c0.81,1.85 2.46,2.74 4.96,2.74 0,-2.74 0.48,-4.16 1.37,-4.16l0 0.71 2.08 -0.71 0 -0.8c0,-0.94 -0.66,-1.37 -2.08,-1.37l-0.66 -0.71 0 -2.08 1.37 -2.08c3.78,0 5.67,1.61 5.67,4.87 -0.89,0 -1.37,1.18 -1.37,3.59l-1.51 0 0 2.08c6.19,4.3 9.26,6.9 9.26,7.75 0,0.9 1.14,1.37 3.45,1.37l0.71 0.71 0 3.59 -0.71 3.45 0.71 0 3.6 -1.37 0.7 0.67 0 -1.37c0,-0.9 -0.99,-1.38 -2.93,-1.38 0,-1.04 1.23,-1.51 3.6,-1.51l0 -0.71 4.15 1.51 0 -0.8 0.71 -2.79 1.37 0 0 16.21 -0.66 4.97 0.66 6.23 0 46.5c0,1.71 -0.89,3.6 -2.74,5.72l0 1.37 0.66 -0.71 2.08 0 0 0.71 -0.66 0.71 0.66 3.45 0 9.12 -4.16 4.3 -3.44 0 -2.23 -1.37 0.71 -0.71 0 -2.22 -4.16 1.52 0 1.41 -4.3 0 0 -2.93 2.93 -1.37 0.67 0 0 -0.71 -1.38 -1.37 -0.85 0c0,1.18 -1.37,2.65 -4.11,4.3l-4.3 -0.85c0.52,-3.21 1.28,-4.82 2.22,-4.82l3.45 0c0,-1.41 1.18,-2.08 3.59,-2.08l2.79 -4.3 0 -0.71 -2.79 0 0 -4.15 2.79 0 4.11 3.49 1.56 0 0 -0.71c-2.41,0 -3.64,-1.41 -3.64,-4.3l0 -0.71c1.99,0 3.41,-1.13 4.31,-3.45l0.7 0 0 1.37 1.37 0 0 -2.03 -1.37 -5.72 -1.37 0 -2.22 4.31 1.52 1.41 -7.76 5.53 -2.22 -0.71 0 0.71c0,2.13 -1.84,3.55 -5.53,4.3 -1.03,-2.12 -2.45,-3.3 -4.3,-3.49l0 -2.23 1.37 -1.37 0.71 0 3.59 0.71 -0.66 -0.71 0 -0.71 1.37 -4.11 -3.59 0 0.81 0.67 0 1.41 -2.23 0 -1.37 -2.93 0 -0.71 -0.71 0c0,3.36 -0.42,5.01 -1.37,5.01l-1.37 0 -2.22 -0.71 0 0.71 -1.37 4.16 -0.71 -0.71 -0.71 0 -1.37 1.52c3.31,0 5.01,0.94 5.01,2.78l0.67 3.45 -5.68 0.71 0.71 0.66 0 5.01c2.84,0 4.3,0.48 4.3,1.37l0 4.3 -4.3 0c-0.85,0 -1.51,-1.41 -2.08,-4.3 -3.31,0 -5.01,-0.47 -5.01,-1.37l0 -5.01 1.42 0 0 -0.66c-1.84,0 -2.79,-0.47 -2.79,-1.42l0 -12.57 4.97 -4.3 -4.97 0 0 -0.71 1.37 -2.03 0 -2.08 -1.37 -2.22 0 -41.54c0,-0.94 0.71,-1.42 2.08,-1.42l0 -0.66c-1.37,0 -2.08,-0.47 -2.08,-1.37l0 -15.55 1.37 -1.37 0.71 0 0.71 0.71 0.66 0 0 -0.71 -3.45 -3.59 0 -27.41 1.37 0 1.42 1.37 -0.71 0 0.71 2.22 1.52 0 0 -3.59c0,-0.94 1.37,-1.37 4.15,-1.37l0 -0.71 -5.01 -1.37 0 -1.56 0.86 -0.66 0 -0.71 -0.86 -0.71c1.75,-0.8 2.98,-2.17 3.6,-4.11zm26.74 3.45l0 2.08 1.37 0 -0.71 -2.08 -0.66 0zm1.37 3.59c0,2.42 -0.66,3.79 -2.08,4.16l-2.74 -0.71 -5.01 0.71 0 2.08 9.83 -2.08 1.37 -1.37 0 -1.42 -1.37 -1.37zm18.29 12.62c2.93,0 5.06,2.08 6.38,6.34l-0.71 0.7 1.37 0 0.71 -0.7 0.71 0.7 0.81 0 2.07 -2.08 -3.59 -3.59 0 -1.37 0.71 0 0.81 0.66 0.7 0 0.67 -0.66 3.49 0.66 5.67 0 3.45 -0.66 0 0.66 0.71 -0.66 2.22 0 2.08 0.66 3.45 -0.66 12.05 0 5.53 1.37 1.51 -1.37 0.71 0 0.66 0.66 0.71 -0.66 28.12 0 1.37 1.37 0 0.66 -0.71 0 -3.45 -0.66 -0.66 0.66 0 0.71 5.67 1.51 0.66 -2.22 1.42 0 0 12.76c-3.45,-0.47 -6,-1.65 -7.75,-3.59l-4.3 0 0 -1.37 -4.16 0c0,-1.89 -0.99,-2.79 -2.93,-2.79l0 0.71c1.14,4.21 2.32,6.34 3.59,6.34 1.42,0 2.09,0.7 2.09,2.07l0.7 0.71 0.71 0c0,-1.84 0.71,-2.78 2.22,-2.78l2.08 -1.38 4.11 2.79 1.56 0 0.66 -0.71 0.71 0 0.71 4.87 0 9.26 -0.71 0.71 0.71 0.67 0 0.7 -0.71 4.82 -5 -0.66 -1.38 1.51 -1.37 0 0 -0.85 -5 0.85 -8.42 0 -0.71 -0.85 -0.71 0.85 -4.96 0 -0.71 -0.85 -0.66 0.85 -4.16 0 -2.93 -0.85 -2.74 0.85 -5.01 0 -1.37 -1.51 -5.53 1.51 -18.43 0c-0.94,0 -1.84,-1.41 -2.79,-4.3l-0.66 0 -1.41 2.08 -2.18 -0.71 0 0.71c0,1.47 -1.18,2.22 -3.5,2.22l-4.15 0 0 -1.51 3.49 0 0 -0.71 -0.71 -0.71 0.71 -2.07 0.66 0 0.71 0.7 0.71 0 0.66 -0.7 0 -3.46c0,-0.99 -0.66,-1.51 -2.08,-1.51l-0.66 0.71 -0.71 0 -2.08 -0.71 0.71 0.71 -0.71 0.8 0 0.71 0.71 2.08 -1.41 3.45 -1.52 0 0 -8.46 0.71 -0.66 -0.71 -0.71 0 -14.79 0.71 0c1,0 1.75,1.89 2.22,5.67l0.66 0c0,-2.88 0.48,-4.77 1.42,-5.67l0 -0.71 -4.3 -4.16 0 -2.22 0.81 -0.71 -0.81 -0.66 0 -1.37zm-50 1.37l-0.66 2.22 0.66 0.66 0.86 0 1.37 -2.22 -0.71 -0.66 -1.52 0zm72.55 1.37l0 0.85 2.07 -0.85 0 -1.37 -0.66 0 -1.41 1.37zm2.92 -0.71l0 1.56 0.71 0 2.08 -0.85 0 -1.37 -0.71 0 -2.08 0.66zm-39.46 2.22l1.37 1.42 1.42 0 0 -0.71 -0.71 -2.22 -0.71 0 -1.37 1.51zm67.58 0c1.37,0 3.03,0.95 4.97,2.79 0,-1.37 0.7,-2.08 2.07,-2.08 0,0.76 1.61,1.9 4.87,3.45l0 -1.37c-2.22,0 -4.3,-1.41 -6.24,-4.3l-4.3 0 -1.37 1.51zm-73.96 1.42l0 0.67 0.71 2.07 2.74 0 0 -1.37 -2.74 -1.37 -0.71 0zm44.99 1.37l0 2.08 1.56 0 0 -0.71 -1.56 -1.37zm-13.28 1.37c0,2.6 1.19,4.49 3.46,5.68l3.63 -4.97 0 -0.71 -0.71 0c0,0.95 -0.99,1.42 -2.92,1.42l0 1.37 -0.67 0 0 -1.37 -1.42 -1.42 -1.37 0zm-59.11 2.79l-0.71 0.8 0 2.09 2.08 -2.09 -0.67 -0.8 -0.7 0zm92.9 0l0 1.51 3.45 0 0 -1.51 -0.66 0.8 -0.71 0 -2.08 -0.8zm-22.58 1.51l0 0.71 0.7 2.08 0.71 0 1.51 -1.41 -2.92 -1.38zm36.71 1.38l0.67 2.78 1.41 0 1.37 -1.37 -1.37 -1.41 -2.08 0zm-51.51 1.41l0 1.37 1.52 0c0,0.9 0.7,1.37 2.07,1.37l0 5.01 1.37 0 0.71 -3.59c-2.69,-2.79 -4.58,-4.16 -5.67,-4.16zm52.18 2.74l0 2.93 0.7 0 0 -2.93 -0.7 0zm13.32 1.42l0.66 3.59 2.22 -2.08 -1.51 -1.51 -1.37 0zm-53.45 1.51l1.37 2.08 -3.45 1.37c0,0.76 0.9,1.42 2.79,2.08 0,-0.75 1.14,-1.42 3.45,-2.08l0.66 0.71 -0.66 -2.79 -0.71 0.71 -1.37 0 0 -2.08 -2.08 0zm29.49 1.37l0 2.79 2.22 0.66 1.37 -4.15 -3.59 0.7zm-92.91 5.67l2.08 0 0 0.71 -3.45 0.71 0 1.37 1.37 0 0 2.74 0.71 3.64 -4.16 1.37 0 -0.7 -3.59 0.7 0 0.71 0.66 0.66 0 0.71 7.09 -1.37 0 1.37 1.37 0 0 -5.01 3.59 0 -0.66 -2.74 0.66 -2.08 4.87 0 2.22 2.08 -0.71 0.66 0 1.42 1.37 1.51 0 -2.22 1.42 0 2.74 2.93 0 0.67 -0.71 0.7 0.71 0.71 0 0.66 -0.71 3.45 1.42 0 0.66 -5.52 0.85 0.7 1.38 0 0 -0.7c-0.9,0 -1.38,-1.19 -1.38,-3.6 -2.41,-0.28 -3.59,-0.94 -3.59,-2.08l2.74 -5.67 -2.08 0 0 1.51 -2.03 0 -0.71 -0.8 -0.71 0 0.71 -3.5 0 -0.66 -1.37 0 -0.71 4.16 -0.7 -0.71 -0.81 0 -0.71 2.22 -4.82 0 0 2.75 -2.93 0 0 -1.37 1.52 0 0 -0.67 -0.67 -2.22 0.67 0c1.13,0 2.03,-1.65 2.78,-4.87l-2.78 0 -3.6 5.67zm50.66 -2.88l0 0.66 0.71 0 3.59 -0.66 0 -1.42 -0.7 0 -3.6 1.42zm50.71 -0.71l0 1.37 2.18 5.01 0.7 0 0 -4.3c-0.89,0 -1.37,-0.71 -1.37,-2.08l-1.51 0zm-18.29 7.05l0 2.07 0.67 0 2.22 -0.66 0 -0.71 -2.89 -0.7zm19.8 0c0,1.41 -0.52,2.07 -1.51,2.07l0 1.42 2.88 -1.42 0 -2.07 -1.37 0zm-96.5 5.71c0,2.27 -0.47,3.45 -1.37,3.45l-2.08 -0.71c0.9,1.14 1.37,2.79 1.37,5.01l1.37 0c0.85,0 1.52,-1.23 2.08,-3.64l-0.71 -0.66 2.79 -1.37 0 1.37 0.71 0 0 -2.78 -4.16 -0.67zm21.88 0.67l0 2.78c0.62,0 1.33,-0.94 2.08,-2.78l-2.08 0zm-3.64 4.15l0 0.71 1.42 1.37 0 -2.08 -1.42 0zm-30.14 2.93l0 1.37 2.07 0.71 0.67 -0.71 0 -3.59 -0.67 0 -2.07 2.22zm25.32 4.11l0 2.08 0.71 0 2.08 -0.66 0 -1.42 -2.79 0zm6.9 2.08l0 0.71 0.86 5.01 2.07 0c0,-2.31 1.14,-3.5 3.45,-3.5 -0.28,-1.84 -1.65,-3.26 -4.15,-4.3l-2.23 2.08zm-29.48 2.22l0 1.42 2.07 2.08 3.64 -1.41 0 -0.67 -1.56 -1.42 -3.45 0.72 -0.7 -0.72zm17.62 1.42l0 1.37 2.74 0 2.22 -2.07 0 -0.72 -0.85 0 -4.11 1.42zm11.2 3.45l-0.71 2.88 1.37 0 0 -2.88 -0.66 0zm-30.19 3.6l-0.71 0.7 0 0.67 0.71 0 0 -0.67 0.7 0.67 1.37 0 0 -0.67 -2.07 -0.7zm2.78 1.37l0 0.7 2.08 2.08 0 -0.71 -2.08 -2.07zm20.32 0l0 1.41 4.3 0.66 0 0.71c0,1.56 -0.66,3.22 -2.07,4.97l0 0.7 1.41 0c0.9,0 1.37,-0.94 1.37,-2.88l4.3 -0.71 0 -3.45 -9.31 -1.41zm-13.94 3.49l0 0.66 2.74 0 0 -1.37 -0.71 0 -2.03 0.71zm-11.39 3.59l0 1.37 1.52 0 -0.66 0.71 0 0.66 0.66 2.08 -0.66 0 -2.23 0.71 0 0.71 2.23 0c1.65,-3.26 4.67,-4.87 9.12,-4.87l0 -1.37 -6.38 1.37 -1.37 -1.37 -2.23 0zm37.38 0l-0.66 0.67 0 2.07c1.37,0 2.08,0.95 2.08,2.79l2.08 0c-1.89,-2.12 -2.79,-3.73 -2.79,-4.86l1.37 0 0 -0.67 -2.08 0zm-33.78 11.91l0 2.74 3.49 -4.15 -0.71 -0.67 -2.78 2.08zm31.71 1.37c0,2.41 -1.19,3.6 -3.6,3.6l0 0.7 5.67 0.71 0 -4.3 -2.07 -0.71zm24.66 2.08l4.16 0 2.89 2.22c0,-1.46 0.47,-2.22 1.41,-2.22l6.19 0 0 0.85 -0.66 0.67 0 0.7 0.66 0.71 0.85 0 2.79 -2.93 23.91 0 2.08 1.52 2.79 -1.52c1.56,0.57 2.55,1.52 2.89,2.93l-0.67 0.66 5.53 2.79 0 -1.42c-1.74,0 -2.93,-1.65 -3.45,-4.96l11.91 0c1.94,0 5.25,1.42 9.97,4.3l1.37 -1.37 -0.71 -0.71 0 -2.22 9.17 0 1.37 1.52 0 5.52 -4.3 6.38 0.71 0 2.88 -2.08 0.71 0 0 9.17 -0.71 0.66 0.71 0.71 0 0.66 -1.37 2.08 1.37 2.23 0 9.16 -1.37 1.37 -28.26 0 0 -0.71 2.93 -0.66 0 -0.71 -1.56 0 0 0.71 -0.66 -0.71 -2.08 0 0 2.08 -11.25 0 -3.59 -2.78 2.22 -4.26c-4.16,-0.47 -6.75,-1.18 -7.75,-2.08l-4.96 2.08 0 2.08c1.37,0 2.04,0.71 2.04,2.18l-0.67 0 0.67 0.7 0 0.71 -1.37 1.37 -9.84 0 0 -0.71c0,-0.89 0.71,-1.37 2.08,-1.37l-2.08 -2.88 -3.45 0 0 -1.42 -4.3 0c0,2.41 -1.37,3.6 -4.15,3.6l-1.52 -1.52 0 -4.82 2.22 0 -0.7 -0.71 0 -4.3 0.7 -0.71 0 -0.66c-1.55,-1.37 -3.02,-2.08 -4.3,-2.08l0 -0.71 0.71 -0.66 -0.71 -0.71 0 -0.7 1.38 -2.23c-0.24,-1.18 -1.42,-2.31 -3.46,-3.45l-2.88 1.37 0.81 3.5c0,1.56 -0.71,3.22 -2.23,4.96l0 1.37c0,1.14 1.23,1.85 3.6,2.08l0 1.56 -2.18 0c0,1.37 0.95,2.08 2.88,2.08l0 7.04 2.79 0 0 0.71 -1.42 1.37 -9.12 0c0,-1.37 -0.89,-2.08 -2.78,-2.08l-0.81 -0.7 0 -4.26 1.51 -2.08 0 -2.78 -2.22 0 0 -5.68 4.3 -3.59c0,-1.42 0.95,-2.08 2.79,-2.08l0 -1.42 -2.79 0 1.37 -7.04c0.95,0 1.42,0.71 1.42,2.08 1.94,0 2.89,-0.94 2.89,-2.79l0.7 -0.66 -0.7 -0.71 -0.81 0 0 -2.07 1.51 -1.52zm-54.96 2.93l1.37 1.37 2.08 -0.71 0 -0.66 -3.45 0zm78.07 1.37l0 1.37 1.52 0 0 -2.74 -1.52 1.37zm8.46 -1.37l0 0.66 2.22 0.71 0 -0.71 -0.71 -0.66 -1.51 0zm-88.61 2.03l0 0.71 1.37 1.37 0.71 0 0 -1.37 -0.71 -0.71 -1.37 0zm103.4 0l0 3.64 1.42 -1.56 -0.71 -2.08 -0.71 0zm-11.2 2.08l1.37 1.56 1.42 -1.56 -2.79 0zm-45.84 0.71l1.52 0 1.41 1.52 0 2.78 -2.93 0 0 -4.3zm-44.28 1.52l0 0.7 1.37 1.37 1.37 -1.37 -2.74 -0.7zm99.24 0.7l-0.66 0.71 0 2.03 0.66 0c0,-1.37 0.48,-2.03 1.42,-2.03l0 -0.71 -1.42 0zm23.3 1.37l0 1.37 0.66 3.5 0.71 0 0.67 -4.16 -0.67 -0.71 -1.37 0zm-19.8 3.45l0 1.42 2.88 -0.71 0 -2.79 -2.07 2.08 -0.81 0zm-15.4 -0.66l0 4.3 0.7 0.66 0 0.71 -2.22 0c0,0.76 1.42,1.66 4.3,2.74l0 -0.66 -0.71 -0.71 0 -0.66 0.71 -0.71 -2.08 -0.71c0.19,-2.4 0.9,-3.59 2.08,-3.59l-1.37 -1.37 -1.41 0zm44.99 0l-1.38 1.37c0.48,3.59 1.19,5.96 2.08,7.04l-2.74 4.31 1.37 0c0,-0.9 0.71,-1.37 2.08,-1.37l0 -2.23 -0.71 -3.45 2.79 -0.71 0.81 0.71 0.7 -0.71 -0.7 -2.88 -3.6 0.81 -0.7 -0.81 0.7 -0.71 0 -1.37 -0.7 0zm-64.79 1.37l0 0.71 4.29 3.59 1.42 -1.37 2.74 0 6.38 5.53 0.71 -0.71 0 -0.71c-1.89,0 -2.79,-1.13 -2.79,-3.45l0.71 -3.59 -2.08 2.93 -1.56 0 -4.82 -2.22 -2.93 0.81 -2.07 -1.52zm33.78 0l0 0.71 0.71 2.22 0.71 0 0 -0.71 -0.71 -2.22 -0.71 0zm-104.81 2.93c0,1.37 -0.71,2.08 -2.18,2.08l1.52 1.37 -0.86 0.66 0 1.42 3.6 0 0 -0.71c-0.9,-0.99 -1.37,-2.6 -1.37,-4.82l-0.71 0zm100.65 0l0 10.49c1.61,2.22 3.46,3.6 5.58,4.16l0 -0.66 -2.79 -4.87 1.37 -2.93 -2.74 -2.74 0 -3.45 -1.42 0zm11.91 0.66l0 1.42 0.71 0.66 1.37 0 0 -0.66 -1.37 -1.42 -0.71 0zm6.38 0.71l0.71 0.71 0.67 0.66c0.94,0 1.41,0.95 1.41,2.79l2.22 0.66 0.66 -0.66 0 -1.42 -4.29 -2.74 -1.38 0zm-9.83 1.37l0 2.08 -0.7 3.6 0.7 0 1.37 -1.37 0 -4.31 -1.37 0zm-96.5 0.71l0 3.6 -1.37 1.37 -1.37 -4.31 0.66 -0.66 2.08 0zm21.18 7.04l0 0.71 0.7 0c2.79,-0.47 4.16,-1.13 4.16,-2.08l0 -0.7 -2.79 0 -2.07 2.07zm56.23 1.42c2.6,0 4.49,1.42 5.67,4.26l0.71 0 0 1.41 -3.5 1.37 -1.37 0c0,-1.93 -0.99,-3.82 -2.92,-5.67l1.41 -1.37zm-19.66 3.59l2.08 0 2.88 2.74 0 0.71 -6.33 0 -1.42 -1.37 2.79 -2.08zm-73.96 0.67l0.71 0.7 0 0.71 -1.37 1.37 -0.71 -0.71 0 -0.66 1.37 -1.41z"/>
  <path class="fil0" d="M633.31 444.4l0 2.08 0.67 0c0,-1.13 0.99,-1.79 2.92,-2.08l1.37 2.08 0 1.37c-1.37,0 -2.07,0.76 -2.07,2.22l-2.89 1.37 -2.79 -0.66c-0.89,2.13 -1.84,3.26 -2.78,3.45l-0.66 -0.71 -0.85 0 -2.09 2.79 4.31 0.8 0 4.87c-1.94,0 -2.89,0.71 -2.89,2.08l-2.79 0 0 -7.75 0.71 -6.24 -0.71 -5 0.71 -0.67 9.83 0zm9.12 0l23.96 0 1.37 1.37 0 18.95 -1.37 0c0,-2.74 -0.47,-4.11 -1.37,-4.11l-1.42 1.37 0 1.37c0,0.95 1.42,1.89 4.16,2.93l0 21.74 -4.82 -0.71 -0.71 0 0 0.71 5.53 2.22 0 8.41 -2.07 0 0 1.42c1.41,0 2.07,0.43 2.07,1.37l0 33.79c-1.84,0 -2.74,1.66 -2.74,4.96l0.67 0.71 -2.09 1.37 -2.07 0c-0.9,0 -1.37,-1.18 -1.37,-3.59l-0.85 0c0,2.41 -0.67,3.59 -2.08,3.59l-3.45 0 -1.37 -1.37 0 -2.93c1.37,0 2.07,-0.47 2.07,-1.37l-0.7 -3.45 -0.67 0.67 -0.7 0 0.7 0.7 0 2.08 -1.55 1.37 -2.08 0c-2.27,-0.8 -3.45,-2.88 -3.45,-6.24l0 -0.8 2.07 -0.71 -1.37 -4.15c1.85,0 2.75,-1.19 2.75,-3.6l5.71 0 0 -2.74 4.12 0 0.85 -0.71 0.7 0c0,-1.37 -0.99,-2.08 -2.92,-2.08l-0.71 -4.3 -0.67 0.71 -0.71 0 0.71 0.66 0 1.56 -2.08 2.08 -2.92 0.66 0 2.08 -0.67 -0.66 -1.41 0 -1.38 4.25 -2.74 -1.51 0 1.51 -7.09 0 0 -2.88 0.71 -3.45c-1.37,0 -2.08,-0.47 -2.08,-1.42l0 -2.88 2.08 -0.71c0.81,3.31 2.7,5.01 5.68,5.01l0 -0.71c-2.41,-1.37 -3.6,-3.02 -3.6,-5.01l1.37 -1.37 0.71 0.71 3.59 0 0 -4.16c0,-1.04 0.67,-1.51 2.08,-1.51l0 -1.42c-2.78,0 -4.15,-1.37 -4.15,-4.11l-0.71 0.66 -0.81 0 -6.24 -1.37 -0.7 0.71 0 -1.42c1.37,0 2.07,-0.52 2.07,-1.51l0 -2.08 -1.37 0 0 1.37 -3.59 -0.66 -1.42 0 0 0.66 1.42 0 0 1.42 -2.79 0.8 0 -3.59 2.08 0 0 -2.79 -0.71 -0.66 0 -0.71c1.85,-0.8 2.79,-2.26 2.79,-4.3l2.22 0 2.08 2.08 -1.37 1.56 1.37 4.12 1.37 0 0 -2.75 0.71 0 1.37 1.38 -0.7 0.7 0 0.67 1.41 0 4.3 -1.37 0 -1.38c-2.69,0 -5.76,-1.65 -9.17,-5.01l0 -5.67 -1.37 0c0,1.14 -0.99,2.55 -2.92,4.3l-0.67 -0.71 -3.49 0 1.41 4.87c0,1.47 -1.89,3.36 -5.67,5.67l0 0.71 -2.79 0 0 -5.53 1.37 -5.01 -1.37 0 0 -2.79 1.37 0 0 2.08c3.55,0 5.44,-0.89 5.68,-2.74l0 -0.85 -0.67 0 0 1.51c-3.78,-0.42 -5.67,-2.07 -5.67,-4.96l2.75 -2.08 4.29 0 -0.7 3.45 0 1.42 0.7 0c0.1,-1.84 0.57,-2.79 1.37,-2.79l-1.37 -6.38 1.37 -1.37 0 -0.7c-1.37,0 -2.07,-0.43 -2.07,-1.38l-0.67 0.71 -0.7 0 -2.22 -2.08 0 -0.71c2.4,0 3.59,-0.94 3.59,-2.93l-0.67 -0.66 0.67 -0.71 0.7 0.71 2.08 0 3.6 -0.71 0.7 4.3 0.71 0c1.56,-1.46 2.93,-2.22 4.12,-2.22l0 -1.37 -2.75 -0.71 2.08 -6.38c-1.23,0 -2.12,-1.37 -2.79,-4.11l1.37 -2.08 3.5 1.37 0.81 -0.71 -1.52 -4.29 0 -0.67zm34.6 0l16.91 0 1.37 1.37 -1.37 1.37 0 2.22 0.71 0c1.37,0 2.08,-1.65 2.08,-4.96l11.87 0 0.7 0.67 0.85 -0.67 9.12 0c0.29,2.32 1,3.45 2.08,3.45l0.71 -0.71 0.67 0 -0.67 -0.66 0 -2.08 17.58 0 0 2.08 0.67 -0.71 0.7 0.71 1.37 0 0 -0.71 -0.66 -0.7 0 -0.67 25.33 0 1.51 1.37 0 33.79 -1.51 1.37 -18.29 0 0 -2.08c-0.89,0 -1.37,0.71 -1.37,2.08l-40.16 0 -2.09 -1.37 -2.07 1.37 -26.04 0 -1.52 -1.37 0 -5.53 0.71 -0.85 -0.71 -0.66 0 -21.74 1.52 0 0 -2.08 -1.52 0 0 -2.93 1.52 -1.37zm-24.62 4.96l-1.52 2.79 1.52 0 1.37 -1.37 -1.37 -1.42zm9.12 1.42c0.94,3.69 1.84,5.53 2.78,5.53l2.08 -2.08c-0.94,0 -1.37,-1.18 -1.37,-3.45l-0.71 -0.71 -0.71 0 -2.07 0.71zm20.37 2.74l2.07 1.37 0.71 -2.03 -0.71 -0.71 -0.7 0 -1.37 1.37zm-34.46 2.79l0.66 0 2.09 -2.08 -0.71 0 -2.04 2.08zm92.87 -2.08c0,1.94 -1.37,2.88 -4.16,2.88l-0.67 -0.8 -0.7 2.88 4.16 0 2.07 -4.3 0 -0.66 -0.7 0zm-34.45 2.08l-0.72 2.88 1.38 0 1.41 -1.37 -2.07 -1.51zm-52.75 1.51l0 3.45 -0.7 0 -1.52 -1.37 0.67 -0.71 -2.08 0 0 4.16 -1.38 0 0 1.37 1.38 0c0,-1.65 2.12,-2.55 6.37,-2.74 1.14,-1.84 2.27,-2.79 3.46,-2.79l0 -1.37 -6.2 0zm37.24 1.37l0 2.79 1.37 -1.37 0 -1.42 -1.37 0zm41.54 3.45l2.08 0 0 -2.03 -2.08 2.03zm-50.71 1.42l-0.66 0.66 0 0.85 0.66 0.71 0.72 0 0.7 -0.71 2.08 2.79 0 4.16 0.81 0 2.07 -0.71 0 -0.71c-1.27,-3.02 -3.4,-5.38 -6.38,-7.04zm-35.15 3.59l0 0.71 1.41 0 0.66 -2.08 -0.66 0 -1.41 1.37zm-11.35 1.38l0 1.41 0.85 0 3.45 -0.71 0 -2.08 -4.3 1.38zm21.88 0l0.67 3.49 -1.38 0 0 2.17 0.71 0 6.38 -2.88 0.66 0 0 -0.71 -3.44 -0.66 -2.22 0 0 -1.41 -1.38 0zm-16.92 0.7l0 2.08 1.42 0 0 -2.08 -1.42 0zm7.09 2.79l0 0.66 1.37 0 1.38 -1.37 -0.67 -0.71 -0.71 0 -1.37 1.42zm57.75 -0.71l0 1.37 1.38 0 1.37 -1.37 -2.75 0zm-21.21 1.37l0 1.51 1.41 0 1.51 -1.51 -2.92 0zm38.08 0l-1.37 4.3 0.66 0 2.09 -2.08 0 -2.22 -1.38 0zm-75.99 2.22l0 2.08 1.37 0 0 -2.08 -1.37 0zm42.91 0.71l0 2.74 0.66 0 0.72 -2.07 -0.72 -0.67 -0.66 0zm42.92 1.37l0 1.37 1.37 1.42 0 -2.79 -1.37 0zm-73.96 5.67l-4.12 0 -1.55 -1.37 -2.08 0.66 0 2.79 3.63 0.71 0.67 -0.71 7.08 2.08 0 -0.71c0,-0.89 -0.75,-1.37 -2.22,-1.37l0 -0.71 2.89 -2.74 4.16 0 0.7 -2.22 -0.7 -0.71 -1.38 0 -7.08 4.3zm-5.67 9.84l-0.67 0.7 0 0.67 2.22 2.07 0.67 -0.66 1.41 0c2.27,0 3.45,0.95 3.45,2.88l2.22 0 0 -0.8c-1.93,-2.03 -5.05,-3.68 -9.3,-4.86zm9.97 5.66l2.78 0 -1.37 -1.51 -1.41 1.51zm-38.76 -0.8l1.37 0 0.72 3.59 -0.72 4.82 -1.37 -1.37 0 -7.04zm31.01 0.8l0 1.42c0.94,0 1.41,0.9 1.41,2.74l1.37 0 -2.08 -3.45 0 -0.71 -0.7 0zm-23.96 1.42c1.04,0 2.41,2.32 4.16,7.04l0.7 0 0.85 -3.59c-1.51,0 -2.22,-0.47 -2.22,-1.37l3.59 -0.71 3.45 2.08 0.71 0 0 2.08 -1.42 1.51 -3.44 0c0,2.13 -0.71,3.74 -2.22,4.82l0.7 0 -0.7 0.71 0 0.71 1.55 4.3 -2.22 1.37 -2.08 -2.08 -0.71 0 -1.37 1.37c0,3.6 1.61,5.72 4.83,6.38l0 0.71 0.7 -0.71 0.85 0 1.37 1.38 0 4.86c-2.4,0 -3.59,0.52 -3.59,1.51l0 0.71c0.81,1.85 2.46,2.74 4.96,2.74 0,-2.74 0.48,-4.16 1.37,-4.16l0 0.71 2.09 -0.71 0 -0.8c0,-0.94 -0.67,-1.37 -2.09,-1.37l-0.66 -0.71 0 -2.08 1.37 -2.08c3.79,0 5.68,1.61 5.68,4.87 -0.9,0 -1.37,1.18 -1.37,3.59l-1.52 0 0 2.08c6.19,4.3 9.27,6.9 9.27,7.75 0,0.9 1.13,1.37 3.44,1.37l0.71 0.71 0 3.59 -0.71 3.45 0.71 0 3.6 -1.37 0.7 0.67 0 -1.37c0,-0.9 -0.99,-1.38 -2.92,-1.38 0,-1.04 1.22,-1.51 3.59,-1.51l0 -0.71 4.16 1.51 0 -0.8 0.7 -2.79 1.37 0 0 16.21 -0.66 4.97 0.66 6.23 0 46.5c0,1.71 -0.89,3.6 -2.74,5.72l0 1.37 0.67 -0.71 2.07 0 0 0.71 -0.66 0.71 0.66 3.45 0 9.12 -4.16 4.3 -3.44 0 -2.22 -1.37 0.7 -0.71 0 -2.22 -4.16 1.52 0 1.41 -4.29 0 0 -2.93 2.92 -1.37 0.67 0 0 -0.71 -1.37 -1.37 -0.85 0c0,1.18 -1.37,2.65 -4.12,4.3l-4.3 -0.85c0.52,-3.21 1.28,-4.82 2.22,-4.82l3.45 0c0,-1.41 1.19,-2.08 3.6,-2.08l2.78 -4.3 0 -0.71 -2.78 0 0 -4.15 2.78 0 4.12 3.49 1.55 0 0 -0.71c-2.4,0 -3.63,-1.41 -3.63,-4.3l0 -0.71c1.98,0 3.4,-1.13 4.3,-3.45l0.7 0 0 1.37 1.37 0 0 -2.03 -1.37 -5.72 -1.37 0 -2.22 4.31 1.52 1.41 -7.75 5.53 -2.22 -0.71 0 0.71c0,2.13 -1.85,3.55 -5.53,4.3 -1.04,-2.12 -2.46,-3.3 -4.31,-3.49l0 -2.23 1.38 -1.37 0.7 0 3.6 0.71 -0.67 -0.71 0 -0.71 1.37 -4.11 -3.59 0 0.81 0.67 0 1.41 -2.22 0 -1.38 -2.93 0 -0.71 -0.71 0c0,3.36 -0.42,5.01 -1.37,5.01l-1.37 0 -2.22 -0.71 0 0.71 -1.37 4.16 -0.71 -0.71 -0.71 0 -1.37 1.52c3.31,0 5.01,0.94 5.01,2.78l0.67 3.45 -5.68 0.71 0.71 0.66 0 5.01c2.84,0 4.3,0.48 4.3,1.37l0 4.3 -4.3 0c-0.85,0 -1.51,-1.41 -2.08,-4.3 -3.3,0 -5.01,-0.47 -5.01,-1.37l0 -5.01 1.42 0 0 -0.66c-1.84,0 -2.79,-0.47 -2.79,-1.42l0 -12.57 4.97 -4.3 -4.97 0 0 -0.71 1.37 -2.03 0 -2.08 -1.37 -2.22 0 -41.54c0,-0.94 0.71,-1.42 2.09,-1.42l0 -0.66c-1.38,0 -2.09,-0.47 -2.09,-1.37l0 -15.55 1.37 -1.37 0.72 0 0.7 0.71 0.67 0 0 -0.71 -3.46 -3.59 0 -27.41 1.37 0 1.42 1.37 -0.7 0 0.7 2.22 1.52 0 0 -3.59c0,-0.94 1.37,-1.37 4.15,-1.37l0 -0.71 -5 -1.37 0 -1.56 0.85 -0.66 0 -0.71 -0.85 -0.71c1.74,-0.8 2.97,-2.17 3.59,-4.11zm26.74 3.45l0 2.08 1.38 0 -0.71 -2.08 -0.67 0zm1.38 3.59c0,2.42 -0.67,3.79 -2.09,4.16l-2.74 -0.71 -5.01 0.71 0 2.08 9.84 -2.08 1.37 -1.37 0 -1.42 -1.37 -1.37zm18.28 12.62c2.93,0 5.06,2.08 6.38,6.34l-0.7 0.7 1.37 0 0.7 -0.7 0.71 0.7 0.81 0 2.07 -2.08 -3.59 -3.59 0 -1.37 0.71 0 0.81 0.66 0.7 0 0.67 -0.66 3.49 0.66 5.67 0 3.45 -0.66 0 0.66 0.71 -0.66 2.22 0 2.08 0.66 3.45 -0.66 12.05 0 5.53 1.37 1.52 -1.37 0.7 0 0.67 0.66 0.7 -0.66 28.12 0 1.37 1.37 0 0.66 -0.7 0 -3.45 -0.66 -0.67 0.66 0 0.71 5.67 1.51 0.67 -2.22 1.41 0 0 12.76c-3.45,-0.47 -6,-1.65 -7.75,-3.59l-4.3 0 0 -1.37 -4.16 0c0,-1.89 -0.99,-2.79 -2.93,-2.79l0 0.71c1.14,4.21 2.32,6.34 3.6,6.34 1.41,0 2.08,0.7 2.08,2.07l0.7 0.71 0.71 0c0,-1.84 0.71,-2.78 2.22,-2.78l2.08 -1.38 4.12 2.79 1.55 0 0.67 -0.71 0.7 0 0.71 4.87 0 9.26 -0.71 0.71 0.71 0.67 0 0.7 -0.71 4.82 -5 -0.66 -1.37 1.51 -1.38 0 0 -0.85 -5 0.85 -8.42 0 -0.7 -0.85 -0.71 0.85 -4.97 0 -0.7 -0.85 -0.67 0.85 -4.16 0 -2.93 -0.85 -2.74 0.85 -5.01 0 -1.37 -1.51 -5.53 1.51 -18.43 0c-0.94,0 -1.84,-1.41 -2.79,-4.3l-0.66 0 -1.41 2.08 -2.18 -0.71 0 0.71c0,1.47 -1.18,2.22 -3.5,2.22l-4.15 0 0 -1.51 3.49 0 0 -0.71 -0.71 -0.71 0.71 -2.07 0.66 0 0.72 0.7 0.7 0 0.67 -0.7 0 -3.46c0,-0.99 -0.67,-1.51 -2.09,-1.51l-0.66 0.71 -0.71 0 -2.07 -0.71 0.7 0.71 -0.7 0.8 0 0.71 0.7 2.08 -1.41 3.45 -1.52 0 0 -8.46 0.71 -0.66 -0.71 -0.71 0 -14.79 0.71 0c1,0 1.75,1.89 2.22,5.67l0.67 0c0,-2.88 0.47,-4.77 1.41,-5.67l0 -0.71 -4.3 -4.16 0 -2.22 0.81 -0.71 -0.81 -0.66 0 -1.37zm-49.99 1.37l-0.67 2.22 0.67 0.66 0.85 0 1.37 -2.22 -0.71 -0.66 -1.51 0zm72.54 1.37l0 0.85 2.07 -0.85 0 -1.37 -0.66 0 -1.41 1.37zm2.93 -0.71l0 1.56 0.7 0 2.08 -0.85 0 -1.37 -0.71 0 -2.07 0.66zm-39.47 2.22l1.37 1.42 1.42 0 0 -0.71 -0.71 -2.22 -0.71 0 -1.37 1.51zm67.58 0c1.38,0 3.03,0.95 4.97,2.79 0,-1.37 0.7,-2.08 2.07,-2.08 0,0.76 1.61,1.9 4.87,3.45l0 -1.37c-2.22,0 -4.3,-1.41 -6.24,-4.3l-4.29 0 -1.38 1.51zm-73.96 1.42l0 0.67 0.71 2.07 2.75 0 0 -1.37 -2.75 -1.37 -0.71 0zm44.99 1.37l0 2.08 1.56 0 0 -0.71 -1.56 -1.37zm-13.28 1.37c0,2.6 1.19,4.49 3.46,5.68l3.63 -4.97 0 -0.71 -0.71 0c0,0.95 -0.99,1.42 -2.92,1.42l0 1.37 -0.67 0 0 -1.37 -1.42 -1.42 -1.37 0zm-59.11 2.79l-0.71 0.8 0 2.09 2.08 -2.09 -0.67 -0.8 -0.7 0zm92.9 0l0 1.51 3.45 0 0 -1.51 -0.66 0.8 -0.71 0 -2.08 -0.8zm-22.58 1.51l0 0.71 0.7 2.08 0.71 0 1.52 -1.41 -2.93 -1.38zm36.71 1.38l0.67 2.78 1.42 0 1.37 -1.37 -1.37 -1.41 -2.09 0zm-51.51 1.41l0 1.37 1.52 0c0,0.9 0.7,1.37 2.07,1.37l0 5.01 1.37 0 0.72 -3.59c-2.7,-2.79 -4.59,-4.16 -5.68,-4.16zm52.18 2.74l0 2.93 0.7 0 0 -2.93 -0.7 0zm13.32 1.42l0.66 3.59 2.23 -2.08 -1.52 -1.51 -1.37 0zm-53.45 1.51l1.37 2.08 -3.45 1.37c0,0.76 0.9,1.42 2.79,2.08 0,-0.75 1.14,-1.42 3.45,-2.08l0.66 0.71 -0.66 -2.79 -0.71 0.71 -1.37 0 0 -2.08 -2.08 0zm29.49 1.37l0 2.79 2.22 0.66 1.37 -4.15 -3.59 0.7zm-92.91 5.67l2.08 0 0 0.71 -3.45 0.71 0 1.37 1.37 0 0 2.74 0.71 3.64 -4.16 1.37 0 -0.7 -3.59 0.7 0 0.71 0.67 0.66 0 0.71 7.08 -1.37 0 1.37 1.37 0 0 -5.01 3.59 0 -0.66 -2.74 0.66 -2.08 4.87 0 2.22 2.08 -0.7 0.66 0 1.42 1.37 1.51 0 -2.22 1.41 0 2.75 2.93 0 0.67 -0.71 0.7 0.71 0.71 0 0.66 -0.71 3.45 1.41 0 0.67 -5.52 0.85 0.7 1.37 0 0 -0.7c-0.9,0 -1.37,-1.19 -1.37,-3.6 -2.41,-0.28 -3.6,-0.94 -3.6,-2.08l2.75 -5.67 -2.08 0 0 1.51 -2.04 0 -0.71 -0.8 -0.7 0 0.7 -3.5 0 -0.66 -1.37 0 -0.7 4.16 -0.71 -0.71 -0.81 0 -0.71 2.22 -4.82 0 0 2.75 -2.93 0 0 -1.37 1.52 0 0 -0.67 -0.67 -2.22 0.67 0c1.13,0 2.03,-1.65 2.78,-4.87l-2.78 0 -3.6 5.67zm50.67 -2.88l0 0.66 0.7 0 3.59 -0.66 0 -1.42 -0.7 0 -3.59 1.42zm50.7 -0.71l0 1.37 2.18 5.01 0.7 0 0 -4.3c-0.89,0 -1.37,-0.71 -1.37,-2.08l-1.51 0zm-18.29 7.05l0 2.07 0.67 0 2.22 -0.66 0 -0.71 -2.89 -0.7zm19.8 0c0,1.41 -0.52,2.07 -1.51,2.07l0 1.42 2.88 -1.42 0 -2.07 -1.37 0zm-96.5 5.71c0,2.27 -0.47,3.45 -1.37,3.45l-2.08 -0.71c0.9,1.14 1.37,2.79 1.37,5.01l1.37 0c0.86,0 1.52,-1.23 2.08,-3.64l-0.71 -0.66 2.79 -1.37 0 1.37 0.71 0 0 -2.78 -4.16 -0.67zm21.88 0.67l0 2.78c0.62,0 1.33,-0.94 2.08,-2.78l-2.08 0zm-3.63 4.15l0 0.71 1.41 1.37 0 -2.08 -1.41 0zm-30.15 2.93l0 1.37 2.07 0.71 0.67 -0.71 0 -3.59 -0.67 0 -2.07 2.22zm25.33 4.11l0 2.08 0.7 0 2.08 -0.66 0 -1.42 -2.78 0zm6.9 2.08l0 0.71 0.85 5.01 2.07 0c0,-2.31 1.14,-3.5 3.46,-3.5 -0.29,-1.84 -1.66,-3.26 -4.16,-4.3l-2.22 2.08zm-29.49 2.22l0 1.42 2.07 2.08 3.64 -1.41 0 -0.67 -1.55 -1.42 -3.46 0.72 -0.7 -0.72zm17.62 1.42l0 1.37 2.75 0 2.22 -2.07 0 -0.72 -0.85 0 -4.12 1.42zm11.2 3.45l-0.7 2.88 1.37 0 0 -2.88 -0.67 0zm-30.19 3.6l-0.71 0.7 0 0.67 0.71 0 0 -0.67 0.7 0.67 1.37 0 0 -0.67 -2.07 -0.7zm2.78 1.37l0 0.7 2.08 2.08 0 -0.71 -2.08 -2.07zm20.33 0l0 1.41 4.29 0.66 0 0.71c0,1.56 -0.66,3.22 -2.07,4.97l0 0.7 1.41 0c0.9,0 1.37,-0.94 1.37,-2.88l4.3 -0.71 0 -3.45 -9.3 -1.41zm-13.95 3.49l0 0.66 2.74 0 0 -1.37 -0.71 0 -2.03 0.71zm-11.38 3.59l0 1.37 1.51 0 -0.66 0.71 0 0.66 0.66 2.08 -0.66 0 -2.22 0.71 0 0.71 2.22 0c1.65,-3.26 4.67,-4.87 9.12,-4.87l0 -1.37 -6.38 1.37 -1.37 -1.37 -2.22 0zm37.37 0l-0.66 0.67 0 2.07c1.37,0 2.08,0.95 2.08,2.79l2.08 0c-1.89,-2.12 -2.79,-3.73 -2.79,-4.86l1.38 0 0 -0.67 -2.09 0zm-33.78 11.91l0 2.74 3.49 -4.15 -0.71 -0.67 -2.78 2.08zm31.71 1.37c0,2.41 -1.19,3.6 -3.59,3.6l0 0.7 5.66 0.71 0 -4.3 -2.07 -0.71zm24.66 2.08l4.16 0 2.89 2.22c0,-1.46 0.47,-2.22 1.41,-2.22l6.19 0 0 0.85 -0.66 0.67 0 0.7 0.66 0.71 0.86 0 2.78 -2.93 23.92 0 2.08 1.52 2.78 -1.52c1.56,0.57 2.55,1.52 2.89,2.93l-0.67 0.66 5.53 2.79 0 -1.42c-1.74,0 -2.92,-1.65 -3.44,-4.96l11.9 0c1.94,0 5.25,1.42 9.97,4.3l1.37 -1.37 -0.7 -0.71 0 -2.22 9.16 0 1.38 1.52 0 5.52 -4.31 6.38 0.71 0 2.89 -2.08 0.71 0 0 9.17 -0.71 0.66 0.71 0.71 0 0.66 -1.38 2.08 1.38 2.23 0 9.16 -1.38 1.37 -28.26 0 0 -0.71 2.93 -0.66 0 -0.71 -1.56 0 0 0.71 -0.66 -0.71 -2.08 0 0 2.08 -11.24 0 -3.6 -2.78 2.23 -4.26c-4.16,-0.47 -6.76,-1.18 -7.76,-2.08l-4.96 2.08 0 2.08c1.37,0 2.04,0.71 2.04,2.18l-0.67 0 0.67 0.7 0 0.71 -1.37 1.37 -9.84 0 0 -0.71c0,-0.89 0.72,-1.37 2.09,-1.37l-2.09 -2.88 -3.44 0 0 -1.42 -4.31 0c0,2.41 -1.37,3.6 -4.15,3.6l-1.52 -1.52 0 -4.82 2.22 0 -0.7 -0.71 0 -4.3 0.7 -0.71 0 -0.66c-1.55,-1.37 -3.02,-2.08 -4.29,-2.08l0 -0.71 0.7 -0.66 -0.7 -0.71 0 -0.7 1.37 -2.23c-0.24,-1.18 -1.42,-2.31 -3.46,-3.45l-2.88 1.37 0.81 3.5c0,1.56 -0.71,3.22 -2.22,4.96l0 1.37c0,1.14 1.22,1.85 3.59,2.08l0 1.56 -2.18 0c0,1.37 0.95,2.08 2.88,2.08l0 7.04 2.79 0 0 0.71 -1.42 1.37 -9.12 0c0,-1.37 -0.89,-2.08 -2.78,-2.08l-0.81 -0.7 0 -4.26 1.52 -2.08 0 -2.78 -2.23 0 0 -5.68 4.3 -3.59c0,-1.42 0.95,-2.08 2.79,-2.08l0 -1.42 -2.79 0 1.37 -7.04c0.95,0 1.42,0.71 1.42,2.08 1.94,0 2.89,-0.94 2.89,-2.79l0.7 -0.66 -0.7 -0.71 -0.81 0 0 -2.07 1.51 -1.52zm-54.96 2.93l1.37 1.37 2.08 -0.71 0 -0.66 -3.45 0zm78.07 1.37l0 1.37 1.52 0 0 -2.74 -1.52 1.37zm8.46 -1.37l0 0.66 2.22 0.71 0 -0.71 -0.71 -0.66 -1.51 0zm-88.61 2.03l0 0.71 1.37 1.37 0.71 0 0 -1.37 -0.71 -0.71 -1.37 0zm103.41 0l0 3.64 1.41 -1.56 -0.71 -2.08 -0.7 0zm-11.21 2.08l1.38 1.56 1.41 -1.56 -2.79 0zm-45.84 0.71l1.52 0 1.41 1.52 0 2.78 -2.93 0 0 -4.3zm-44.28 1.52l0 0.7 1.37 1.37 1.38 -1.37 -2.75 -0.7zm99.25 0.7l-0.67 0.71 0 2.03 0.67 0c0,-1.37 0.47,-2.03 1.41,-2.03l0 -0.71 -1.41 0zm23.29 1.37l0 1.37 0.67 3.5 0.7 0 0.67 -4.16 -0.67 -0.71 -1.37 0zm-19.8 3.45l0 1.42 2.88 -0.71 0 -2.79 -2.07 2.08 -0.81 0zm-15.4 -0.66l0 4.3 0.7 0.66 0 0.71 -2.22 0c0,0.76 1.42,1.66 4.3,2.74l0 -0.66 -0.71 -0.71 0 -0.66 0.71 -0.71 -2.08 -0.71c0.19,-2.4 0.9,-3.59 2.08,-3.59l-1.37 -1.37 -1.41 0zm44.99 0l-1.37 1.37c0.47,3.59 1.18,5.96 2.08,7.04l-2.75 4.31 1.38 0c0,-0.9 0.7,-1.37 2.07,-1.37l0 -2.23 -0.7 -3.45 2.78 -0.71 0.81 0.71 0.7 -0.71 -0.7 -2.88 -3.59 0.81 -0.71 -0.81 0.71 -0.71 0 -1.37 -0.71 0zm-64.79 1.37l0 0.71 4.3 3.59 1.41 -1.37 2.75 0 6.37 5.53 0.71 -0.71 0 -0.71c-1.89,0 -2.79,-1.13 -2.79,-3.45l0.71 -3.59 -2.08 2.93 -1.55 0 -4.83 -2.22 -2.93 0.81 -2.07 -1.52zm33.79 0l0 0.71 0.7 2.22 0.71 0 0 -0.71 -0.71 -2.22 -0.7 0zm-104.82 2.93c0,1.37 -0.71,2.08 -2.18,2.08l1.52 1.37 -0.85 0.66 0 1.42 3.59 0 0 -0.71c-0.9,-0.99 -1.37,-2.6 -1.37,-4.82l-0.71 0zm100.66 0l0 10.49c1.6,2.22 3.45,3.6 5.57,4.16l0 -0.66 -2.78 -4.87 1.37 -2.93 -2.75 -2.74 0 -3.45 -1.41 0zm11.91 0.66l0 1.42 0.7 0.66 1.37 0 0 -0.66 -1.37 -1.42 -0.7 0zm6.38 0.71l0.7 0.71 0.67 0.66c0.94,0 1.41,0.95 1.41,2.79l2.22 0.66 0.67 -0.66 0 -1.42 -4.3 -2.74 -1.37 0zm-9.84 1.37l0 2.08 -0.7 3.6 0.7 0 1.38 -1.37 0 -4.31 -1.38 0zm-96.5 0.71l0 3.6 -1.37 1.37 -1.37 -4.31 0.66 -0.66 2.08 0zm21.18 7.04l0 0.71 0.7 0c2.79,-0.47 4.16,-1.13 4.16,-2.08l0 -0.7 -2.79 0 -2.07 2.07zm56.23 1.42c2.6,0 4.49,1.42 5.67,4.26l0.71 0 0 1.41 -3.5 1.37 -1.37 0c0,-1.93 -0.99,-3.82 -2.92,-5.67l1.41 -1.37zm-19.66 3.59l2.08 0 2.89 2.74 0 0.71 -6.34 0 -1.42 -1.37 2.79 -2.08zm-73.96 0.67l0.72 0.7 0 0.71 -1.38 1.37 -0.71 -0.71 0 -0.66 1.37 -1.41zm155.82 -195.75l42.2 0c7.04,9.97 13.84,21.46 20.51,34.45l-1.52 0c4.59,4.45 8.84,10.31 12.72,17.58l0 1.42 -1.37 2.22c1.84,0.14 2.74,0.85 2.74,2.08l-0.67 0.66c4.26,0.48 6.39,2.84 6.39,7.09l-1.42 1.37 -7.75 0 0 1.37 -4.97 0 0 1.37 -4.15 0 -8.46 2.22 0 -0.66 -5.67 1.37 -1.37 -1.37 -2.08 0c0,1.37 -0.52,2.08 -1.52,2.08l-0.71 0 -5.53 -9.83 0 -0.71 1.38 0c0,1.37 1.37,2.08 4.15,2.08l2.89 -1.37 1.42 1.37 3.44 -0.71 0 -1.37c-2.5,0 -4.63,-1.18 -6.38,-3.59l-3.44 -0.71 0 -1.37 -2.08 0 0 1.37 -2.93 0c-1.37,0 -2.08,-1.37 -2.08,-4.16 -1.99,0 -5.53,-4.91 -10.49,-14.79 -14.13,-22.54 -21.88,-35.68 -23.25,-39.46zm121.12 0l0.71 0.67 0.66 -0.67 6.38 0 2.78 0.67 4.97 -0.67 23.15 0 1.52 1.37 0 5.01 -3.6 0 0 1.37c2.37,0 3.6,0.48 3.6,1.37l0 50c0,0.9 -1,1.37 -2.94,1.37l0 0.71c1.94,0 2.94,0.47 2.94,1.51l0 120.32 -1.52 0 -21.07 -37.24 1.37 0 -1.37 -1.51 -0.66 0.8c-13.24,-20.65 -19.81,-32.65 -19.81,-36.01l-0.71 -21.03 0 -19.8 1.37 -2.08 -1.37 -1.37 0 -6.38 5.68 -1.37 0 -3.59 1.37 -2.08c-2.84,0 -5.44,-1.41 -7.75,-4.16l0 -27.55 -0.67 -18.99 0.67 -0.67 4.3 0zm23.25 4.96l0 2.79 1.42 -1.37 0 -1.42 -1.42 0zm-116.3 4.16l0 0.71 1.55 1.37 0 -0.71 -1.55 -1.37zm107.03 0l-0.7 0.71 0 0.66 2.22 0 -1.52 -1.37zm-135.81 5.01l1.37 0 23.96 40.83c-0.9,0 -1.37,0.71 -1.37,2.08 -2.89,0 -4.31,1.61 -4.31,4.82l-6.23 -0.66 0 0.66c0,1.14 -2.6,2.32 -7.75,3.64l-1.37 1.37 -0.85 0 -2.74 -3.45 -0.71 0 0 -49.29zm147.16 3.45l0 0.66 1.41 0 2.74 -2.03 -1.37 0 -2.78 1.37zm-11.35 1.37l0 1.37 3.6 0 0 -1.37 -3.6 0zm-6.23 2.93l0 0.66 0.71 2.09 2.07 -2.09 -2.78 -0.66zm22.45 12.57l0 0.71 1.51 0c0,1.47 0.47,2.22 1.37,2.22l2.08 0 0 -0.85 -4.3 -2.08 -0.66 0zm-12.62 7.09l1.37 1.37 0 -2.79 -1.37 1.42zm-82.37 1.37l-0.71 0.71 0 2.22 1.42 1.37 1.37 -1.37 0 -0.85 -2.08 -2.08zm61.19 6.38c1.94,0.62 3.36,1.8 4.31,3.45l0 1.51 -1.37 1.42 -2.23 0 -1.41 -1.42 0 -3.59 0.7 -0.7 0 -0.67zm-61.9 2.08l0 5.67c-1.94,0.19 -2.89,0.85 -2.89,2.08l0 0.66 4.31 0c0,2.89 0.89,4.3 2.74,4.3l0 -2.22 3.59 0.85 1.42 0 4.15 -2.93 -0.71 -0.66 0 -0.71c0,-1.18 1,-1.89 2.94,-2.08l0 -0.66 -7.8 0c-4.21,-1.32 -6.33,-2.74 -6.33,-4.3l-1.42 0zm97.92 1.37l0 0.71 3.44 0.8 0.71 0 0 -0.8 -3.49 -0.71 -0.66 0zm-87.38 4.3l0 2.74 -1.37 1.42 -0.71 0 -1.37 -1.42 3.45 -2.74zm-38.76 5.67l1.52 0 2.08 2.79 -2.08 1.37 -1.52 0 -2.07 -2.08 2.07 -2.08zm-13.28 1.37c2.08,0.95 3.27,1.85 3.45,2.79l-1.41 3.59c0.94,0 1.41,-0.75 1.41,-2.22l4.3 0 2.08 -1.37 0.67 0 1.37 1.37 -1.37 2.22 0 0.71 1.37 0c2.41,-1.04 3.63,-1.98 3.63,-2.93l2.09 0c2.74,1.94 4.11,4.3 4.11,7.09l0 0.66c-5.15,0.48 -8.18,1.18 -9.12,2.08l-7.76 0c0,1.04 -1.13,1.51 -3.44,1.51l-2.09 2.09 -3.59 -0.67 -2.07 0 -5.01 2.74 -2.08 0 -1.37 -1.37 0 -6.38 0.71 -0.66 -0.71 -0.71 0 -3.45 0.71 0 1.37 1.37 -0.71 0.71 0 0.66 5 0.71c0,-0.94 1.61,-1.6 4.83,-2.08l-0.67 -3.59 4.3 0 0 -0.71 -1.41 -3.45 0.7 0 0.71 -0.71zm69.62 7.09l0.7 0c3.31,3.12 4.97,5.96 4.97,8.41 -1.18,0 -1.89,0.95 -2.08,2.79l2.08 1.37 0.71 0 -0.71 -0.66 0 -2.08 2.08 0 68.95 116.16 0 1.37 -13.99 0 -4.3 -1.37 -1.37 1.37 -21.03 0c-2.23,-1.74 -18.44,-28.3 -48.58,-79.63 -11.49,-17.86 -17.63,-28.16 -18.44,-30.86l1.52 0 0 -0.71 -1.52 0 -0.7 0.71c-3.22,-5.05 -4.82,-8.41 -4.82,-9.97l5.52 0 0 1.51 3.6 0 3.45 0.71 0.7 -2.93 3.6 0.71 4.15 0 4.31 -2.74 2.07 1.37 0.67 0c0,-2.31 2.12,-3.92 6.38,-4.87l2.08 0.71 0 -1.37zm48.58 1.37l0 1.37 0.71 0 1.37 -1.37 -2.08 0zm-9.83 2.79l-0.66 0.66 0 0.71 3.44 0.66 0 -1.37 -2.78 -0.66zm-90.12 7.04l2.78 0 0.67 -0.7 0.85 0c0.47,4.25 1.84,6.37 4.16,6.37l0.7 -0.71 1.37 4.16 0 5.01 -2.78 0 0 1.37 2.78 0 1.37 99.95 -0.66 0.71 -37.95 0 -2.92 -0.71 -2.74 0.71 -0.71 -0.71 0 -106.99c1.08,-2.88 2.97,-4.3 5.67,-4.3 2.22,0 3.82,-0.47 4.86,-1.37l1.37 0c4.26,1.94 6.38,3.36 6.38,4.26l2.08 -0.67c1.94,0.48 2.89,2.08 2.89,4.82l0.71 0 1.37 -1.37 0 -1.37c-1.85,-1.74 -2.75,-3.21 -2.75,-4.3l-3.63 0 -3.45 -0.71 0 -1.37 2.08 -2.08 9.12 0 0 1.37 2.93 0 0 -1.37 -0.85 -0.7 0 -0.67 4.3 -2.08 0 3.45zm5.67 -1.37l1.42 0c1.84,0.71 2.74,2.32 2.74,4.82l-0.67 0c-2.31,-0.89 -3.49,-2.5 -3.49,-4.82zm31.71 2.74l0 1.42 2.08 0 0 -1.42 -2.08 0zm-38.75 2.08l-0.71 3.6 0 2.07 0.71 0c1.37,-0.42 2.08,-1.84 2.08,-4.16l-2.08 -1.51zm44.98 2.93l0 0.67 2.94 0.7 0.66 0 0 -0.7 -1.37 -1.38 -2.23 0.71zm2.23 2.08l0 2.08 1.37 -1.42 0 -0.66 -1.37 0zm11.2 4.16l2.08 0 2.07 -3.5 -0.7 0c-1.19,0 -2.32,1.19 -3.45,3.5zm-3.6 0l0 0.8 2.94 0 0 -0.8 -2.94 0zm-79.48 1.51c1.89,2.04 2.79,3.88 2.79,5.53l0.7 0c1.75,-1.84 3.17,-2.79 4.3,-2.79l0 -1.37c-1.41,0 -2.08,-0.47 -2.08,-1.37l-5.71 0zm19.66 1.37c0,2.13 -2.32,3.26 -7.05,3.45l0 3.64 0.71 0c1.85,-1.94 3.74,-2.93 5.68,-2.93 0,-1.84 0.66,-2.79 2.07,-2.79l0 -1.37 -1.41 0zm12.05 4.16l0 0.71 1.42 1.51 0.66 0 -0.66 -2.22 -1.42 0zm-10.64 1.51l0 1.42 4.31 0 0 -1.42 -4.31 0zm71.84 0l-0.67 2.09 0 0.7 0.67 0 1.41 -1.37 0 -1.42 -1.41 0zm-85.12 1.42l-0.71 0.67 0 0.7 2.75 0 0 -0.7 -2.04 -0.67zm7.75 5.53l2.75 0 1.37 -1.42 0 -0.66c-2.74,0.43 -4.12,1.14 -4.12,2.08zm76 4.3l2.07 0 0 -1.41 -0.7 0 -1.37 1.41zm-91.54 4.11l0 1.56 1.42 1.37 0.66 0 -0.66 -0.7 0 -0.67 0.66 -0.85 0 -0.71 -2.08 0zm143.61 4.3l1.38 1.37 0.66 0 0 -1.37 -2.04 0zm-57.75 7.09l0 1.37 0.67 0 1.41 -1.37 -2.08 0zm52.18 57.71l-0.8 0.7 0 0.71 2.22 0 -1.42 -1.41zm-28.22 4.15l1.37 1.42 3.6 0 0 -0.71 -3.6 -0.71 -1.37 0z"/>
  <path class="fil1" d="M535 622.11l-1.37 2.12 0.71 0 2.07 -0.81 -1.41 -1.31zm-4.12 14.1l0 1.35 0.67 0.63 1.42 0 0 -0.63 -1.42 -1.35 -0.67 0zm39.04 -148.97l42.91 0 -58.86 153.95 -43.61 0 59.56 -153.95zm-31.57 125.64l1.51 1.44 1.38 0 0 -1.44 -2.89 0zm23.39 -19.28l0 1.3 1.52 1.35 0.7 -0.67 0 -0.68 -1.41 -1.3 -0.81 0zm17.02 -75.78l1.41 1.49c4.12,-1.35 6.48,-2.7 7.05,-4.1l-0.71 -0.67c-2.32,2.2 -4.87,3.28 -7.75,3.28zm-19.52 17.84l0 1.44 1.37 1.31 0 -2.75 -1.37 0zm4.16 4.1l0 2.62 2.22 0 0 -0.63 -0.71 -1.99 -1.51 0zm10.54 -1.98l0 0.63 7.04 4.78 0 -2.66c-2.41,-1.58 -3.59,-3.61 -3.59,-6.08 -0.76,0 -1.42,1.12 -2.08,3.33l-1.37 0zm1.93 -45.14l0 0.77c1.47,0 2.89,0.9 4.3,2.66l0.67 0 2.08 -1.99 -2.08 -3.42 -0.67 0c-1.6,1.3 -3.02,1.98 -4.3,1.98zm-15.26 55.14l-0.66 4.1 2.08 1.98 0 1.31 -3.5 0.68 -2.03 0 -1.56 3.42 0 0.67 1.56 1.31 0.66 0 3.45 -0.68 0.71 3.34 0.71 0 0 -3.97c0.9,0 1.37,-0.9 1.37,-2.65l0.85 -0.77 0.66 0 2.79 0.77 0 -0.77c0,-0.9 -1.42,-1.76 -4.3,-2.66l-0.71 -3.29 0 -0.81 1.56 0 0 -0.63c-1.51,0 -2.22,-0.45 -2.22,-1.35l-1.42 0zm16.21 12.79l-2.08 -0.63 0 2.62 2.08 0c0,-1.76 1.65,-3.07 5.01,-3.92l0 -1.35 -0.71 0 -4.3 3.28zm2.93 4.78l0 1.31c1.84,-0.68 2.74,-1.36 2.74,-1.99l-2.74 0.68zm-15.5 2.66l2.08 0 0.66 -0.68 0.71 0 -0.71 -1.98 -2.74 2.66zm7.04 0l0 0.63c0,0.72 1.61,1.85 4.87,3.42l0 -1.44c-1.42,0 -2.08,-0.67 -2.08,-1.98l-0.71 -0.63 -2.08 0zm-9.26 6.03l0 0.68c1.93,0 2.88,0.9 2.88,2.66l1.42 0c0,-2.03 1.13,-3.79 3.45,-5.32 -5.2,0.45 -7.75,1.13 -7.75,1.98zm13.42 0l0 0.68 2.88 0 -0.8 -0.68 0 -0.63 -2.08 0.63zm19.66 -77.84c0,1.76 -0.47,2.61 -1.37,2.61l-2.22 -0.63 -0.71 0.63 0 2.12c1.46,0 2.22,0.68 2.22,1.98l0.71 0c0,-2.3 1.13,-3.42 3.45,-3.42l2.22 0c-0.95,-1.58 -2.36,-2.7 -4.3,-3.29zm-29.77 30.99l0 0.81 0.71 0c0.18,-2.11 2.07,-3.15 5.66,-3.15l0 -3.06c-4.25,1.58 -6.37,3.38 -6.37,5.4zm21.31 -15.54l1.37 0 1.42 -1.35 -1.42 0 -1.37 1.35zm-12.05 14.78l-0.8 3.15 2.22 0 0.66 -3.15 -2.08 0zm16.21 -6.76l0 1.35c-1.37,0 -2.08,0.41 -2.08,1.31l2.08 0 0.71 -1.98 0 -0.68 -0.71 0zm-7.04 4.1l2.22 0 1.37 -1.44 -2.08 0 -1.51 1.44zm-35.07 65.86l0 0.68 1.56 0c0,-0.99 0.66,-1.49 2.08,-1.49l0 -1.31 -3.64 2.12zm0.85 -21.89l0 0.63 1.51 2.12 0 1.3c0,1.35 -0.94,1.98 -2.88,1.98l0 0.68 3.59 0 0.71 -3.29c-0.94,-2.12 -1.89,-3.24 -2.93,-3.42zm-6.38 22.57l0 1.3 0.71 0 1.37 -1.3 -2.08 0zm4.16 6.71l1.37 1.31 2.22 0 0 -1.31 -3.59 0zm-6.38 3.96l1.56 1.98 2.08 -0.67 -0.71 -2.61 -2.93 1.3zm14.98 -19.77l0 1.3 2.22 0 0 -1.3 -2.22 0z"/>
  <path class="fil1" d="M517.44 444.4c3.32,0 5.74,1.99 7.24,6.04l-0.81 0.67 1.56 0 0.8 -0.67 0.81 0.67 0.91 0 2.36 -1.98 -4.08 -3.42 0 -1.31 0.81 0 0.91 0.63 0.8 0 0.75 -0.63 3.97 0.63 6.43 0 3.92 -0.63 0 0.63 0.8 -0.63 2.52 0 2.36 0.63 3.91 -0.63 13.68 0 6.27 1.31 1.72 -1.31 0.8 0 0.75 0.63 0.8 -0.63 31.91 0 1.55 1.31 0 0.63 -0.8 0 -3.92 -0.63 -0.75 0.63 0 0.68 6.44 1.44 0.75 -2.12 1.61 0 0 12.16c-3.92,-0.45 -6.81,-1.57 -8.8,-3.42l-4.88 0 0 -1.31 -4.72 0c0,-1.8 -1.12,-2.66 -3.32,-2.66l0 0.68c1.29,4.01 2.63,6.04 4.07,6.04 1.61,0 2.36,0.67 2.36,1.98l0.81 0.68 0.8 0c0,-1.76 0.81,-2.66 2.52,-2.66l2.36 -1.31 4.67 2.66 1.77 0 0.75 -0.68 0.8 0 0.81 4.64 0 8.83 -0.81 0.68 0.81 0.63 0 0.68 -0.81 4.59 -5.68 -0.63 -1.56 1.44 -1.55 0 0 -0.81 -5.69 0.81 -9.54 0 -0.8 -0.81 -0.81 0.81 -5.63 0 -0.8 -0.81 -0.75 0.81 -4.72 0 -3.32 -0.81 -3.12 0.81 -5.68 0 -1.55 -1.44 -6.27 1.44 -20.91 0c-1.08,0 -2.1,-1.35 -3.17,-4.1l-0.75 0 -1.61 1.98 -2.46 -0.67 0 0.67c0,1.4 -1.34,2.12 -3.97,2.12l-4.72 0 0 -1.44 3.97 0 0 -0.68 -0.81 -0.67 0.81 -1.98 0.75 0 0.8 0.67 0.81 0 0.75 -0.67 0 -3.29c0,-0.95 -0.75,-1.45 -2.36,-1.45l-0.75 0.68 -0.81 0 -2.36 -0.68 0.81 0.68 -0.81 0.77 0 0.67 0.81 1.99 -1.61 3.28 -1.71 0 0 -8.06 0.8 -0.63 -0.8 -0.68 0 -14.1 0.8 0c1.13,0 1.98,1.8 2.52,5.41l0.75 0c0,-2.75 0.54,-4.55 1.61,-5.41l0 -0.67 -4.88 -3.97 0 -2.11 0.91 -0.68 -0.91 -0.63 0 -1.31zm25.57 2.62l0 0.81 2.36 -0.81 0 -1.31 -0.75 0 -1.61 1.31zm3.33 -0.68l0 1.49 0.8 0 2.36 -0.81 0 -1.31 -0.8 0 -2.36 0.63zm31.9 2.12c1.55,0 3.43,0.9 5.63,2.65 0,-1.3 0.8,-1.98 2.36,-1.98 0,0.72 1.82,1.81 5.52,3.29l0 -1.31c-2.52,0 -4.88,-1.35 -7.08,-4.09l-4.88 0 -1.55 1.44zm-32.87 2.65l0 1.99 1.77 0 0 -0.68 -1.77 -1.31zm-15.06 1.31c0,2.48 1.34,4.28 3.91,5.41l4.13 -4.73 0 -0.68 -0.8 0c0,0.9 -1.13,1.35 -3.33,1.35l0 1.31 -0.75 0 0 -1.31 -1.61 -1.35 -1.55 0zm38.33 2.66l0 1.44 3.92 0 0 -1.44 -0.76 0.76 -0.8 0 -2.36 -0.76zm-25.63 1.44l0 0.68 0.81 1.98 0.8 0 1.72 -1.35 -3.33 -1.31zm41.66 1.31l0.75 2.66 1.61 0 1.56 -1.31 -1.56 -1.35 -2.36 0zm-58.44 1.35l0 1.31 1.72 0c0,0.85 0.8,1.3 2.36,1.3l0 4.78 1.55 0 0.81 -3.43c-3.06,-2.65 -5.2,-3.96 -6.44,-3.96zm59.19 2.61l0 2.79 0.81 0 0 -2.79 -0.81 0zm15.12 1.35l0.75 3.43 2.52 -1.99 -1.71 -1.44 -1.56 0zm-60.64 1.44l1.56 1.99 -3.91 1.3c0,0.72 1.01,1.35 3.16,1.98 0,-0.72 1.28,-1.35 3.91,-1.98l0.75 0.68 -0.75 -2.66 -0.8 0.68 -1.56 0 0 -1.99 -2.36 0zm33.46 1.31l0 2.66 2.52 0.63 1.55 -3.97 -4.07 0.68zm-47.93 2.66l0 0.63 0.8 0 4.08 -0.63 0 -1.35 -0.81 0 -4.07 1.35zm57.53 -0.68l0 1.31 2.46 4.78 0.81 0 0 -4.11c-1.02,0 -1.56,-0.67 -1.56,-1.98l-1.71 0zm-20.75 6.72l0 1.98 0.75 0 2.52 -0.63 0 -0.68 -3.27 -0.67zm22.46 0c0,1.35 -0.59,1.98 -1.71,1.98l0 1.35 3.27 -1.35 0 -1.98 -1.56 0z"/>
  <path class="fil0" d="M492.79 567.42l-0.53 -3.42 -0.5 0.52 -0.89 2.43 1.92 0.47zm25.29 7.19l-0.96 -1.55 -0.91 -0.24 -0.99 1.02 0.44 0.73 1.95 0.52 0.47 -0.48zm-15 59.52l-40.37 -131.43 22.29 -58.3 40.27 132.38 -22.19 57.35zm-5.65 -130.95l-2.09 -0.55 -0.96 0.99 1.02 1.65 2.03 -2.09zm-12.39 36.09l-0.92 -1.5 -2.02 -0.46 -0.02 1.29 0.48 0.78 1.91 0.47 0.57 -0.58zm20.41 35.11l-2.05 -0.67c-1.94,4.52 -2.65,7.78 -2.06,9.79l0.98 0.27c0.07,-4.21 1.1,-7.3 3.13,-9.39zm1.12 -34.58l-1.01 -1.65 -1.89 -0.51 1.94 3.15 0.96 -0.99zm-5.81 -1.69l-1.85 -3 -1.56 1.62 0.45 0.72 1.89 1.76 1.07 -1.1zm-6.01 9.91l-0.45 -0.73 -8.32 -0.37 1.88 3.05c2.8,0.06 5.07,1.53 6.81,4.37 0.54,-0.55 0.21,-2.32 -0.89,-5.33l0.97 -0.99zm2.31 -21.12l-2.43 -5.18 -2.86 -0.76 -0.93 -1.5 1.99 -3.31 1.43 -1.47 -1.32 -5.06 -0.48 -0.77 -2.02 -0.37 -0.47 0.48 -1.94 3.27 -2.86 -3.3 -0.5 0.51 2.8 4.55c-0.63,0.64 -0.32,2.02 0.92,4.03l-0.06 1.5 -0.47 0.48 -2.5 1.14 0.54 0.88c0.64,1.03 2.24,0.98 4.9,-0.07l2.82 3.26 0.58 0.92 -1.1 1.13 0.44 0.73c1.07,-1.1 1.89,-1.1 2.52,-0.06l1 -1.03zm-20.43 -2.92l1.91 -0.79 -1.85 -2.99 -1.46 1.5c1.24,2.02 1,4.71 -0.76,8.13l0.96 1.55 0.5 -0.52 0.7 -6.88zm-5.43 -3.35l-0.93 -1.5c-0.81,2.11 -0.97,3.53 -0.52,4.26l1.45 -2.76zm9.02 -14.28l-1.46 1.51 0.01 1.25 -0.5 0.51 1.9 1.76 0.05 -5.03zm-4.95 5.1l-0.45 -0.72c-0.51,-0.83 -2.43,-0.95 -5.84,-0.4l1.02 1.65c1,-1.02 1.94,-0.73 2.86,0.77l0.95 0.21 1.46 -1.51zm2.25 -13.63l-0.48 -0.77c-1.36,1.4 -2.66,1.05 -3.9,-0.96l-1 1.03c1.43,2.32 1.88,5.16 1.33,8.59 3.34,-4.28 4.65,-6.9 4.05,-7.89zm-9.44 9.73l-0.47 -0.78 -2.03 2.09 1.04 0.19 0.45 0.73 1.01 -2.23zm41.13 103.46c-1.24,-2.01 -1.51,-3.34 -0.88,-3.98l2.01 -0.89 0.05 -1.24 -1.49 -2.42c-1.03,1.06 -2.04,0.83 -2.96,-0.67l-0.5 0.52c1.62,2.63 1.62,4.74 -0.01,6.42l-1.56 1.61c1.77,1.12 3.57,1.38 5.34,0.65zm-0.94 -57.09l-0.58 -0.93 -0.49 0.51c1.36,2.57 0.76,5.13 -1.76,7.73l2.16 3.51c1.88,-4.89 2.1,-8.5 0.67,-10.82zm-4.02 33.25l-0.96 1 -0.04 2.57 0.99 -1.03 0.01 -2.54zm-1.96 -25.66l-1.66 -4.2 -1.56 1.61 1.76 4.09 1.46 -1.5zm-6.62 19.49l-0.96 -1.55c0.97,-1 1.18,-1.97 0.54,-3.01l-1.46 1.51 0.9 2.78 0.48 0.78 0.5 -0.51zm2.06 -9.8l-1.57 1.6 0.06 2.65 1.46 -1.51 0.05 -2.74zm9.52 -45.67l-0.48 -0.77 -1.1 1.13c0.7,1.13 0.59,2.18 -0.41,3.21l0.93 1.5 1.06 -5.07zm-16.5 -29.51l-0.45 -0.73 -2.56 -1.33 -0.92 -1.5c-0.95,-1.55 -0.73,-2.95 0.63,-4.36l-0.48 -0.77 -2.52 2.6 1.82 4.28c2.16,1.74 3.62,2.35 4.48,1.81zm10.2 21.96l-0.93 -1.5 -0.49 0.51 -0.05 2.49 1.47 -1.5zm-22.1 -45.48l-1.89 -0.51 -1.56 1.61 0.93 1.5 2.52 -2.6zm9.81 1.78l-2.5 -1.14 -0.98 2.28 2.34 2.48 1.14 -3.62zm-11.91 10.92l-0.92 -1.5 -1.56 1.61 0.92 1.5 1.56 -1.61z"/>
 </g>
</svg>
