<svg xmlns="http://www.w3.org/2000/svg" xml:space="preserve" width="900px" height="900px" version="1.1" style="shape-rendering:geometricPrecision; text-rendering:geometricPrecision; image-rendering:optimizeQuality; fill-rule:evenodd; clip-rule:evenodd" viewBox="0 0 900 900">
 <defs>
  <style type="text/css">
   
    .fil0 {fill:currentColor;fill-rule:nonzero}
   
  </style>
 </defs>
 <g id="Camada_x0020_1">
  <metadata id="CorelCorpID_0Corel-Layer" />
  <path class="fil0" d="M321.57 872.79c63.84,-47.11 113.45,-90.87 148.48,-123.86 137.07,-129.15 143.69,-181.21 144.63,-202.19 0.38,-8.66 2.27,-72.44 -40.02,-109.54 -53.16,-46.63 -159.97,-36.88 -253.06,40.11l-0.01 -477.31 -36.4 0 0 822.99 0 77.01 36.38 -27.21 0 0zm0 -372.06c88.49,-63.26 178.97,-76.6 225.68,-38.09 21.67,17.85 36.39,51.54 36.39,84.96 0,42.06 -24.28,73.05 -42.79,95.1 -73.8,87.91 -167.35,166.49 -219.27,208.02l0.01 -349.99 -0.02 0z" />
  <polygon id="minimize_50dp_E3E3E3_FILL0_wght400_GRAD0_opsz48.svg" class="fil0" points="465.52,215.81 465.52,187.69 690.98,187.69 690.98,215.81 " />
 </g>
</svg>