<svg xmlns="http://www.w3.org/2000/svg" xml:space="preserve" width="338px" height="412px" version="1.1" style="shape-rendering:geometricPrecision; text-rendering:geometricPrecision; image-rendering:optimizeQuality; fill-rule:evenodd; clip-rule:evenodd" viewBox="0 0 338 413.11">
 <defs>
  <style type="text/css">
   
    .fil0 {fill:currentColor;fill-rule:nonzero}
   
  </style>
 </defs>
 <g id="Camada_x0020_1">
  <metadata id="CorelCorpID_0Corel-Layer" />
  <g id="_1400812616176">
   <path id="file_save_50dp_E3E3E3_FILL0_wght400_GRAD0_opsz48.svg" class="fil0" d="M266.83 355.65l68.54 -68.54 -19.72 -19.72 -34.74 34.74 0 -84.97 -28.16 0 0 84.97 -34.74 -34.74 -19.72 19.72 68.54 68.54zm-70.42 58.21l0 -28.17 140.84 0 0 28.17 -140.84 0zm-169 -75.11c-7.51,0 -14.08,-2.82 -19.71,-8.45 -5.64,-5.64 -8.45,-12.21 -8.45,-19.72l0 -281.67c0,-7.51 2.81,-14.08 8.45,-19.71 5.63,-5.64 12.2,-8.45 19.71,-8.45l143.65 0 109.85 109.84 0 78.4 -28.16 0 0 -66.19 -93.89 0 0 -93.89 -131.45 0 0 281.67 140.84 0 0 28.17 -140.84 0zm0 -28.17l0 -281.67 0 281.67z" />
   <path id="picture_as_pdf_50dp_E3E3E3_FILL0_wght400_GRAD0_opsz48.svg" class="fil0" d="M58.85 236.34l14.23 0 0 -31.93 18.47 0c4.03,0 7.41,-1.36 10.14,-4.09 2.73,-2.73 4.09,-6.11 4.09,-10.14l0 -18.47c0,-4.03 -1.36,-7.41 -4.09,-10.14 -2.73,-2.73 -6.11,-4.09 -10.14,-4.09l-32.7 0 0 78.86zm14.23 -46.16l0 -18.47 18.47 0 0 18.47 -18.47 0zm49.63 46.16l32.31 0c3.85,0 7.18,-1.36 10.01,-4.09 2.82,-2.73 4.23,-6.1 4.23,-10.14l0 -50.4c0,-4.03 -1.41,-7.41 -4.23,-10.14 -2.83,-2.73 -6.16,-4.09 -10.01,-4.09l-32.31 0 0 78.86zm14.23 -14.23l0 -50.4 18.08 0 0 50.4 -18.08 0zm51.17 14.23l14.23 0 0 -31.93 19.24 0 0 -14.23 -19.24 0 0 -18.47 19.24 0 0 -14.23 -33.47 0 0 78.86z" />
  </g>
 </g>
</svg>