<svg xmlns="http://www.w3.org/2000/svg" xml:space="preserve" width="385px" height="385px" version="1.1" style="shape-rendering:geometricPrecision; text-rendering:geometricPrecision; image-rendering:optimizeQuality; fill-rule:evenodd; clip-rule:evenodd" viewBox="0 0 385 385">
 <defs>
  <style type="text/css">
   
    .fil0 {fill:currentColor;fill-rule:nonzero}
   
  </style>
 </defs>
 <g id="Camada_x0020_1">
  <metadata id="CorelCorpID_0Corel-Layer" />
  <path id="icon-admin-restore.svg" class="fil0" d="M185.19 343.25l0 -0.23 0 0.23c-10.31,0.31 -25.54,-0.46 -45.7,-2.34 -20.16,-1.88 -40.24,-5.55 -60.23,-11.02 -20.01,-5.47 -37.51,-13.12 -52.5,-22.97 -15,-9.84 -22.5,-22.73 -22.5,-38.67 0,15.94 7.5,28.83 22.5,38.67 14.99,9.85 32.49,17.5 52.5,22.97 19.99,5.47 40.07,9.14 60.23,11.02 20.16,1.88 35.39,2.65 45.7,2.34zm-12.65 -100.31l0 -0.47 0 0.47c-16.25,0 -31.1,-0.7 -44.54,-2.11 -13.43,-1.41 -25.78,-3.51 -37.03,-6.33 -11.25,-2.81 -21.72,-6.17 -31.4,-10.07 -9.69,-3.91 -18.75,-8.36 -27.19,-13.36 8.44,5 17.5,9.45 27.19,13.36 9.68,3.9 20.15,7.26 31.4,10.07 11.25,2.82 23.6,4.92 37.03,6.33 13.44,1.41 28.29,2.11 44.54,2.11zm0.46 -128.43c26.88,0 54.46,-4.15 82.74,-12.43 28.28,-8.28 46.48,-17.58 54.61,-27.89 -8.44,-10 -26.8,-19.22 -55.08,-27.66 -28.28,-8.43 -55.7,-12.65 -82.27,-12.65 -27.49,0 -55.15,4.06 -82.96,12.19 -27.82,8.12 -46.1,17.5 -54.85,28.12 8.75,10.94 26.88,20.39 54.38,28.36 27.5,7.97 55.31,11.96 83.43,11.96zm2.35 200.62c0.94,5 2.26,9.84 3.98,14.53 1.72,4.69 3.67,9.22 5.86,13.59 -10.31,0.31 -25.54,-0.46 -45.7,-2.34 -20.16,-1.88 -40.24,-5.55 -60.23,-11.02 -20.01,-5.47 -37.51,-13.12 -52.5,-22.97 -15,-9.84 -22.5,-22.73 -22.5,-38.67l0 -187.5c0,-20.62 16.48,-38.28 49.45,-52.96 32.97,-14.69 72.73,-22.04 119.29,-22.04 46.57,0 86.33,7.35 119.3,22.04 32.97,14.68 49.45,32.34 49.45,52.97l0 105.93c-4.37,-2.19 -8.9,-4.14 -13.59,-5.86 -4.69,-1.72 -9.53,-3.05 -14.53,-3.98l0 -67.04c-18.44,10.32 -40,18.37 -64.69,24.15 -24.69,5.78 -50.15,8.67 -76.4,8.67 -26.57,0 -52.27,-2.89 -77.11,-8.67 -24.85,-5.78 -45.86,-13.83 -63.05,-24.14l0 72.65c16.88,10 37.66,17.89 62.34,23.68 24.69,5.77 50.63,8.67 77.82,8.67 5.31,0 10.46,-0.08 15.46,-0.24 5,-0.15 10.16,-0.54 15.47,-1.17 -4.06,4.37 -7.65,9.06 -10.78,14.06 -3.12,5 -5.93,10.16 -8.44,15.47l-11.71 0c-32.82,0 -60.08,-2.81 -81.8,-8.44 -21.72,-5.62 -41.17,-13.43 -58.36,-23.43l0 59.06c1.56,5.31 7.03,10.7 16.41,16.17 9.37,5.47 20.86,10.31 34.45,14.53 13.59,4.22 28.52,7.66 44.76,10.31 16.25,2.66 32.04,3.99 47.35,3.99z" />
  <path id="icon-admin-restore.svg_0" class="fil0" d="M283.53 344.88l14.06 0 0 -80.16 36.09 36.09 9.85 -9.84 -52.97 -52.97 -52.97 52.97 9.84 9.84 36.09 -36.09 0 80.16 0.01 0zm-55.78 9.61c-17.5,-17.35 -26.25,-38.21 -26.25,-62.58 0,-24.69 8.75,-45.78 26.25,-63.28 17.5,-17.5 38.44,-26.25 62.81,-26.25 24.37,0 45.31,8.75 62.81,26.25 17.5,17.5 26.25,38.59 26.25,63.28 0,24.37 -8.75,45.23 -26.25,62.58 -17.5,17.34 -38.44,26.01 -62.81,26.01 -24.37,0 -45.31,-8.67 -62.81,-26.01z" />
 </g>
</svg>