<svg xmlns="http://www.w3.org/2000/svg" xml:space="preserve" width="367px" height="424px" version="1.1" style="shape-rendering:geometricPrecision; text-rendering:geometricPrecision; image-rendering:optimizeQuality; fill-rule:evenodd; clip-rule:evenodd" viewBox="0 0 367 425.03">
 <defs>
  <style type="text/css">
   
    .str0 {stroke:currentColor;stroke-width:8.01;stroke-linecap:round;stroke-linejoin:round;stroke-miterlimit:22.9256}
    .fil0 {fill:none}
   
  </style>
 </defs>
 <g id="Camada_x0020_1">
  <metadata id="CorelCorpID_0Corel-Layer" />
  <g id="universal-tuner-svgrepo-com.svg">
   <path class="fil0 str0" d="M216.33 8.76l0 242.85c0,18.55 -15.04,33.58 -33.58,33.58l0 0c-18.54,0 -33.58,-15.03 -33.58,-33.58l0 -242.85" />
   <line class="fil0 str0" x1="182.75" y1="285.19" x2="182.75" y2="382.68" />
   <circle class="fil0 str0" cx="182.75" cy="400.23" r="17.55" />
   <path class="fil0 str0" d="M110.56 78.13c-20.4,19.63 -31.95,46.74 -31.95,75.07 0,25.19 9.16,49.57 25.74,68.54" />
   <path class="fil0 str0" d="M261.15 221.75c16.58,-18.98 25.74,-43.36 25.74,-68.55 0,-28.32 -11.55,-55.45 -31.96,-75.07" />
   <path class="fil0 str0" d="M62.25 32.05c-32.22,32.05 -50.37,75.69 -50.37,121.14 0,42.35 15.77,83.24 44.16,114.63" />
   <path class="fil0 str0" d="M309.47 267.82c28.38,-31.39 44.15,-72.28 44.15,-114.62 0,-45.31 -18.03,-88.81 -50.05,-120.83" />
  </g>
 </g>
</svg>