<?xml version="1.0" encoding="UTF-8"?>
<!DOCTYPE svg PUBLIC "-//W3C//DTD SVG 1.1//EN" "http://www.w3.org/Graphics/SVG/1.1/DTD/svg11.dtd">
<!-- Creator: CorelDRAW 2026 -->
<svg xmlns="http://www.w3.org/2000/svg" xml:space="preserve" width="1080px" height="1080px" version="1.1" style="shape-rendering:geometricPrecision; text-rendering:geometricPrecision; image-rendering:optimizeQuality; fill-rule:evenodd; clip-rule:evenodd"
viewBox="0 0 1080 1080"
 xmlns:xlink="http://www.w3.org/1999/xlink"
 xmlns:xodm="http://www.corel.com/coreldraw/odm/2003">
 <defs>
  <style type="text/css">
   <![CDATA[
    .fil0 {fill:#F90101;fill-rule:nonzero}
    .fil1 {fill:white;fill-rule:nonzero}
   ]]>
  </style>
 </defs>
 <g id="Camada_x0020_1">
  <metadata id="CorelCorpID_0Corel-Layer"/>
  <path class="fil0" d="M522.65 929.11l-6.86 10.6 3.55 0 10.4 -4.06 -7.09 -6.54zm-20.57 70.55l0 6.76 3.31 3.16 7.09 0 0 -3.16 -7.09 -6.76 -3.31 0zm195.3 -745.36l214.69 0 -294.5 770.26 -218.2 0 298.01 -770.26zm-157.94 628.61l7.56 7.21 6.86 0 0 -7.21 -14.42 0zm117.04 -96.47l0 6.54 7.56 6.76 3.55 -3.38 0 -3.38 -7.09 -6.54 -4.02 0zm85.12 -379.1l7.09 7.43c20.57,-6.76 32.39,-13.52 35.23,-20.51l-3.55 -3.38c-11.58,11.05 -24.35,16.46 -38.77,16.46zm-97.66 89.25l0 7.21 6.86 6.54 0 -13.75 -6.86 0zm20.81 20.51l0 13.08 11.11 0 0 -3.16 -3.54 -9.92 -7.57 0zm52.73 -9.92l0 3.16 35.23 23.89 0 -13.3c-12.06,-7.89 -17.97,-18.03 -17.97,-30.42 -3.78,0 -7.1,5.63 -10.41,16.67l-6.85 0zm9.69 -225.83l0 3.83c7.33,0 14.43,4.5 21.52,13.29l3.31 0 10.4 -9.91 -10.4 -17.13 -3.31 0c-8.04,6.54 -15.13,9.92 -21.52,9.92zm-76.37 275.87l-3.31 20.51 10.41 9.92 0 6.53 -17.5 3.39 -10.17 0 -7.8 17.13 0 3.38 7.8 6.53 3.31 0 17.26 -3.38 3.55 16.68 3.55 0 0 -19.83c4.49,0 6.85,-4.51 6.85,-13.3l4.26 -3.83 3.31 0 13.95 3.83 0 -3.83c0,-4.51 -7.1,-8.79 -21.52,-13.3l-3.55 -16.45 0 -4.06 7.81 0 0 -3.16c-7.57,0 -11.11,-2.25 -11.11,-6.76l-7.1 0zm81.1 64.01l-10.4 -3.15 0 13.07 10.4 0c0,-8.79 8.28,-15.33 25.06,-19.61l0 -6.76 -3.54 0 -21.52 16.45zm14.66 23.89l0 6.54c9.22,-3.38 13.71,-6.76 13.71,-9.92l-13.71 3.38zm-77.55 13.3l10.4 0 3.31 -3.38 3.55 0 -3.55 -9.92 -13.71 13.3zm35.23 0l0 3.16c0,3.6 8.04,9.24 24.35,17.13l0 -7.22c-7.09,0 -10.4,-3.38 -10.4,-9.91l-3.55 -3.16 -10.4 0zm-46.34 30.2l0 3.38c9.69,0 14.42,4.51 14.42,13.3l7.09 0c0,-10.14 5.68,-18.93 17.26,-26.59 -26.01,2.25 -38.77,5.63 -38.77,9.91zm67.14 0l0 3.38 14.43 0 -4.02 -3.38 0 -3.15 -10.41 3.15zm98.37 -389.47c0,8.79 -2.37,13.07 -6.86,13.07l-11.12 -3.15 -3.54 3.15 0 10.6c7.33,0 11.11,3.38 11.11,9.91l3.55 0c0,-11.49 5.67,-17.13 17.26,-17.13l11.11 0c-4.73,-7.89 -11.82,-13.52 -21.51,-16.45zm-148.97 155.07l0 4.05 3.55 0c0.95,-10.59 10.41,-15.77 28.38,-15.77l0 -15.33c-21.28,7.89 -31.93,16.91 -31.93,27.05zm106.64 -77.76l6.86 0 7.09 -6.76 -7.09 0 -6.86 6.76zm-60.29 73.93l-4.02 15.77 11.11 0 3.31 -15.77 -10.4 0zm81.1 -33.81l0 6.76c-6.86,0 -10.4,2.03 -10.4,6.54l10.4 0 3.54 -9.92 0 -3.38 -3.54 0zm-35.23 20.51l11.11 0 6.86 -7.21 -10.41 0 -7.56 7.21zm-175.44 329.52l0 3.38 7.8 0c0,-4.96 3.31,-7.44 10.4,-7.44l0 -6.54 -18.2 10.6zm4.25 -109.54l0 3.15 7.57 10.6 0 6.53c0,6.77 -4.73,9.92 -14.42,9.92l0 3.38 17.97 0 3.54 -16.45c-4.73,-10.6 -9.45,-16.23 -14.66,-17.13zm-31.92 112.92l0 6.54 3.55 0 6.86 -6.54 -10.41 0zm20.81 33.58l6.86 6.54 11.11 0 0 -6.54 -17.97 0zm-31.92 19.84l7.8 9.91 10.41 -3.38 -3.55 -13.07 -14.66 6.54zm74.95 -98.95l0 6.54 11.12 0 0 -6.54 -11.12 0z"/>
  <path class="fil0" d="M434.81 40c16.63,0 28.7,9.91 36.21,30.2l-4.02 3.38 7.77 0 4.03 -3.38 4.02 3.38 4.56 0 11.81 -9.92 -20.39 -17.13 0 -6.53 4.02 0 4.56 3.15 4.03 0 3.75 -3.15 19.85 3.15 32.19 0 19.59 -3.15 0 3.15 4.02 -3.15 12.61 0 11.8 3.15 19.58 -3.15 68.4 0 31.39 6.53 8.58 -6.53 4.03 0 3.75 3.15 4.03 -3.15 159.61 0 7.77 6.53 0 3.16 -4.02 0 -19.58 -3.16 -3.76 3.16 0 3.38 32.19 7.21 3.76 -10.59 8.05 0 0 60.85c-19.59,-2.25 -34.07,-7.89 -44,-17.13l-24.41 0 0 -6.53 -23.6 0c0,-9.02 -5.63,-13.3 -16.63,-13.3l0 3.38c6.43,20.06 13.14,30.2 20.38,30.2 8.05,0 11.81,3.38 11.81,9.92l4.02 3.38 4.02 0c0,-8.79 4.03,-13.3 12.61,-13.3l11.8 -6.53 23.34 13.29 8.85 0 3.76 -3.38 4.02 0 4.03 23.22 0 44.18 -4.03 3.38 4.03 3.15 0 3.38 -4.03 22.99 -28.43 -3.15 -7.78 7.21 -7.78 0 0 -4.06 -28.43 4.06 -47.75 0 -4.03 -4.06 -4.02 4.06 -28.17 0 -4.02 -4.06 -3.76 4.06 -23.6 0 -16.63 -4.06 -15.56 4.06 -28.44 0 -7.77 -7.21 -31.39 7.21 -104.62 0c-5.36,0 -10.46,-6.76 -15.83,-20.51l-3.75 0 -8.05 9.91 -12.34 -3.38 0 3.38c0,6.99 -6.7,10.6 -19.85,10.6l-23.6 0 0 -7.21 19.85 0 0 -3.39 -4.03 -3.38 4.03 -9.91 3.75 0 4.03 3.38 4.02 0 3.75 -3.38 0 -16.46c0,-4.73 -3.75,-7.21 -11.8,-7.21l-3.75 3.38 -4.03 0 -11.8 -3.38 4.02 3.38 -4.02 3.83 0 3.39 4.02 9.91 -8.04 16.45 -8.59 0 0 -40.34 4.03 -3.16 -4.03 -3.38 0 -70.54 4.03 0c5.63,0 9.92,9.01 12.6,27.04l3.76 0c0,-13.74 2.68,-22.76 8.05,-27.04l0 -3.38 -24.41 -19.84 0 -10.59 4.56 -3.38 -4.56 -3.16 0 -6.53zm127.95 13.07l0 4.06 11.8 -4.06 0 -6.54 -3.75 0 -8.05 6.54zm16.63 -3.38l0 7.44 4.03 0 11.8 -4.06 0 -6.54 -4.02 0 -11.81 3.16zm159.61 10.59c7.78,0 17.17,4.51 28.17,13.3 0,-6.54 4.02,-9.92 11.8,-9.92 0,3.61 9.12,9.02 27.63,16.46l0 -6.54c-12.61,0 -24.41,-6.76 -35.41,-20.51l-24.41 0 -7.78 7.21zm-164.44 13.3l0 9.92 8.86 0 0 -3.38 -8.86 -6.54zm-75.37 6.54c0,12.39 6.7,21.41 19.58,27.04l20.65 -23.66 0 -3.38 -4.02 0c0,4.5 -5.63,6.76 -16.63,6.76l0 6.53 -3.76 0 0 -6.53 -8.05 -6.76 -7.77 0zm191.8 13.29l0 7.22 19.58 0 0 -7.22 -3.76 3.83 -4.02 0 -11.8 -3.83zm-128.23 7.22l0 3.38 4.03 9.91 4.02 0 8.58 -6.76 -16.63 -6.53zm208.43 6.53l3.76 13.3 8.05 0 7.77 -6.54 -7.77 -6.76 -11.81 0zm-292.39 6.76l0 6.54 8.58 0c0,4.28 4.03,6.54 11.81,6.54l0 23.89 7.77 0 4.03 -17.13c-15.29,-13.3 -26.02,-19.84 -32.19,-19.84zm296.15 13.08l0 13.97 4.02 0 0 -13.97 -4.02 0zm75.64 6.76l3.76 17.13 12.61 -9.92 -8.59 -7.21 -7.78 0zm-303.39 7.21l7.78 9.92 -19.58 6.53c0,3.61 5.1,6.77 15.83,9.92 0,-3.6 6.43,-6.76 19.58,-9.92l3.75 3.38 -3.75 -13.29 -4.02 3.38 -7.78 0 0 -9.92 -11.81 0zm167.39 6.54l0 13.29 12.61 3.16 7.78 -19.83 -20.39 3.38zm-239.82 13.29l0 3.16 4.03 0 20.39 -3.16 0 -6.76 -4.03 0 -20.39 6.76zm287.84 -3.38l0 6.54 12.34 23.89 4.02 0 0 -20.51c-5.1,0 -7.78,-3.38 -7.78,-9.92l-8.58 0zm-103.81 33.59l0 9.91 3.75 0 12.61 -3.15 0 -3.38 -16.36 -3.38zm112.39 0c0,6.76 -2.95,9.91 -8.58,9.91l0 6.77 16.36 -6.77 0 -9.91 -7.78 0z"/>
  <path class="fil1" d="M311.48 655.5l-2.66 -17.11 -2.49 2.57 -4.45 12.18 9.6 2.36zm126.53 35.94l-4.78 -7.75 -4.55 -1.22 -4.99 5.14 2.23 3.62 9.76 2.61 2.33 -2.4zm-75.05 297.79l-201.96 -657.58 111.51 -291.65 201.47 662.29 -111.02 286.94zm-28.29 -655.14l-10.41 -2.79 -4.82 4.97 5.09 8.27 10.14 -10.45zm-61.97 180.52l-4.61 -7.49 -10.09 -2.27 -0.11 6.44 2.38 3.88 9.61 2.35 2.82 -2.91zm102.1 175.71l-10.24 -3.39c-9.69,22.65 -13.23,38.97 -10.29,49.03l4.88 1.31c0.35,-21.06 5.51,-36.51 15.65,-46.95zm5.65 -173.04l-5.09 -8.27 -9.43 -2.53 9.7 15.76 4.82 -4.96zm-29.11 -8.44l-9.22 -14.99 -7.82 8.05 2.23 3.62 9.49 8.8 5.32 -5.48zm-30.07 49.56l-2.23 -3.62 -41.63 -1.86 9.38 15.24c14.05,0.31 25.37,7.65 34.12,21.86 2.66,-2.74 1.01,-11.6 -4.46,-26.65l4.82 -4.97zm11.56 -105.65l-12.15 -25.91 -14.32 -3.83 -4.61 -7.49 9.92 -16.55 7.14 -7.37 -6.6 -25.28 -2.39 -3.88 -10.1 -1.84 -2.33 2.4 -9.75 16.38 -14.26 -16.55 -2.5 2.57 14 22.73c-3.16,3.26 -1.64,10.14 4.57,20.21l-0.29 7.48 -2.32 2.4 -12.52 5.71 2.71 4.39c3.18,5.17 11.19,4.94 24.51,-0.34l14.11 16.29 2.86 4.65 -5.48 5.65 2.23 3.62c5.32,-5.49 9.4,-5.47 12.58,-0.3l4.99 -5.14zm-102.21 -14.62l9.54 -3.92 -9.23 -14.99 -7.31 7.54c6.2,10.08 5,23.56 -3.78,40.63l4.77 7.75 2.49 -2.57 3.52 -34.44zm-27.18 -16.77l-4.61 -7.49c-4.1,10.55 -4.87,17.68 -2.64,21.3l7.25 -13.81zm45.15 -71.42l-7.32 7.53 0.06 6.28 -2.49 2.57 9.49 8.8 0.26 -25.18zm-24.77 25.52l-2.23 -3.62c-2.55,-4.13 -12.18,-4.77 -29.22,-1.99l5.09 8.27c4.99,-5.14 9.71,-3.66 14.32,3.83l4.72 1.05 7.32 -7.54zm11.26 -68.19l-2.38 -3.87c-6.82,7.02 -13.33,5.28 -19.53,-4.8l-4.99 5.14c7.16,11.63 9.37,25.81 6.64,42.99 16.69,-21.43 23.29,-34.55 20.26,-39.46zm-47.21 48.64l-2.39 -3.87 -10.14 10.45 5.21 0.96 2.23 3.62 5.09 -11.16zm205.78 517.67c-6.21,-10.07 -7.57,-16.69 -4.41,-19.95l10.04 -4.43 0.27 -6.19 -7.48 -12.14c-5.15,5.31 -10.2,4.18 -14.81,-3.31l-2.5 2.56c8.12,13.18 8.1,23.75 -0.04,32.14l-7.82 8.05c8.9,5.62 17.86,6.94 26.75,3.27zm-4.73 -285.64l-2.86 -4.65 -2.5 2.57c6.82,12.82 3.83,25.62 -8.81,38.64l10.82 17.56c9.39,-24.45 10.51,-42.49 3.35,-54.12zm-20.09 166.37l-4.82 4.97 -0.21 12.89 4.99 -5.14 0.04 -12.72zm-9.79 -128.41l-8.31 -21 -7.82 8.05 8.82 20.49 7.31 -7.54zm-33.16 97.5l-4.77 -7.75c4.82,-4.97 5.88,-9.86 2.7,-15.03l-7.32 7.54 4.51 13.94 2.39 3.87 2.49 -2.57zm10.29 -49.03l-7.81 8.05 0.27 13.24 7.31 -7.54 0.23 -13.75zm47.65 -228.46l-2.39 -3.88 -5.48 5.66c3.5,5.68 2.92,10.92 -2.07,16.06l4.62 7.49 5.32 -25.33zm-82.57 -147.69l-2.23 -3.61 -12.8 -6.66 -4.61 -7.5c-4.77,-7.75 -3.68,-14.79 3.14,-21.81l-2.39 -3.88 -12.63 13.02 9.12 21.43c10.8,8.71 18.11,11.75 22.4,9.01zm51.04 109.89l-4.62 -7.49 -2.49 2.57 -0.21 12.45 7.32 -7.53zm-110.55 -227.54l-9.43 -2.53 -7.82 8.05 4.62 7.5 12.63 -13.02zm49.05 8.93l-12.48 -5.72 -4.93 11.41 11.72 12.42 5.69 -18.11zm-59.56 54.6l-4.61 -7.49 -7.82 8.05 4.62 7.49 7.81 -8.05z"/>
 </g>
</svg>
