<svg xmlns="http://www.w3.org/2000/svg" xml:space="preserve" width="418px" height="424px" version="1.1" style="shape-rendering:geometricPrecision; text-rendering:geometricPrecision; image-rendering:optimizeQuality; fill-rule:evenodd; clip-rule:evenodd" viewBox="0 0 418 423.99" enable-background="new 0 0 96 96">
 <defs>
  <style type="text/css">
   
    .fil0 {fill:currentColor;fill-rule:nonzero}
   
  </style>
 </defs>
 <g id="Camada_x0020_1">
  <metadata id="CorelCorpID_0Corel-Layer" />
  <g id="_1400853188832">
   <path class="fil0" d="M109.91 142.42c-27.27,0 -49.46,-22.19 -49.46,-49.46 0,-27.27 22.19,-49.46 49.46,-49.46 27.27,0 49.46,22.19 49.46,49.46 0,27.27 -22.19,49.46 -49.46,49.46zm0 -89.61c-22.14,0 -40.15,18.02 -40.15,40.15 0,22.14 18.01,40.15 40.15,40.15 22.14,0 40.15,-18.01 40.15,-40.15 0,-22.13 -18.01,-40.15 -40.15,-40.15z" />
   <path class="fil0" d="M411.12 138.94c-2.96,-6.76 -9.67,-9.24 -11.58,-9.82 -9.64,-4.34 -236.6,-106.44 -258.15,-115.51 -7.35,-3.1 -17.45,-4.88 -27.72,-4.88 -18.22,0 -62.79,5.73 -83.17,58.7 -22.36,58.16 -3.2,170.05 -0.5,184.92 -43.83,94.67 -21.38,146.32 -9.99,156.97 0.5,0.48 0.78,0.73 0.93,0.89 0.28,0.33 0.6,0.64 0.97,0.88 5.53,3.76 10.82,5.66 15.73,5.66 8.96,0 14.7,-6.19 16.88,-11.5 2.86,-6.92 1.67,-18.25 -0.77,-26.38 -2.28,-7.62 -11.22,-40.66 -11.26,-40.77 -3.26,-15.01 21.51,-61.35 38.96,-88.85 0.71,-1.12 0.91,-2.5 0.53,-3.79 -0.37,-1.28 -1.28,-2.35 -2.49,-2.91l-20.67 -9.64 -2.72 -98.78 3.27 2.94 0 90.31c0,0.8 0.41,1.54 1.1,1.97 0.37,0.23 0.8,0.35 1.23,0.35 0.35,0 0.7,-0.08 1.03,-0.24l9.85 -4.85c0.79,-0.4 1.3,-1.21 1.3,-2.09l-0.18 -72.57c2.99,2.68 5.85,5.25 8.54,7.66l9.12 33.29c0.28,1.03 1.21,1.72 2.24,1.72 0.12,0 0.25,-0.01 0.38,-0.03l5.34 -0.89c1.12,-0.18 1.95,-1.15 1.95,-2.29l0 -14.87c28.71,25.32 38.13,31.94 67.93,51.85 14.04,9.39 29.28,14.14 45.28,14.14 21.74,0 36.99,-8.84 37.28,-9.04 2.52,-1.2 10.22,-4.33 15.58,-4.33 3.13,0 3.41,0.96 3.54,1.43 2.22,7.69 -4.48,13.63 -5.08,14.17l-20.95 21.73c-0.23,0.24 -0.44,0.5 -0.61,0.79 -31.88,51.68 58.21,137.21 62.05,140.81 5.33,5.05 10.67,7.6 15.89,7.6 6.95,0 11.77,-4.65 13.65,-7.56 3.08,-4.16 2.74,-7.91 2.56,-9.73 0,-5.13 -5.13,-11.85 -7.54,-14.72l-41.25 -61.58c-10.32,-26.74 -6.18,-51.32 12.31,-73.06 14.19,-16.73 31.95,-25.48 32.12,-25.57 2.08,-1.01 3.11,-3.39 2.41,-5.59l-6.19 -19.57 8.8 -1.6c1.22,-0.22 2.31,-0.92 3.01,-1.95 0.7,-1.02 0.97,-2.28 0.73,-3.5l-2.96 -15.57c-0.48,-2.5 -2.87,-4.15 -5.36,-3.72l-69.94 12.1 -34.1 -1.79c-2.33,-0.13 -4.31,1.44 -4.8,3.67l-4.07 18.85c-0.05,0.24 0,0.47 -0.01,0.7l-16.98 2.55 3.06 -7.8c0.79,-2.01 0.09,-4.3 -1.68,-5.53l-56.22 -38.85 22.15 -36.94c0.01,0 0.01,0 0.01,0 4.85,4.58 11.33,6.98 18.14,6.98 5.11,0 8.47,-0.69 13.89,-4.27 0.01,0 0.02,0 0.02,0 4.14,0 15.45,1.5 21.29,2.63 14.25,2.74 41.05,10.91 79.68,24.02 16,5.43 56.85,21.74 67.68,26.06 -0.47,1.45 -0.21,3.11 0.78,4.35 4.38,5.48 8.98,6.65 12.08,6.65 7.91,0 13.34,-7.14 13.94,-7.96 0.12,-0.17 0.24,-0.35 0.34,-0.54l9.31 -17.46c3.69,-6.94 4.39,-13.15 2.08,-18.45zm-341.91 82.14l-5.18 2.55 0 -82.37c1.71,1.54 3.38,3.04 5.01,4.5l0.17 75.32zm27.4 -33.64l-1.32 0.22 -6.65 -24.33c2.81,2.51 5.47,4.87 7.97,7.09l0 17.02zm137.26 2.35l30.67 1.61c0.34,0.02 0.69,0 1.03,-0.06l65.94 -11.41 1.24 6.46 -13.14 2.38 -88.38 13.28 2.64 -12.26zm-36.27 8.5l-2.81 7.15c-13.9,-5.18 -41.61,-24.97 -59.63,-39.25l3.22 -7.64 3.04 0.92 56.18 38.82zm-7.59 -83.41c-5.12,0 -9.96,-2.34 -13.18,-6.23l7.78 -12.98c1.68,-2.59 3.69,-3.74 6.52,-3.74 4.87,0 13.19,5.46 13.68,5.62l2.22 0.76c-0.27,9.17 -7.78,16.57 -17.02,16.57zm187.15 49.36c-8.89,-3.56 -52.2,-20.83 -69.28,-26.62 -39.57,-13.43 -66.04,-21.35 -80.91,-24.21 -3.83,-0.75 -9.59,-1.38 -14.49,-1.84 1.87,-3.05 3.14,-6.5 3.64,-10.19l163.76 55.55c-0.46,2.19 -1.5,4.79 -2.72,7.31zm23.65 -11.21l-9.13 17.12c-0.86,1.07 -3.64,3.92 -6.25,3.92 -0.81,0 -1.65,-0.3 -2.51,-0.9 2.78,-4.67 7.13,-13.25 6.46,-19.96 -0.18,-1.82 -1.41,-3.36 -3.14,-3.94l-177.75 -60.3c-2.3,-1.65 -9.55,-6.35 -17.36,-6.35 -6,0 -10.95,2.77 -14.42,8.13l-35.37 58.98 -4.3 -1.29c-2.27,-0.68 -4.7,0.46 -5.62,2.65l-6.21 14.74c-0.81,1.91 -0.25,4.13 1.37,5.44 9.29,7.47 56.51,44.79 73.73,44.79 1.14,0 2.2,-0.14 3.17,-0.42l117.51 -17.65 5.39 17.03c-6.3,3.57 -19.75,12.14 -31.39,25.76 -14.54,17.01 -28.76,45.26 -13.88,83.2 0.12,0.31 0.28,0.62 0.47,0.89l41.68 62.22c0.1,0.13 0.2,0.29 0.31,0.41 2.78,3.29 5.4,7.55 5.51,8.91 0,0.29 0.03,0.64 0.07,1.06 0.1,1 0.18,1.86 -1.08,3.55 -0.1,0.14 -2.23,3.39 -5.88,3.39 -2.72,0 -6,-1.75 -9.5,-5.07 -0.88,-0.84 -87.93,-83.35 -60.77,-128.74l20.26 -21.03c0.48,-0.41 11.54,-10.02 7.66,-23.55 -0.87,-3.04 -3.66,-8.15 -12.49,-8.15 -8.55,0 -19.15,5.04 -19.94,5.42 -0.14,0.09 -13.84,7.95 -32.91,7.95 -14.14,0 -27.63,-4.24 -40.11,-12.57 -40.19,-26.86 -41.47,-28.01 -108.31,-88.08l-11.81 -10.62c-1.39,-1.25 -3.38,-1.54 -5.06,-0.76 -1.69,0.78 -2.76,2.49 -2.7,4.35l3.09 112.49c0.04,1.76 1.08,3.35 2.68,4.09l18.51 8.64c-10.37,16.87 -41.91,70.46 -37.33,91.53 0.37,1.37 9.06,33.52 11.38,41.25 2.22,7.39 2.7,16.24 1.08,20.15 -0.1,0.24 -2.43,5.74 -8.27,5.74 -2.92,0 -6.32,-1.27 -10.12,-3.79 -0.36,-0.39 -0.77,-0.76 -1.15,-1.12 -7.77,-7.28 -29.95,-56.42 12.69,-147.58 0.42,-0.88 0.54,-1.87 0.36,-2.83 -0.23,-1.22 -22.76,-122.76 -0.23,-181.34 18.3,-47.59 58.18,-52.73 74.48,-52.73 9.07,0 17.85,1.51 24.11,4.15 21.8,9.18 255.88,114.49 258.24,115.55 0.21,0.1 0.47,0.18 0.69,0.24 0.04,0.01 4.41,1.28 5.9,4.73 1.08,2.54 0.47,6.01 -1.81,10.3z" />
  </g>
 </g>
</svg>